<?xml version="1.0" encoding="utf-8"?>
<!-- Generator: Adobe Illustrator 21.1.0, SVG Export Plug-In . SVG Version: 6.00 Build 0)  -->
<svg version="1.1" id="Layer_1" xmlns="http://www.w3.org/2000/svg" xmlns:xlink="http://www.w3.org/1999/xlink" x="0px" y="0px"
	 viewBox="0 0 500 500" style="enable-background:new 0 0 500 500;" xml:space="preserve">
<style type="text/css">
	.st0{fill:#213444;}
	.st1{fill:#FFFFFF;}
	.st2{fill:none;}
	.st3{enable-background:new    ;}
</style>
<path class="st0" d="M0-0.5h500v500H0V-0.5z"/>
<g id="Слой_2_1_">
	<path class="st1" d="M194.8,156.8c-7.6,40.7-8.4,79.3-7,109.5c-7.6,4.4-19.5,14.8-25.6,38.9c-9.3,36.3,1.7,77.3,1.7,77.3l25-97.9
		c2.3,26.4,5.5,43,5.5,43L249.7,31C249.7,31,211.6,65.9,194.8,156.8L194.8,156.8z M337.7,304.9c-6.4-24.7-18.9-35.1-26.4-39.2
		c1.5-30.2,0.6-68.6-7-108.9C287.4,65.9,249.7,31,249.7,31l54.9,296.6c0,0,3.8-17.4,5.8-45.3L336,382.5
		C336,382.5,347,341.5,337.7,304.9z M250,263.1c0,0-11.3,9.9-11.3,59.8c0,49.7,11.3,58.1,11.3,58.1s11.3-8.4,11.3-58.1
		C261.3,273,250,263.1,250,263.1L250,263.1z"/>
</g>
<path class="st2" d="M-1.5,397.5h503v63h-503V397.5z"/>
<g class="st3">
	<path class="st1" d="M123.8,461.5h-3L103.5,436H77.7v25.5h-2.2v-59.3h29.1c2.3,0,4.5,0.5,6.6,1.4s4,2.1,5.6,3.7
		c1.6,1.5,2.9,3.3,3.9,5.3s1.4,4.2,1.4,6.4c0,1.6-0.3,3.3-1,5s-1.6,3.3-2.9,4.8s-2.9,2.9-4.9,4.1s-4.2,2.1-6.8,2.7L123.8,461.5
		L123.8,461.5z M119.6,419.2c0-2-0.4-3.9-1.2-5.7c-0.8-1.8-1.9-3.4-3.3-4.7c-1.4-1.3-3-2.4-4.9-3.2s-3.8-1.2-5.8-1.2H77.7V434h25.2
		c2.3,0,4.5-0.4,6.5-1.2c2-0.8,3.8-1.9,5.3-3.2c1.5-1.3,2.7-2.9,3.6-4.7C119.2,423.1,119.6,421.2,119.6,419.2L119.6,419.2z
		 M189.8,461.5h-2.4l-8.2-17.9h-34.9l-8.2,17.9h-2.5l27-59.2h2.2L189.8,461.5L189.8,461.5z M178.2,441.6l-16.6-36.2l-16.4,36.2
		H178.2z M247.9,461.5h-2.8l-30.6-29.9l-8.3,8.2v21.7H204v-59.2h2.2v34.9l35.6-34.9h2.7l-28.6,28L247.9,461.5L247.9,461.5z
		 M305.6,461.6h-44.5v-59.3h44.5v2.1h-42.3v26.1H301v2.1h-37.7v26.9h42.3L305.6,461.6L305.6,461.6z M366.3,404.4h-23.8v57.1h-2.2
		v-57.1h-23.8v-2.1h49.7L366.3,404.4L366.3,404.4z M422.5,461.5h-2.4l-8.2-17.9H377l-8.2,17.9h-2.5l27-59.2h2.2L422.5,461.5z
		 M410.9,441.6l-16.6-36.2l-16.4,36.2H410.9z"/>
</g>
</svg>
