<?xml version="1.0" encoding="utf-8"?><svg xmlns="http://www.w3.org/2000/svg" xmlns:xlink="http://www.w3.org/1999/xlink"><symbol viewBox="0 0 212.982 212.982" id="close"><path d="M131.804 106.491l75.936-75.936c6.99-6.99 6.99-18.323 0-25.312-6.99-6.99-18.322-6.99-25.312 0L106.491 81.18 30.554 5.242c-6.99-6.99-18.322-6.99-25.312 0-6.989 6.99-6.989 18.323 0 25.312l75.937 75.936-75.937 75.937c-6.989 6.99-6.989 18.323 0 25.312 6.99 6.99 18.322 6.99 25.312 0l75.937-75.937 75.937 75.937c6.989 6.99 18.322 6.99 25.312 0 6.99-6.99 6.99-18.322 0-25.312l-75.936-75.936z" fill-rule="evenodd" clip-rule="evenodd"/></symbol><symbol viewBox="0 60.7 485.2 363.9" id="email"><path d="M485.2 363.9c0 10.6-3 20.5-7.8 29.2L324.2 221.7 475.8 89.1c5.9 9.4 9.4 20.3 9.4 32.2v242.6zM242.6 252.8L453.5 68.3c-8.7-4.7-18.4-7.6-28.9-7.6H60.7c-10.5 0-20.3 2.9-28.9 7.6l210.8 184.5zm58.8-11.2l-48.8 42.7c-2.9 2.5-6.4 3.7-10 3.7-3.6 0-7.1-1.2-10-3.7l-48.8-42.7L28.7 415.2c9.3 5.8 20.2 9.3 32 9.3h363.9c11.8 0 22.7-3.5 32-9.3L301.4 241.6zM9.4 89.1C3.6 98.4 0 109.4 0 121.3v242.6c0 10.6 3 20.5 7.8 29.2L161 221.6 9.4 89.1z"/></symbol><symbol viewBox="0 0 485.2 485.2" id="man"><path d="M394.2 333.6h-30.3c-33.5 0-60.7-27.2-60.7-60.7v-19.5c13.4-15.9 23-34.8 29-54.7.6-3.4 3.9-5 6-7.3 11.6-11.6 13.9-31.2 5.2-45.1-1.2-2.1-3.3-4-3.2-6.6 0-17.8.1-35.6 0-53.4-.5-21.5-6.6-43.8-21.7-59.7-12.1-12.8-28.8-20.5-46-23.8-21.7-4.1-44.5-3.9-66 1.5-18.7 4.7-36.2 15.6-47 31.8-9.6 14.1-13.8 31.2-14.5 48-.3 18.1-.1 36.2-.1 54.4.4 3.6-2.7 6.1-4.1 9.1-8.2 14.9-4.6 35.2 8.6 46 3.3 2.3 4 6.5 5.2 10.1 5.7 17.9 15.3 34.5 27.3 48.9v20.1c0 33.5-27.2 60.7-60.7 60.7H91s-55 15.2-91 91v30.3C0 471.5 13.6 485 30.3 485h424.6c16.8 0 30.3-13.6 30.3-30.3v-30.3c-36-75.7-91-90.8-91-90.8z"/></symbol><symbol viewBox="0 0 20 21.46" id="phone"><title>sub-phone</title><path class="dcls-1" d="M17.76 14.94c-1.3-1.11-2.61-1.78-3.89-.67l-.76.67c-.56.49-1.6 2.75-5.62-1.87S5.85 7.72 6.41 7.24l.77-.67c1.28-1.11.82-2.51-.12-3.94l-.56-.88C5.58.32 4.58-.62 3.3.49l-.69.6A6.48 6.48 0 0 0 .08 5.38c-.46 3 1 6.54 4.32 10.36s6.58 5.75 9.66 5.72a6.5 6.5 0 0 0 4.59-1.9l.69-.6c1.27-1.11.48-2.23-.81-3.34z"/></symbol></svg>