<svg xmlns="http://www.w3.org/2000/svg" viewBox="0 0 144 141"><defs><style>.a{fill:#ecf4e9;}.b{fill:#b8ccae;}.c{fill:#0f190f;}.d{fill:#fff;}</style></defs><title>ic</title><circle class="a" cx="71.53" cy="71.93" r="60" transform="translate(-17.14 121.2) rotate(-74.22)"/><ellipse class="b" cx="66.32" cy="17.34" rx="4.2" ry="8.2" transform="translate(-2.09 21.68) rotate(-18.28)"/><ellipse class="b" cx="70.26" cy="130.58" rx="3.4" ry="6.6" transform="translate(-37.42 28.63) rotate(-18.28)"/><ellipse class="c" cx="128.72" cy="51.99" rx="5.2" ry="2.6" transform="translate(-9.81 43) rotate(-18.28)"/><ellipse class="c" cx="13.97" cy="67.74" rx="5.2" ry="2.6" transform="matrix(0.95, -0.31, 0.31, 0.95, -20.55, 7.8)"/><path class="d" d="M47.38,111H85.84V99.45a1.59,1.59,0,0,1,1.59-1.6H99V37.36H47.38ZM91.5,50.76h.56a1.59,1.59,0,0,1,0,3.19H91.5a1.59,1.59,0,0,1,0-3.19Zm-22.94,0H86.4a1.59,1.59,0,1,1,0,3.19H68.55a1.59,1.59,0,0,1,0-3.19Zm0,15.43h23.5a1.59,1.59,0,0,1,0,3.19H68.55a1.59,1.59,0,0,1,0-3.19Zm0,15.38h23.5a1.59,1.59,0,0,1,0,3.19H68.55a1.59,1.59,0,0,1,0-3.19ZM53.16,51.11a1.59,1.59,0,0,1,2.25,0l1.16,1.16,4.69-4.69a1.59,1.59,0,1,1,2.25,2.25L57.7,55.65a1.59,1.59,0,0,1-2.25,0l-2.29-2.29A1.59,1.59,0,0,1,53.16,51.11Zm0,15.43a1.59,1.59,0,0,1,2.25,0l1.16,1.16L61.26,63a1.59,1.59,0,1,1,2.25,2.25L57.7,71.08a1.59,1.59,0,0,1-2.25,0l-2.29-2.29A1.59,1.59,0,0,1,53.16,66.53Zm0,15.38a1.59,1.59,0,0,1,2.25,0l1.16,1.16,4.69-4.69a1.59,1.59,0,1,1,2.25,2.25L57.7,86.46a1.59,1.59,0,0,1-2.25,0l-2.29-2.29A1.59,1.59,0,0,1,53.16,81.91Z"/><polygon class="b" points="89.02 108.74 96.71 101.05 89.02 101.04 89.02 108.74"/><path class="c" d="M100.56,34.18H45.78a1.59,1.59,0,0,0-1.59,1.59v76.81a1.59,1.59,0,0,0,1.59,1.59H87.43a1.59,1.59,0,0,0,1.13-.47l13.12-13.12a1.59,1.59,0,0,0,.47-1.13V35.77A1.59,1.59,0,0,0,100.56,34.18ZM89,108.74V101h7.7ZM99,97.86H87.42a1.59,1.59,0,0,0-1.59,1.6V111H47.38V37.36H99Z"/><path class="c" d="M55.45,55.65a1.59,1.59,0,0,0,2.25,0l5.82-5.82a1.59,1.59,0,1,0-2.25-2.25l-4.69,4.69-1.16-1.16a1.59,1.59,0,0,0-2.25,2.25Z"/><path class="c" d="M91.5,53.94h.56a1.59,1.59,0,0,0,0-3.19H91.5a1.59,1.59,0,0,0,0,3.19Z"/><path class="c" d="M68.55,53.94H86.4a1.59,1.59,0,1,0,0-3.19H68.55a1.59,1.59,0,0,0,0,3.19Z"/><path class="c" d="M55.45,71.08a1.59,1.59,0,0,0,2.25,0l5.82-5.82A1.59,1.59,0,1,0,61.26,63L56.57,67.7l-1.16-1.16a1.59,1.59,0,0,0-2.25,2.25Z"/><path class="c" d="M68.55,69.37h23.5a1.59,1.59,0,0,0,0-3.19H68.55a1.59,1.59,0,0,0,0,3.19Z"/><path class="c" d="M55.45,86.46a1.59,1.59,0,0,0,2.25,0l5.82-5.82a1.59,1.59,0,1,0-2.25-2.25l-4.69,4.69-1.16-1.16a1.59,1.59,0,0,0-2.25,2.25Z"/><path class="c" d="M68.55,84.75h23.5a1.59,1.59,0,0,0,0-3.19H68.55a1.59,1.59,0,0,0,0,3.19Z"/></svg>