<svg xmlns="http://www.w3.org/2000/svg" viewBox="0 0 144 141"><defs><style>.a{fill:#ecf4e9;}.b{fill:#b8ccae;}.c{fill:#0f190f;}.d{fill:#fff;}</style></defs><title>ic</title><circle class="a" cx="70.61" cy="70.28" r="60" transform="translate(-16.23 119.11) rotate(-74.22)"/><ellipse class="b" cx="65.4" cy="15.69" rx="4.2" ry="8.2" transform="translate(-1.62 21.31) rotate(-18.28)"/><ellipse class="b" cx="69.34" cy="128.94" rx="3.4" ry="6.6" transform="matrix(0.95, -0.31, 0.31, 0.95, -36.95, 28.26)"/><ellipse class="c" cx="127.8" cy="50.34" rx="5.2" ry="2.6" transform="translate(-9.34 42.63) rotate(-18.28)"/><ellipse class="c" cx="13.05" cy="66.1" rx="5.2" ry="2.6" transform="translate(-20.08 7.43) rotate(-18.28)"/><path class="b" d="M75.36,97.34h6V89.92h-.09a1.36,1.36,0,0,1,0-2.72h.09V79.78h-6Z"/><rect class="d" x="91.29" y="59.51" width="5.97" height="1.63"/><polygon class="b" points="72.64 36.33 69.56 36.33 69.56 42.1 72.64 39.67 72.64 36.33"/><rect class="d" x="75.36" y="59.51" width="5.97" height="1.63"/><path class="d" d="M47.7,62.6,30.46,76.19V80L47.81,66.3a1.36,1.36,0,0,1,1.68,0L64,77.69V73.9L49.61,62.6A1.53,1.53,0,0,0,47.7,62.6Z"/><rect class="d" x="42.05" y="88.47" width="13.22" height="3.08"/><rect class="d" x="42.05" y="94.27" width="13.22" height="3.08"/><path class="b" d="M33.36,81.15v16.2h6v-16A1.36,1.36,0,0,1,40.69,80H56.62A1.36,1.36,0,0,1,58,81.32v16h6V81.15L48.65,69.09Z"/><rect class="d" x="42.05" y="82.68" width="13.22" height="3.08"/><rect class="d" x="75.36" y="63.85" width="5.97" height="4.53"/><path class="d" d="M66.67,55.08V97.34h6V78.43A1.36,1.36,0,0,1,74,77.07h8.69A1.36,1.36,0,0,1,84,78.43V97.34H106V55.08L86.31,39.6ZM84,69.74a1.36,1.36,0,0,1-1.36,1.36H74a1.36,1.36,0,0,1-1.36-1.36V58.15A1.36,1.36,0,0,1,74,56.79h8.69A1.36,1.36,0,0,1,84,58.15Zm4.53-11.59a1.36,1.36,0,0,1,1.36-1.36h8.69A1.36,1.36,0,0,1,100,58.15V69.74a1.36,1.36,0,0,1-1.36,1.36H89.93a1.36,1.36,0,0,1-1.36-1.36Zm0,20.28a1.36,1.36,0,0,1,1.36-1.36h8.69A1.36,1.36,0,0,1,100,78.43V90a1.36,1.36,0,0,1-1.36,1.36H89.93A1.36,1.36,0,0,1,88.57,90Z"/><rect class="d" x="91.29" y="84.13" width="5.97" height="4.53"/><path class="d" d="M85.36,33.11l-21.59,17V53.9l21.7-17.1a1.36,1.36,0,0,1,1.68,0l21.7,17.1V50.12l-21.59-17A1.53,1.53,0,0,0,85.36,33.11Z"/><rect class="d" x="91.29" y="79.78" width="5.97" height="1.63"/><rect class="d" x="91.29" y="63.85" width="5.97" height="4.53"/><path class="c" d="M111,48.39,88.94,31a4.24,4.24,0,0,0-5.27,0l-8.32,6.56V35A1.36,1.36,0,0,0,74,33.62H68.21A1.36,1.36,0,0,0,66.85,35v9.26l-5.28,4.16a1.36,1.36,0,0,0-.52,1.07V56.7a1.36,1.36,0,0,0,2.2,1.07l.7-.55V70.45l-12.67-10a4.24,4.24,0,0,0-5.27,0l-17.76,14a1.36,1.36,0,0,0-.52,1.07v7.24a1.36,1.36,0,0,0,2.2,1.07l.7-.55V97.34H29.1a1.36,1.36,0,1,0,0,2.72h81.11a1.36,1.36,0,0,0,0-2.72h-1.54V57.22l.7.55h0a1.36,1.36,0,0,0,2.2-1.07V49.46A1.36,1.36,0,0,0,111,48.39Zm-55.79,49H42V94.27H55.26Zm0-5.79H42V88.47H55.26Zm0-5.79H42V82.68H55.26ZM64,97.34H58v-16A1.36,1.36,0,0,0,56.62,80H40.69a1.36,1.36,0,0,0-1.36,1.36v16h-6V81.15l15.3-12.05L64,81.15Zm0-19.65L49.5,66.3a1.36,1.36,0,0,0-1.68,0L30.46,80V76.19L47.7,62.6a1.53,1.53,0,0,1,1.9,0L64,73.9Zm5.61-41.36h3.08v3.34L69.57,42.1ZM81.33,87.21h-.09a1.36,1.36,0,0,0,0,2.72h.09v7.43h-6V79.78h6ZM106,97.34H84V78.43a1.36,1.36,0,0,0-1.36-1.36H74a1.36,1.36,0,0,0-1.36,1.36V97.34h-6V55.08L86.31,39.6,106,55.08Zm2.9-43.44-21.7-17.1a1.36,1.36,0,0,0-1.68,0L63.77,53.9V50.12l21.59-17a1.53,1.53,0,0,1,1.9,0l21.59,17Z"/><path class="c" d="M89.93,91.37h8.69A1.36,1.36,0,0,0,100,90V78.43a1.36,1.36,0,0,0-1.36-1.36H89.93a1.36,1.36,0,0,0-1.36,1.36V90A1.36,1.36,0,0,0,89.93,91.37Zm1.36-11.59h6v1.63h-6Zm0,4.35h6v4.53h-6Z"/><path class="c" d="M89.93,71.09h8.69A1.36,1.36,0,0,0,100,69.74V58.15a1.36,1.36,0,0,0-1.36-1.36H89.93a1.36,1.36,0,0,0-1.36,1.36V69.74A1.36,1.36,0,0,0,89.93,71.09Zm1.36-11.59h6v1.63h-6Zm0,4.35h6v4.53h-6Z"/><path class="c" d="M82.69,56.79H74a1.36,1.36,0,0,0-1.36,1.36V69.74A1.36,1.36,0,0,0,74,71.09h8.69A1.36,1.36,0,0,0,84,69.74V58.15A1.36,1.36,0,0,0,82.69,56.79ZM81.33,68.38h-6V63.85h6Zm0-7.24h-6V59.51h6Z"/></svg>