<svg xmlns="http://www.w3.org/2000/svg" viewBox="0 0 144 141"><defs><style>.a{fill:#ecf4e9;}.b{fill:#b8ccae;}.c{fill:#0f190f;}.d{fill:#fff;}</style></defs><title>ic</title><circle class="a" cx="75.2" cy="71.73" r="60"/><ellipse class="b" cx="55.34" cy="20.62" rx="4.2" ry="8.2" transform="translate(-2.05 34.53) rotate(-34.06)"/><ellipse class="b" cx="89.93" cy="128.52" rx="3.4" ry="6.6" transform="translate(-56.56 72.42) rotate(-34.06)"/><ellipse class="c" cx="124.81" cy="36.99" rx="5.2" ry="2.6" transform="matrix(0.83, -0.56, 0.56, 0.83, 0.7, 76.25)"/><ellipse class="c" cx="18.67" cy="83.36" rx="5.2" ry="2.6" transform="translate(-43.49 24.76) rotate(-34.06)"/><path class="b" d="M87.84,97.7l3.79,3.82.16-1.43a1.59,1.59,0,0,1,1.4-1.4l1.47-.17-3.81-3.84A8.28,8.28,0,0,1,87.84,97.7Z"/><circle class="b" cx="83.73" cy="90.58" r="5.04"/><path class="b" d="M76.61,94.68l-3.84,3.85,1.45.17a1.59,1.59,0,0,1,1.4,1.4l.17,1.44,3.83-3.84A8.28,8.28,0,0,1,76.61,94.68Z"/><path class="d" d="M50.21,108.81h51.45l.13-73.63H50.21Zm49.4-8.55a1.59,1.59,0,0,1-1.32,1.06l-3.47.4-.4,3.47a1.59,1.59,0,0,1-2.72.94l-7.29-7.35c-.22,0-.45,0-.68,0s-.46,0-.69,0l-7.34,7.36a1.59,1.59,0,0,1-2.71-.94l-.4-3.47-3.47-.4a1.59,1.59,0,0,1-.95-2.71l7.36-7.38c0-.22,0-.43,0-.65a8.22,8.22,0,1,1,16.45,0c0,.22,0,.44,0,.66l7.31,7.37A1.59,1.59,0,0,1,99.61,100.27ZM70.9,65.47H87.71a1.59,1.59,0,1,1,0,3.19H70.9a1.59,1.59,0,0,1,0-3.19Zm-1.59-4.62a1.59,1.59,0,0,1,1.59-1.59H87.71a1.59,1.59,0,1,1,0,3.19H70.9A1.59,1.59,0,0,1,69.31,60.84Zm1.59,11H87.71a1.59,1.59,0,1,1,0,3.19H70.9a1.59,1.59,0,1,1,0-3.19ZM69.55,41.56H82.45a1.59,1.59,0,0,1,0,3.19H69.55a1.59,1.59,0,0,1,0-3.19ZM57.28,48.26H94.73a1.59,1.59,0,0,1,0,3.19H57.28a1.59,1.59,0,0,1,0-3.19Zm7.89,20.4h-.88a1.59,1.59,0,1,1,0-3.19h.88a1.59,1.59,0,1,1,0,3.19Zm1.59,4.78A1.59,1.59,0,0,1,65.16,75h-.88a1.59,1.59,0,1,1,0-3.19h.88A1.59,1.59,0,0,1,66.76,73.43Zm-1.59-11h-.88a1.59,1.59,0,1,1,0-3.19h.88a1.59,1.59,0,1,1,0,3.19ZM56.56,87H68.83a1.59,1.59,0,1,1,0,3.19H56.56a1.59,1.59,0,0,1,0-3.19Z"/><path class="c" d="M103.39,32H48.61A1.59,1.59,0,0,0,47,33.59v76.81A1.59,1.59,0,0,0,48.61,112h54.64a1.59,1.59,0,0,0,1.59-1.59L105,33.6a1.59,1.59,0,0,0-1.59-1.6Zm-1.73,76.81H50.21V35.19h51.58Z"/><path class="c" d="M92,90.58a8.22,8.22,0,1,0-16.45,0c0,.22,0,.44,0,.65l-7.36,7.38a1.59,1.59,0,0,0,.95,2.71l3.47.4.4,3.47a1.59,1.59,0,0,0,2.71.94L83,98.78c.23,0,.46,0,.69,0s.46,0,.68,0l7.29,7.35a1.59,1.59,0,0,0,2.72-.94l.4-3.47,3.47-.4a1.59,1.59,0,0,0,1-2.7l-7.31-7.37C91.94,91,92,90.81,92,90.58Zm-16.17,11-.17-1.44a1.59,1.59,0,0,0-1.4-1.4l-1.45-.17,3.84-3.85a8.28,8.28,0,0,0,3,3Zm7.95-5.92a5,5,0,1,1,5-5A5,5,0,0,1,83.73,95.62Zm10.93,2.91-1.47.17a1.59,1.59,0,0,0-1.4,1.4l-.16,1.43L87.84,97.7a8.28,8.28,0,0,0,3-3Z"/><path class="c" d="M56.56,90.17H68.83a1.59,1.59,0,1,0,0-3.19H56.56a1.59,1.59,0,0,0,0,3.19Z"/><path class="c" d="M69.55,44.75H82.45a1.59,1.59,0,0,0,0-3.19H69.55a1.59,1.59,0,0,0,0,3.19Z"/><path class="c" d="M57.28,51.44H94.73a1.59,1.59,0,0,0,0-3.19H57.28a1.59,1.59,0,0,0,0,3.19Z"/><path class="c" d="M70.9,62.44H87.71a1.59,1.59,0,1,0,0-3.19H70.9a1.59,1.59,0,0,0,0,3.19Z"/><path class="c" d="M65.16,59.25h-.88a1.59,1.59,0,1,0,0,3.19h.88a1.59,1.59,0,1,0,0-3.19Z"/><path class="c" d="M70.9,68.65H87.71a1.59,1.59,0,1,0,0-3.19H70.9a1.59,1.59,0,0,0,0,3.19Z"/><path class="c" d="M65.16,65.47h-.88a1.59,1.59,0,1,0,0,3.19h.88a1.59,1.59,0,1,0,0-3.19Z"/><path class="c" d="M70.9,75H87.71a1.59,1.59,0,1,0,0-3.19H70.9a1.59,1.59,0,1,0,0,3.19Z"/><path class="c" d="M64.29,71.84a1.59,1.59,0,1,0,0,3.19h.88a1.59,1.59,0,1,0,0-3.19Z"/></svg>