<svg xmlns="http://www.w3.org/2000/svg" viewBox="0 0 144 141"><defs><style>.a{fill:#ecf4e9;}.b{fill:#b8ccae;}.c{fill:#0f190f;}.d{fill:#fff;}</style></defs><title>ic</title><circle class="a" cx="70.82" cy="71.04" r="60" transform="translate(-29.49 70.88) rotate(-45)"/><ellipse class="b" cx="48.72" cy="20.86" rx="4.2" ry="8.2" transform="translate(-3.07 9.62) rotate(-10.94)"/><ellipse class="b" cx="100.56" cy="121.61" rx="3.4" ry="6.6" transform="translate(-21.25 21.29) rotate(-10.94)"/><ellipse class="c" cx="11.17" cy="81.56" rx="5.2" ry="2.6" transform="translate(-15.27 3.6) rotate(-10.94)"/><ellipse class="c" cx="119.02" cy="39.29" rx="5.2" ry="2.6" transform="translate(-5.29 23.29) rotate(-10.94)"/><path class="d" d="M70,36.33c-7,0-11.71,3.66-16.3,7.21-4,3.11-8.2,6.32-13.69,6.88.26,37.17,9.89,47.27,30,59,20.1-11.72,29.73-21.82,30-59-5.49-.55-9.66-3.76-13.69-6.88C81.71,40,77,36.33,70,36.33ZM52.62,48.44c.93-.67,1.85-1.37,2.75-2.05,4.54-3.46,8.82-6.72,14.63-6.72A1.67,1.67,0,0,1,70,43c-4.68,0-8.35,2.8-12.61,6-.91.69-1.85,1.41-2.82,2.11a1.67,1.67,0,0,1-2-2.7Zm-3,5.85-.71.36a1.67,1.67,0,1,1-1.47-3l.63-.32a1.67,1.67,0,1,1,1.55,2.95Zm43.25,8.39a1.67,1.67,0,1,1,3.32.28c0,.21,0,.43-.06.64a1.67,1.67,0,0,1-1.66,1.52h-.15a1.67,1.67,0,0,1-1.51-1.81Zm1.3,3.83a1.67,1.67,0,0,1,1.42,1.88C94.07,79,90.88,87.11,85.82,93.08c-4.44,5.23-10.33,9.13-15,11.94h0l-.12.06-.08,0-.11,0-.1,0-.11,0-.11,0h-.43l-.11,0-.11,0-.1,0-.11,0-.08,0-.12-.06h0c-4.63-2.81-10.52-6.71-15-11.94a1.67,1.67,0,1,1,2.54-2.16c3.86,4.55,9,8.09,13.28,10.72,4.27-2.63,9.42-6.16,13.28-10.71,4.64-5.47,7.58-13,9-23A1.67,1.67,0,0,1,94.15,66.5Zm-5.74-5L67.23,82.7l0,0-.07.07,0,0-.07.07,0,0-.07.06,0,0,0,0-.06,0-.07.06,0,0-.08.06,0,0-.08.05,0,0-.08.05,0,0-.08.05,0,0-.08,0,0,0-.08,0,0,0,0,0-.08,0-.08,0,0,0-.08,0,0,0,0,0-.08,0-.08,0h0l-.09,0h0l-.09,0,0,0h0l-.08,0-.09,0h0l-.09,0h0l-.09,0h0l-.09,0h0l-.09,0H62.31l-.09,0h0l-.09,0h0l-.09,0h0l-.09,0h0l-.09,0-.09,0h-.08l-.09,0,0,0-.09,0h0l-.08,0-.09,0,0,0,0,0-.08,0,0,0-.08,0h0l-.08,0,0,0-.08,0,0,0-.08,0,0,0-.08-.05,0,0-.08-.05,0,0-.08-.05,0,0-.08-.06,0,0L60,83.11l0,0L59.86,83l0,0-.07-.06,0,0-.07-.07,0,0-.07-.07-8-8a5.42,5.42,0,0,1,7.66-7.66l4.13,4.13L80.76,53.85a5.42,5.42,0,0,1,7.66,7.66Z"/><path class="b" d="M83.11,56.21,64.55,74.77a1.67,1.67,0,0,1-2.36,0l-5.3-5.3a2.08,2.08,0,0,0-2.95,2.95l8,8,.29.22.31.16.16.06h0L63,81h0l.14,0h.37l.14,0h0l.29-.07h0l.19-.07h0l.28-.15.2-.14h0l.16-.14h0L86.06,59.15a2.08,2.08,0,0,0-2.95-2.95Z"/><path class="c" d="M101.67,47.17c-5.2,0-9.15-3-13.33-6.27C83.53,37.2,78.09,33,70,33s-13.53,4.2-18.34,7.9c-4.18,3.22-8.13,6.27-13.33,6.27a1.67,1.67,0,0,0-1.67,1.67c0,19.46,2.42,32.42,7.86,42S58,106.3,69.17,112.78a1.67,1.67,0,0,0,1.67,0C82,106.3,90.08,100.38,95.47,90.85s7.86-22.55,7.86-42A1.67,1.67,0,0,0,101.67,47.17ZM70,109.41c-20.1-11.72-29.73-21.82-30-59,5.49-.55,9.65-3.76,13.69-6.88C58.29,40,63,36.33,70,36.33S81.71,40,86.3,43.54c4,3.11,8.2,6.32,13.69,6.88C99.73,87.58,90.1,97.68,70,109.41Z"/><path class="c" d="M50.31,52a1.67,1.67,0,0,0-2.25-.7l-.63.32a1.67,1.67,0,1,0,1.47,3l.71-.36A1.67,1.67,0,0,0,50.31,52Z"/><path class="c" d="M94.31,65.1h.15a1.67,1.67,0,0,0,1.66-1.52c0-.21,0-.43.06-.64a1.67,1.67,0,1,0-3.32-.28l-.05.62A1.67,1.67,0,0,0,94.31,65.1Z"/><path class="c" d="M53.6,51.46a1.66,1.66,0,0,0,1-.32c1-.7,1.91-1.41,2.82-2.11,4.25-3.24,7.93-6,12.61-6a1.67,1.67,0,0,0,0-3.33c-5.81,0-10.09,3.26-14.63,6.72-.89.68-1.82,1.38-2.75,2.05a1.67,1.67,0,0,0,1,3Z"/><path class="c" d="M70,101.64C65.73,99,60.58,95.48,56.72,90.92a1.67,1.67,0,1,0-2.54,2.16c4.44,5.23,10.33,9.13,15,11.94h0l.12.06.08,0,.11,0,.1,0,.11,0,.11,0h.43l.11,0,.11,0,.1,0,.11,0,.08,0,.12-.06h0c4.63-2.81,10.52-6.71,15-11.94,5.06-6,8.25-14,9.75-24.69a1.67,1.67,0,0,0-3.3-.47c-1.41,10-4.35,17.53-9,23C79.42,95.48,74.27,99,70,101.64Z"/><path class="c" d="M80.76,53.85,63.37,71.24l-4.13-4.13a5.42,5.42,0,1,0-7.66,7.66l8,8,.07.07,0,0,.07.07,0,0,.07.06,0,0,.07.06,0,0,.07.06,0,0,.08.06,0,0,.08.05,0,0,.08.05,0,0,.08.05,0,0,.08,0,0,0,.08,0,0,0,.08,0h0l.08,0,0,0,.08,0,0,0,0,0,.09,0,.08,0h0l.09,0,0,0,.09,0h.08l.09,0,.09,0h0l.09,0h0l.09,0h0l.09,0h0l.09,0h2.11l.09,0h0l.09,0h0l.09,0h0l.09,0h0l.09,0,.08,0h0l0,0,.09,0h0l.09,0h0l.08,0,.08,0,0,0,0,0,.08,0,0,0,.08,0,.08,0,0,0,0,0,.08,0,0,0,.08,0,0,0,.08-.05,0,0,.08-.05,0,0,.08-.05,0,0,.08-.06,0,0,.07-.06.06,0,0,0,0,0,.07-.06,0,0,.07-.07,0,0,.07-.07,0,0L88.42,61.51a5.42,5.42,0,0,0-7.66-7.66Zm5.3,5.3L64.84,80.37h0l-.16.14h0l-.2.14-.28.15h0l-.19.07h0l-.29.07h0l-.14,0h-.37L63,81h0l-.29-.07h0l-.16-.06-.31-.16L62,80.45l-8-8a2.08,2.08,0,0,1,2.95-2.95l5.3,5.3a1.67,1.67,0,0,0,2.36,0L83.11,56.21a2.08,2.08,0,0,1,2.95,2.95Z"/></svg>