<svg xmlns="http://www.w3.org/2000/svg" viewBox="0 0 144 141"><defs><style>.a{fill:#ecf4e9;}.b{fill:#b8ccae;}.c{fill:#0f190f;}.d{fill:#fff;}</style></defs><title>ic</title><circle class="a" cx="70.04" cy="70.04" r="60" transform="translate(-29.01 70.04) rotate(-45)"/><ellipse class="b" cx="92.14" cy="19.86" rx="8.2" ry="4.2" transform="translate(55.17 106.56) rotate(-79.06)"/><ellipse class="b" cx="40.3" cy="120.61" rx="6.6" ry="3.4" transform="translate(-85.77 137.3) rotate(-79.06)"/><ellipse class="c" cx="129.69" cy="80.56" rx="2.6" ry="5.2" transform="translate(25.99 192.61) rotate(-79.06)"/><ellipse class="c" cx="21.84" cy="38.29" rx="2.6" ry="5.2" transform="translate(-19.9 52.48) rotate(-79.06)"/><rect class="d" x="59.95" y="63.36" width="17.19" height="2.16"/><path class="d" d="M98.19,78V50.85H80.68V78ZM93,58.59a1.77,1.77,0,0,1,3.55,0v.53a1.77,1.77,0,1,1-3.55,0Zm0,5.5a1.77,1.77,0,0,1,3.55,0V74.55a1.77,1.77,0,1,1-3.55,0Z"/><path class="b" d="M78.39,84.3h22.09a1.38,1.38,0,0,0,1.38-1.38,1.34,1.34,0,0,0-1.38-1.34H78.39A1.34,1.34,0,0,0,77,82.92,1.38,1.38,0,0,0,78.39,84.3Z"/><path class="b" d="M78.39,47.3h22.09a1.38,1.38,0,1,0,0-2.75H78.39a1.38,1.38,0,0,0,0,2.75Z"/><path class="d" d="M25,64.44a2.68,2.68,0,0,0,2.67,2.67H56.4V61.77H27.72A2.68,2.68,0,0,0,25,64.44Z"/><path class="d" d="M102.5,94.74H76.37a4.46,4.46,0,0,0-4.1,2.71H106.6A4.46,4.46,0,0,0,102.5,94.74Z"/><path class="c" d="M102.5,91.2H76.37a8,8,0,0,0-8,8,1.81,1.81,0,0,0,1.8,1.8H108.7a1.81,1.81,0,0,0,1.8-1.8A8,8,0,0,0,102.5,91.2ZM72.26,97.45a4.46,4.46,0,0,1,4.1-2.71H102.5a4.46,4.46,0,0,1,4.1,2.71Z"/><path class="c" d="M77.14,78.2a4.9,4.9,0,0,0,1.25,9.64h22.09a4.9,4.9,0,0,0,1.25-9.64V50.68A4.92,4.92,0,0,0,100.48,41H78.39a4.92,4.92,0,0,0-1.25,9.68v9.14H59.94a1.77,1.77,0,0,0-1.76-1.59H27.72a6.22,6.22,0,1,0,0,12.44H58.18a1.77,1.77,0,0,0,1.76-1.59H77.14ZM56.4,67.11H27.72a2.67,2.67,0,1,1,0-5.34H56.4ZM77,45.92a1.38,1.38,0,0,1,1.38-1.38h22.09a1.38,1.38,0,1,1,0,2.75H78.39A1.38,1.38,0,0,1,77,45.92Zm21.17,4.92V78H80.68V50.85ZM78.39,81.58h22.09a1.34,1.34,0,0,1,1.38,1.34,1.38,1.38,0,0,1-1.38,1.38H78.39A1.38,1.38,0,0,1,77,82.92,1.34,1.34,0,0,1,78.39,81.58ZM59.95,65.52V63.36H77.14v2.16Z"/><path class="c" d="M94.72,76.32a1.77,1.77,0,0,0,1.77-1.77V64.09a1.77,1.77,0,0,0-3.55,0V74.55A1.77,1.77,0,0,0,94.72,76.32Z"/><path class="c" d="M94.72,60.89a1.77,1.77,0,0,0,1.77-1.77v-.53a1.77,1.77,0,0,0-3.55,0v.53A1.77,1.77,0,0,0,94.72,60.89Z"/></svg>