<svg xmlns="http://www.w3.org/2000/svg" viewBox="0 0 144 141"><defs><style>.a{fill:#ecf4e9;}.b{fill:#b8ccae;}.c{fill:#0f190f;}.d{fill:#fff;}</style></defs><title>ic</title><circle class="a" cx="71.3" cy="70.1" r="60"/><ellipse class="b" cx="21.05" cy="48.3" rx="4.2" ry="8.2" transform="matrix(0.56, -0.83, 0.83, 0.56, -30.76, 38.68)"/><ellipse class="b" cx="118.88" cy="102.69" rx="3.4" ry="6.6" transform="matrix(0.56, -0.83, 0.83, 0.56, -32.78, 143.65)"/><ellipse class="c" cx="75.42" cy="128.77" rx="5.2" ry="2.6" transform="translate(-73.5 119.12) rotate(-55.94)"/><ellipse class="c" cx="80.79" cy="11.63" rx="5.2" ry="2.6" transform="translate(25.91 72.04) rotate(-55.94)"/><path class="b" d="M43,94.34a1.56,1.56,0,0,1-3.13,0V82.77H36.12V105.9H46.75V82.77H43Zm-.38,7.28a1.61,1.61,0,0,1-1.11.45,1.55,1.55,0,0,1-1.11-.45,1.61,1.61,0,0,1-.45-1.11,1.55,1.55,0,0,1,.45-1.11,1.61,1.61,0,0,1,1.11-.45,1.55,1.55,0,0,1,1.11.45,1.61,1.61,0,0,1,.45,1.11A1.55,1.55,0,0,1,42.62,101.62Z"/><path class="d" d="M97.72,84.84,85.28,95.29a1.56,1.56,0,0,1-2-2.39L95.71,82.44a6.33,6.33,0,0,1,2.91-1.38V64.93L73,45.86,47.36,64.93V79.71a3.12,3.12,0,0,1,2.48,2.75H61.33a10.84,10.84,0,0,1,6.06,1.83l10.45,7a5.18,5.18,0,0,1,1.31,7.34,5.16,5.16,0,0,1-6.39,1.63L63.83,96a1.56,1.56,0,0,1,1.34-2.81l8.94,4.27A2,2,0,0,0,77,95.21a2,2,0,0,0-.88-1.34l-10.45-7a7.75,7.75,0,0,0-4.33-1.31H49.87v17.49l8,2.81h22A7.84,7.84,0,0,0,85,104l16.91-14.3A3.18,3.18,0,0,0,103,87.48a3.14,3.14,0,0,0-.86-2.38A3.23,3.23,0,0,0,97.72,84.84Z"/><polygon class="d" points="101.44 38.08 94.56 38.08 94.56 44.67 101.44 49.78 101.44 38.08"/><path class="b" d="M63.85,39.34a1.58,1.58,0,0,1-.24.22L36.95,59.35l5.41,5.42L72.08,42.66a1.57,1.57,0,0,1,1.86,0l29.72,22.11,5.41-5.42L73,32.53Z"/><path class="c" d="M112.38,57.93l-7.81-5.81V36.52A1.57,1.57,0,0,0,103,35H93a1.57,1.57,0,0,0-1.56,1.56v5.83l-17.5-13a1.57,1.57,0,0,0-1.86,0L33.62,57.93a1.56,1.56,0,0,0-.17,2.36l7.64,7.66a1.57,1.57,0,0,0,2,.16l1.11-.83V79.65H36.12A3.13,3.13,0,0,0,33,82.77V105.9A3.13,3.13,0,0,0,36.12,109H46.75a3.11,3.11,0,0,0,3.08-2.66l7.27,2.56a1.5,1.5,0,0,0,.52.09H79.92A11,11,0,0,0,87,106.45l16.91-14.3a6.33,6.33,0,0,0-2.14-10.86v-14l1.11.81a1.57,1.57,0,0,0,2-.14l7.64-7.66a1.56,1.56,0,0,0-.17-2.36ZM94.56,38.08h6.88v11.7l-6.88-5.11ZM46.75,84V105.9H36.12V82.77h3.75V94.34a1.56,1.56,0,0,0,3.13,0V82.77h3.75Zm55.4,1.08a3.14,3.14,0,0,1,.86,2.38,3.18,3.18,0,0,1-1.13,2.27L85,104a7.84,7.84,0,0,1-5,1.84h-22l-8-2.81V85.59H61.34a7.75,7.75,0,0,1,4.33,1.31l10.45,7A2,2,0,0,1,77,95.21a2,2,0,0,1-2.89,2.2l-8.94-4.27A1.56,1.56,0,0,0,63.83,96l8.94,4.27a5.17,5.17,0,0,0,5.08-9l-10.45-7a10.84,10.84,0,0,0-6.06-1.83H49.84a3.12,3.12,0,0,0-2.48-2.75V64.93L73,45.86,98.61,64.93V81.07a6.33,6.33,0,0,0-2.91,1.38L83.27,92.9a1.56,1.56,0,0,0,2,2.39L97.72,84.84A3.23,3.23,0,0,1,102.14,85.1Zm1.52-20.33L73.94,42.66a1.57,1.57,0,0,0-1.86,0L42.36,64.77l-5.41-5.42L63.61,39.56a1.58,1.58,0,0,0,.24-.22L73,32.53l36.07,26.82Z"/><path class="c" d="M41.51,98.95a1.61,1.61,0,0,0-1.11.45,1.55,1.55,0,0,0-.45,1.11,1.61,1.61,0,0,0,.45,1.11,1.55,1.55,0,0,0,1.11.45,1.61,1.61,0,0,0,1.11-.45,1.55,1.55,0,0,0,.45-1.11,1.61,1.61,0,0,0-.45-1.11A1.55,1.55,0,0,0,41.51,98.95Z"/></svg>