<svg xmlns="http://www.w3.org/2000/svg" viewBox="0 0 144 141"><defs><style>.a{fill:#ecf4e9;}.b{fill:#b8ccae;}.c{fill:#0f190f;}.d{fill:#fff;}</style></defs><title>ic</title><circle class="a" cx="72" cy="71.04" r="60"/><ellipse class="b" cx="20.89" cy="51.18" rx="4.2" ry="8.2" transform="matrix(0.56, -0.83, 0.83, 0.56, -33.21, 39.82)"/><ellipse class="b" cx="121.72" cy="105.57" rx="3.4" ry="6.6" transform="translate(-33.91 147.27) rotate(-55.94)"/><ellipse class="c" cx="37.26" cy="120.65" rx="5.2" ry="2.6" transform="translate(-83.56 83.94) rotate(-55.94)"/><ellipse class="c" cx="83.63" cy="14.51" rx="5.2" ry="2.6" transform="translate(24.77 75.66) rotate(-55.94)"/><polygon class="b" points="89.7 105.06 97.39 97.37 89.69 97.36 89.7 105.06"/><path class="d" d="M48.05,83.44l5-5a1.59,1.59,0,0,1,2.25,0l1.36,1.36,3-3A18.9,18.9,0,1,1,62,79l-3,3,1.46,1.46a1.59,1.59,0,0,1,0,2.25L48.05,98.09v9.22H86.51V95.77a1.59,1.59,0,0,1,1.59-1.6H99.64V33.69H48.05Z"/><path class="d" d="M54.21,81.79,38.94,97.06a2,2,0,1,0,2.82,2.82L57,84.61Z"/><path class="b" d="M89.78,64.48a15.7,15.7,0,1,0-15.7,15.7A15.71,15.71,0,0,0,89.78,64.48ZM77.19,56.59h1a1.59,1.59,0,0,1,0,3.19h-1a1.59,1.59,0,1,1,0-3.19Zm-12,0h7.17a1.59,1.59,0,1,1,0,3.19H65.24a1.59,1.59,0,0,1,0-3.19Zm0,6.37H83.09a1.59,1.59,0,1,1,0,3.19H65.24a1.59,1.59,0,1,1,0-3.19Zm-1.59,7.81a1.59,1.59,0,0,1,1.59-1.59H83.09a1.59,1.59,0,1,1,0,3.19H65.24A1.59,1.59,0,0,1,63.65,70.77Z"/><path class="c" d="M101.23,30.5H46.46a1.59,1.59,0,0,0-1.59,1.59V86.63l-8.18,8.18A5.18,5.18,0,0,0,44,102.13l.85-.85v7.63a1.59,1.59,0,0,0,1.59,1.59H88.11a1.59,1.59,0,0,0,1.13-.47l13.12-13.12a1.59,1.59,0,0,0,.47-1.13V32.09A1.59,1.59,0,0,0,101.23,30.5ZM41.76,99.88a2,2,0,1,1-2.82-2.82L54.21,81.79,57,84.61Zm47.94,5.19v-7.7h7.7Zm9.94-10.87H88.1a1.59,1.59,0,0,0-1.59,1.6v11.54H48.05V98.09L60.41,85.73a1.59,1.59,0,0,0,0-2.25L59,82l3-3a18.91,18.91,0,1,0-2.27-2.24l-3,3-1.36-1.36a1.59,1.59,0,0,0-2.25,0l-5,5V33.69H99.64ZM58.39,64.48a15.7,15.7,0,1,1,15.7,15.7A15.71,15.71,0,0,1,58.39,64.48Z"/><path class="c" d="M65.24,66.15H83.09a1.59,1.59,0,1,0,0-3.19H65.24a1.59,1.59,0,1,0,0,3.19Z"/><path class="c" d="M84.68,70.77a1.59,1.59,0,0,0-1.59-1.59H65.24a1.59,1.59,0,1,0,0,3.19H83.09A1.59,1.59,0,0,0,84.68,70.77Z"/><path class="c" d="M65.24,59.78h7.17a1.59,1.59,0,1,0,0-3.19H65.24a1.59,1.59,0,0,0,0,3.19Z"/><path class="c" d="M77.19,59.78h1a1.59,1.59,0,0,0,0-3.19h-1a1.59,1.59,0,1,0,0,3.19Z"/></svg>