<svg xmlns="http://www.w3.org/2000/svg" viewBox="0 0 144 141"><defs><style>.a{fill:#ecf4e9;}.b{fill:#b8ccae;}.c{fill:#0f190f;}.d{fill:#fff;}</style></defs><title>ic</title><circle class="a" cx="73.2" cy="70.2" r="60"/><ellipse class="b" cx="22.09" cy="50.34" rx="4.2" ry="8.2" transform="matrix(0.56, -0.83, 0.83, 0.56, -31.99, 40.44)"/><ellipse class="b" cx="122.92" cy="104.73" rx="3.4" ry="6.6" transform="translate(-32.69 147.9) rotate(-55.94)"/><ellipse class="c" cx="38.46" cy="119.81" rx="5.2" ry="2.6" transform="translate(-82.34 84.56) rotate(-55.94)"/><ellipse class="c" cx="84.83" cy="13.67" rx="5.2" ry="2.6" transform="translate(25.99 76.29) rotate(-55.94)"/><path class="b" d="M74.79,90.87,83,105l2.86-10.68a1.67,1.67,0,0,1,2-1.18L98.54,96,91.49,83.79A29.87,29.87,0,0,1,74.79,90.87Z"/><path class="d" d="M98.67,61A26.67,26.67,0,1,0,72,87.67,26.7,26.7,0,0,0,98.67,61ZM92,61a1.67,1.67,0,1,1,3.33,0c0,.35,0,.7,0,1a1.67,1.67,0,0,1-1.66,1.59h-.07A1.67,1.67,0,0,1,92,61.9C92,61.6,92,61.3,92,61ZM52,61a1.67,1.67,0,1,1-3.33,0c0-.35,0-.7,0-1A1.67,1.67,0,1,1,52,60.1C52,60.4,52,60.7,52,61Zm.64-5.05a1.67,1.67,0,0,1-3.23-.84A23.33,23.33,0,0,1,72,37.67,1.67,1.67,0,1,1,72,41,20,20,0,0,0,52.64,55.95ZM66.75,71V69q0-.83.93-.83h3V54.42l-3,1.16a1.91,1.91,0,0,1-.74.16.59.59,0,0,1-.58-.45,14,14,0,0,1-.74-2.37.69.69,0,0,1,.48-.61l3.75-1.51a7.34,7.34,0,0,1,2.79-.64h.26a1.93,1.93,0,0,1,2.15,2.21V68.16h2.37q.93,0,.93.83V71a.78.78,0,0,1-.21.64,1.15,1.15,0,0,1-.69.16H67.68Q66.75,71.85,66.75,71ZM72,84.33A1.67,1.67,0,1,1,72,81,20,20,0,0,0,91.36,66.05a1.67,1.67,0,1,1,3.23.84A23.33,23.33,0,0,1,72,84.33Z"/><path class="b" d="M45.46,96l10.68-2.86a1.67,1.67,0,0,1,2,1.18L61,105l8.15-14.14a29.87,29.87,0,0,1-16.68-7.08Z"/><path class="c" d="M73.67,39.33A1.67,1.67,0,0,0,72,37.67,23.33,23.33,0,0,0,49.42,55.11a1.67,1.67,0,1,0,3.23.84A20,20,0,0,1,72,41,1.67,1.67,0,0,0,73.67,39.33Z"/><path class="c" d="M50.43,58.36A1.67,1.67,0,0,0,48.69,60c0,.35,0,.7,0,1A1.67,1.67,0,1,0,52,61c0-.3,0-.6,0-.9A1.67,1.67,0,0,0,50.43,58.36Z"/><path class="c" d="M93.39,64.86a1.66,1.66,0,0,0-2,1.19A20,20,0,0,1,72,81a1.67,1.67,0,1,0,0,3.33A23.33,23.33,0,0,0,94.58,66.89,1.67,1.67,0,0,0,93.39,64.86Z"/><path class="c" d="M93.57,63.64h.07A1.67,1.67,0,0,0,95.31,62c0-.35,0-.7,0-1A1.67,1.67,0,1,0,92,61c0,.3,0,.6,0,.9A1.67,1.67,0,0,0,93.57,63.64Z"/><path class="c" d="M78.16,71.68a.78.78,0,0,0,.21-.64V69q0-.83-.93-.83H75.06V52.37a1.93,1.93,0,0,0-2.15-2.21h-.26a7.34,7.34,0,0,0-2.79.64L66.11,52.3a.69.69,0,0,0-.48.61,14,14,0,0,0,.74,2.37.59.59,0,0,0,.58.45,1.91,1.91,0,0,0,.74-.16l3-1.16V68.16h-3q-.93,0-.93.83v2q0,.87.93.87h9.79A1.15,1.15,0,0,0,78.16,71.68Z"/><path class="c" d="M94,81.41a30,30,0,1,0-43.93,0L40.56,97.83a1.67,1.67,0,0,0,1.87,2.44l13-3.47,3.47,13A1.67,1.67,0,0,0,60.26,111h.22a1.67,1.67,0,0,0,1.44-.83L72,92.69l10.09,17.48a1.67,1.67,0,0,0,1.44.83h.22a1.67,1.67,0,0,0,1.39-1.22l3.47-13,13,3.47a1.67,1.67,0,0,0,1.87-2.44ZM61,105,58.18,94.33a1.67,1.67,0,0,0-2-1.18L45.46,96l7.06-12.23a29.87,29.87,0,0,0,16.68,7.08ZM45.33,61A26.67,26.67,0,1,1,72,87.67,26.7,26.7,0,0,1,45.33,61ZM87.86,93.15a1.67,1.67,0,0,0-2,1.18L83,105,74.79,90.87a29.87,29.87,0,0,0,16.7-7.08L98.54,96Z"/></svg>