<svg xmlns="http://www.w3.org/2000/svg" viewBox="0 0 144 141"><defs><style>.a{fill:#ecf4e9;}.b{fill:#b8ccae;}.c{fill:#0f190f;}.d{fill:#fff;}</style></defs><title>ic</title><circle class="a" cx="69.2" cy="71.2" r="60"/><ellipse class="b" cx="47.4" cy="121.46" rx="8.2" ry="4.2" transform="matrix(0.56, -0.83, 0.83, 0.56, -79.76, 92.7)"/><ellipse class="b" cx="101.79" cy="23.62" rx="6.6" ry="3.4" transform="translate(25.21 94.72) rotate(-55.94)"/><ellipse class="c" cx="127.87" cy="67.09" rx="2.6" ry="5.2" transform="matrix(0.56, -0.83, 0.83, 0.56, 0.67, 135.44)"/><ellipse class="c" cx="10.73" cy="61.71" rx="2.6" ry="5.2" transform="translate(-46.4 36.04) rotate(-55.94)"/><path class="d" d="M37.5,48.3H35.8V55h20a1.7,1.7,0,0,1,0,3.4h-20v3.3h6.7a1.7,1.7,0,0,1,0,3.4H35.8V91.8H41a8.37,8.37,0,0,1,16.4,0H79.2V88.5H67.8a1.69,1.69,0,0,1-1.7-1.7,1.63,1.63,0,0,1,1.7-1.7H79.1V48.3Zm23.8,6.6h1a1.7,1.7,0,0,1,0,3.4h-1a1.69,1.69,0,0,1-1.7-1.7A1.75,1.75,0,0,1,61.3,54.9Zm0,30h1A1.69,1.69,0,0,1,64,86.6a1.63,1.63,0,0,1-1.7,1.7h-1a1.7,1.7,0,1,1,0-3.4Z"/><circle class="b" cx="49.2" cy="93.3" r="5"/><polygon class="b" points="72.5 44.9 72.5 41.6 54.9 41.6 58.2 44.9 72.5 44.9"/><polygon class="b" points="49.7 41.1 49.7 41.1 47.5 38.9 41.5 44.9 53.5 44.9 49.7 41.1"/><path class="d" d="M82.5,91.6h5.2a9.06,9.06,0,0,1,1.5-3.3H82.5Z"/><path class="d" d="M102.5,64.9h-5V76.6h11.7v-5A6.7,6.7,0,0,0,102.5,64.9Z"/><path class="b" d="M95.8,88.3h0a5,5,0,1,0,5,5h0A5,5,0,0,0,95.8,88.3Z"/><path class="d" d="M87.5,78.3v-15a1.69,1.69,0,0,1,1.7-1.7h11.7V59.9a1.69,1.69,0,0,0-1.7-1.7H82.5V84.9H95.8a8.46,8.46,0,0,1,8.2,6.7h5.2V79.9h-20A1.61,1.61,0,0,1,87.5,78.3Z"/><rect class="d" x="90.8" y="64.9" width="3.3" height="11.7"/><path class="c" d="M104.2,61.7V59.9a5,5,0,0,0-5-5H82.5V46.6a1.69,1.69,0,0,0-1.7-1.7h-5v-5a1.69,1.69,0,0,0-1.7-1.7H51.5l-2.8-2.8a1.63,1.63,0,0,0-2.4,0l-9.5,9.5H34.2a1.69,1.69,0,0,0-1.7,1.7V93.3A1.69,1.69,0,0,0,34.2,95H41a9.06,9.06,0,0,0,1.5,3.3H39.2a1.7,1.7,0,1,0,0,3.4h10A8.46,8.46,0,0,0,57.4,95H87.7a9.06,9.06,0,0,0,1.5,3.3H85.9a1.7,1.7,0,1,0,0,3.4h10a8.46,8.46,0,0,0,8.2-6.7h6.8a1.69,1.69,0,0,0,1.7-1.7V71.6A10.19,10.19,0,0,0,104.2,61.7ZM72.5,41.6v3.3H58.2l-3.3-3.3Zm-25-2.7,2.2,2.2h0l3.8,3.8h-12Zm1.7,59.4a5,5,0,1,1,5-5A5.08,5.08,0,0,1,49.2,98.3Zm30-41.7V84.9H67.8a1.69,1.69,0,0,0-1.7,1.7,1.63,1.63,0,0,0,1.7,1.7H79.1v3.3H57.3a8.37,8.37,0,0,0-16.4,0H35.7V64.9h6.7a1.7,1.7,0,0,0,0-3.4H35.7V58.2h20a1.7,1.7,0,0,0,0-3.4h-20V48.1H79.1v8.5Zm8.5,35H82.5V88.3h6.7A6.66,6.66,0,0,0,87.7,91.6Zm13.1,1.7a5,5,0,1,1-5-5h0a5,5,0,0,1,5,5Zm8.4-1.7H104a8.37,8.37,0,0,0-8.2-6.7H82.5V58.3H99.2a1.69,1.69,0,0,1,1.7,1.7v1.7H89.2a1.69,1.69,0,0,0-1.7,1.7v15a1.69,1.69,0,0,0,1.7,1.7h20Zm-15-26.7V76.6H90.9V64.9Zm15,11.7H97.5V64.9h5a6.7,6.7,0,0,1,6.7,6.7Z"/><path class="c" d="M61.3,88.3h1A1.69,1.69,0,0,0,64,86.6a1.63,1.63,0,0,0-1.7-1.7h-1a1.7,1.7,0,1,0,0,3.4Z"/><path class="c" d="M61.3,58.3h1a1.7,1.7,0,0,0,0-3.4h-1a1.69,1.69,0,0,0-1.7,1.7A1.75,1.75,0,0,0,61.3,58.3Z"/></svg>