<svg xmlns="http://www.w3.org/2000/svg" viewBox="0 0 144 141"><defs><style>.a{fill:#ecf4e9;}.b{fill:#b8ccae;}.c{fill:#0f190f;}.d{fill:#fff;}</style></defs><title>ic</title><circle class="a" cx="69.33" cy="72.54" r="60"/><ellipse class="b" cx="18.22" cy="52.68" rx="4.2" ry="8.2" transform="translate(-35.63 38.27) rotate(-55.94)"/><ellipse class="b" cx="119.05" cy="107.07" rx="3.4" ry="6.6" transform="matrix(0.56, -0.83, 0.83, 0.56, -36.33, 145.72)"/><ellipse class="c" cx="34.59" cy="122.15" rx="5.2" ry="2.6" transform="translate(-85.98 82.39) rotate(-55.94)"/><ellipse class="c" cx="80.96" cy="16.01" rx="5.2" ry="2.6" transform="translate(22.35 74.12) rotate(-55.94)"/><polygon class="b" points="48.77 77.7 34.58 77.7 35.29 82.68 47.22 82.68 48.77 77.7"/><path class="d" d="M42.1,91H97.9a6.53,6.53,0,0,0,6.37-5.22H35.73A6.53,6.53,0,0,0,42.1,91Z"/><path class="b" d="M39.09,93.53V96.1a1.56,1.56,0,0,0,1.56,1.56H48.3a1.56,1.56,0,0,0,1.56-1.56V94H42.1A9.44,9.44,0,0,1,39.09,93.53Z"/><path class="b" d="M90.14,94V96.1a1.56,1.56,0,0,0,1.56,1.56h7.65a1.56,1.56,0,0,0,1.56-1.56h0V93.53a9.44,9.44,0,0,1-3,.49Z"/><path class="d" d="M90.29,48.9a8.45,8.45,0,0,0-3.54-1.77c-5.32-1.22-28.19-1.22-33.51,0A8.45,8.45,0,0,0,49.7,48.9C57,47.64,83,47.63,90.29,48.9Z"/><path class="d" d="M93.07,53a11.58,11.58,0,0,0-3-1c-6.55-1.26-33.5-1.26-40,0a11.58,11.58,0,0,0-3.05,1L42.2,63.34H97.8Z"/><path class="b" d="M37.87,60.69a1,1,0,0,0-1-1H34a1,1,0,0,0-.12,2l3.95.48Z"/><polygon class="b" points="92.78 82.68 104.71 82.68 105.42 77.7 91.23 77.7 92.78 82.68"/><path class="d" d="M40.77,66.4,35.9,71.27a5.56,5.56,0,0,0-1.59,3.37h71.38a5.56,5.56,0,0,0-1.59-3.37L99.23,66.4Z"/><polygon class="d" points="51.98 77.7 50.42 82.68 52.54 82.68 54.09 77.7 51.98 77.7"/><path class="b" d="M106,59.71h-2.85a1,1,0,0,0-1,1h0v1.45l3.95-.48a1,1,0,0,0-.12-2Z"/><polygon class="d" points="57.3 77.7 55.74 82.68 84.25 82.68 82.7 77.7 57.3 77.7"/><polygon class="d" points="88.02 77.7 85.9 77.7 87.46 82.68 89.58 82.68 88.02 77.7"/><path class="c" d="M106,56.65h-2.85a4.05,4.05,0,0,0-3.79,2.65l-4-8.71a11.57,11.57,0,0,0-7.89-6.44c-5.87-1.34-29-1.34-34.88,0a11.57,11.57,0,0,0-7.89,6.44l-4,8.71a4.05,4.05,0,0,0-3.79-2.65H34a4,4,0,0,0-.48,8.06l4.09.49-3.91,3.91a8.63,8.63,0,0,0-2.43,7.28l1.34,9.42a9.54,9.54,0,0,0,3.38,6V96.1a4.62,4.62,0,0,0,4.62,4.62H48.3a4.62,4.62,0,0,0,4.62-4.62V94H87.08V96.1a4.62,4.62,0,0,0,4.62,4.62h7.65A4.62,4.62,0,0,0,104,96.1V91.82a9.54,9.54,0,0,0,3.39-6l1.34-9.42a8.63,8.63,0,0,0-2.43-7.28l-3.91-3.91,4.09-.49a4,4,0,0,0-.48-8.06ZM53.24,47.13c5.32-1.22,28.19-1.22,33.51,0a8.45,8.45,0,0,1,3.54,1.77C83,47.63,57,47.64,49.7,48.9A8.45,8.45,0,0,1,53.24,47.13ZM46.93,53A11.58,11.58,0,0,1,50,52c6.55-1.26,33.49-1.26,40,0a11.58,11.58,0,0,1,3,1L97.8,63.34H42.2Zm-13,8.67a1,1,0,0,1,.12-2h2.85a1,1,0,0,1,1,1v1.45Zm1.36,21-.71-5H48.77l-1.55,5ZM49.86,96.1a1.56,1.56,0,0,1-1.56,1.56H40.64a1.56,1.56,0,0,1-1.56-1.56V93.53a9.44,9.44,0,0,0,3,.49h7.76Zm51.06,0h0a1.56,1.56,0,0,1-1.56,1.56H91.7a1.56,1.56,0,0,1-1.56-1.56V94H97.9a9.44,9.44,0,0,0,3-.49ZM97.9,91H42.1a6.53,6.53,0,0,1-6.37-5.22h68.53A6.53,6.53,0,0,1,97.9,91ZM50.42,82.68l1.56-5h2.12l-1.56,5Zm5.32,0,1.56-5H82.7l1.56,5Zm30.16-5H88l1.56,5H87.46Zm18.81,5H92.78l-1.56-5h14.19Zm-.61-11.41a5.56,5.56,0,0,1,1.59,3.37H34.31a5.56,5.56,0,0,1,1.59-3.37l4.87-4.87H99.23Zm2-9.6-3.95.48V60.69h0a1,1,0,0,1,1-1H106a1,1,0,0,1,.12,2Z"/></svg>