<svg xmlns="http://www.w3.org/2000/svg" viewBox="0 0 144 141"><defs><style>.a{fill:#ecf4e9;}.b{fill:#b8ccae;}.c{fill:#0f190f;}.d{fill:#fff;}</style></defs><title>ic</title><circle class="a" cx="71.91" cy="71.5" r="60" transform="translate(-29.24 64.31) rotate(-40.77)"/><ellipse class="b" cx="22.58" cy="47.67" rx="4.2" ry="8.2" transform="translate(-29.34 57) rotate(-74.83)"/><ellipse class="b" cx="125.66" cy="96.25" rx="3.4" ry="6.6" transform="matrix(0.26, -0.97, 0.97, 0.26, -0.11, 192.35)"/><ellipse class="c" cx="109.03" cy="26.3" rx="5.2" ry="2.6" transform="translate(55.12 124.65) rotate(-74.83)"/><ellipse class="c" cx="33.82" cy="116.87" rx="5.2" ry="2.6" transform="translate(-87.82 118.94) rotate(-74.83)"/><rect class="d" x="47.96" y="78.3" width="6.62" height="12.01"/><rect class="d" x="89.43" y="78.3" width="6.62" height="12.01"/><circle class="d" cx="71.85" cy="56.17" r="2.67"/><path class="d" d="M65.1,87.49h1.11a1.49,1.49,0,0,1,0,3H65.1v11H78.9v-25H65.1Z"/><path class="b" d="M59.08,53.65a1.49,1.49,0,0,1,.35-1l9.48-11.2H43.06l-5,16h21Z"/><path class="b" d="M75.09,41.48l9.48,11.2a1.49,1.49,0,0,1,.35,1V57.5h21l-5-16Z"/><path class="d" d="M81.94,59v-4.8L72,42.45,62.06,54.19V59a1.49,1.49,0,0,1-1.49,1.49h-20v41H62.12V75a1.49,1.49,0,0,1,1.49-1.49H80.39A1.49,1.49,0,0,1,81.88,75v26.49h21.59v-41h-20A1.49,1.49,0,0,1,81.94,59ZM42.6,63.89a1.49,1.49,0,0,1,1.49-1.49h9.2a1.49,1.49,0,0,1,0,3h-9.2A1.49,1.49,0,0,1,42.6,63.89Zm15,27.91a1.49,1.49,0,0,1-1.49,1.49h-9.6A1.49,1.49,0,0,1,45,91.8v-15a1.49,1.49,0,0,1,1.49-1.49h9.6a1.49,1.49,0,0,1,1.49,1.49Zm1.83-26.42h-.74a1.49,1.49,0,0,1,0-3h.74a1.49,1.49,0,0,1,0,3Zm12.47-3.56a5.65,5.65,0,1,1,5.65-5.65A5.65,5.65,0,0,1,71.85,61.82Zm14.59,15a1.49,1.49,0,0,1,1.49-1.49h9.6A1.49,1.49,0,0,1,99,76.81v15a1.49,1.49,0,0,1-1.49,1.49h-9.6a1.49,1.49,0,0,1-1.49-1.49Z"/><path class="c" d="M103.46,39.55a1.49,1.49,0,0,0-1.42-1H42a1.49,1.49,0,0,0-1.42,1l-5.89,19a1.49,1.49,0,0,0,1.42,1.93h1.48V103A1.49,1.49,0,0,0,39,104.5H105a1.49,1.49,0,0,0,1.49-1.49V60.48h1.48a1.49,1.49,0,0,0,1.42-1.93ZM38.1,57.5h0l5-16H68.91l-9.48,11.2a1.49,1.49,0,0,0-.35,1V57.5Zm40.8,44H65.1v-11h1.11a1.49,1.49,0,0,0,0-3H65.1v-11H78.9Zm24.57,0H81.88V75a1.49,1.49,0,0,0-1.49-1.49H63.61A1.49,1.49,0,0,0,62.12,75v26.49H40.53v-41h20A1.49,1.49,0,0,0,62.06,59v-4.8L72,42.45l9.94,11.75V59a1.49,1.49,0,0,0,1.49,1.49h20Zm-18.54-44V53.65a1.49,1.49,0,0,0-.35-1l-9.48-11.2h25.85l5,16Z"/><path class="c" d="M71.85,50.52a5.65,5.65,0,1,0,5.65,5.65A5.65,5.65,0,0,0,71.85,50.52Zm0,8.31a2.67,2.67,0,1,1,2.67-2.67A2.67,2.67,0,0,1,71.85,58.84Z"/><path class="c" d="M87.93,93.29h9.6A1.49,1.49,0,0,0,99,91.8v-15a1.49,1.49,0,0,0-1.49-1.49h-9.6a1.49,1.49,0,0,0-1.49,1.49v15A1.49,1.49,0,0,0,87.93,93.29Zm1.49-15H96v12H89.43Z"/><path class="c" d="M56.07,75.32h-9.6A1.49,1.49,0,0,0,45,76.81v15a1.49,1.49,0,0,0,1.49,1.49h9.6a1.49,1.49,0,0,0,1.49-1.49v-15A1.49,1.49,0,0,0,56.07,75.32Zm-1.49,15H48v-12h6.62Z"/><path class="c" d="M59.38,62.4h-.74a1.49,1.49,0,0,0,0,3h.74a1.49,1.49,0,0,0,0-3Z"/><path class="c" d="M54.79,63.89A1.49,1.49,0,0,0,53.3,62.4h-9.2a1.49,1.49,0,0,0,0,3h9.2A1.49,1.49,0,0,0,54.79,63.89Z"/></svg>