<svg xmlns="http://www.w3.org/2000/svg" viewBox="0 0 144 141"><defs><style>.a{fill:#ecf4e9;}.b{fill:#b8ccae;}.c{fill:#0f190f;}.d{fill:#fff;}.e{fill:#1d1d1b;}</style></defs><title>ic</title><circle class="a" cx="72" cy="70.5" r="60" transform="translate(-9.93 11.83) rotate(-8.79)"/><ellipse class="b" cx="119.48" cy="43.06" rx="8.2" ry="4.2" transform="translate(2.6 92.76) rotate(-42.86)"/><ellipse class="b" cx="18.13" cy="93.74" rx="6.6" ry="3.4" transform="translate(-58.92 37.35) rotate(-42.86)"/><ellipse class="c" cx="113.92" cy="114.22" rx="2.6" ry="5.2" transform="translate(-47.28 107.97) rotate(-42.86)"/><ellipse class="c" cx="51.87" cy="16.41" rx="2.6" ry="5.2" transform="translate(2.68 39.66) rotate(-42.86)"/><rect class="d" x="85.4" y="88.1" width="3.65" height="6.05"/><polygon class="b" points="48.19 54.46 45.13 54.46 37.41 64.11 48.19 64.11 48.19 54.46"/><rect class="b" x="64.97" y="88.1" width="3.65" height="6.05"/><rect class="b" x="70.98" y="88.1" width="3.65" height="6.05"/><rect class="b" x="64.97" y="79.69" width="3.65" height="6.05"/><rect class="d" x="40.94" y="91.71" width="2.44" height="9.65"/><path class="d" d="M45.75,79.69v21.67H56.6V79.69Zm3.6,12H47v-3.6h2.36Z"/><polygon class="d" points="97.41 94.15 98.63 94.15 98.63 96.51 97.41 96.51 83.03 96.51 81.81 96.51 81.81 94.15 83.03 94.15 83.03 91.71 76.99 91.71 76.99 94.15 78.21 94.15 78.21 96.51 76.99 96.51 62.61 96.51 61.39 96.51 61.39 94.15 62.61 94.15 62.61 91.71 58.97 91.71 58.97 101.36 101.06 101.36 101.06 91.71 97.41 91.71 97.41 94.15"/><rect class="b" x="70.98" y="79.69" width="3.65" height="6.05"/><polygon class="b" points="96.86 54.46 61.37 54.46 61.37 64.11 104.59 64.11 96.86 54.46"/><polygon class="d" points="59.01 50.86 56.58 50.86 56.58 48.5 59.01 48.5 59.01 46.05 50.55 46.05 50.55 55.7 52.98 55.7 52.98 58.06 50.55 58.06 50.55 66.48 40.94 66.48 40.94 68.92 101.06 68.92 101.06 66.48 59.01 66.48 59.01 50.86"/><rect class="d" x="40.94" y="71.28" width="60.11" height="1.24"/><rect class="d" x="91.4" y="88.1" width="3.65" height="6.05"/><rect class="d" x="85.4" y="79.69" width="3.65" height="6.05"/><polygon class="d" points="40.94 74.89 40.94 89.34 43.39 89.34 43.39 77.33 58.97 77.33 58.97 89.34 62.61 89.34 62.61 77.33 76.99 77.33 76.99 89.34 83.03 89.34 83.03 77.33 97.41 77.33 97.41 89.34 101.06 89.34 101.06 74.89 40.94 74.89"/><rect class="d" x="91.4" y="79.69" width="3.65" height="6.05"/><rect class="e" x="46.99" y="88.12" width="2.36" height="3.6"/><rect class="e" x="48.17" y="40.09" width="13.22" height="2.36"/><path class="e" d="M103.42,66.48h6.08L98,52.1H93.81V42.45h3.63V40.09H93.81V37.64h9.63V35.28H87.82v2.36h3.63v2.44H81.81v2.36h9.63V52.1H61.37V43.69H48.19V52.1H44L32.5,66.48h6.08v34.88h-6v2.36h76.89v-2.36h-6V66.48Zm-66-2.36,7.72-9.65h3.06v9.65Zm6,37.24H40.94V91.71h2.44Zm13.22,0H45.75V79.69H56.6v21.67h0Zm44.45,0H59V91.71h3.65v2.44H61.39v2.36H78.21V94.15H77V91.71h6v2.44H81.81v2.36H98.63V94.15H97.41V91.71h3.65ZM68.62,88.1v6H65v-6ZM65,85.74v-6h3.65v6Zm6,0v-6h3.65v6Zm3.65,2.36v6H71v-6ZM89,88.1v6H85.4v-6ZM85.4,85.74v-6H89v6ZM95,88.1v6H91.4v-6ZM91.4,85.74v-6H95v6Zm9.65,3.6H97.41v-12H83v12H77v-12H62.61v12H59v-12H43.39v12H40.94V74.89h60.11V89.34h0Zm0-16.82H40.94V71.28h60.11v1.24h0Zm0-3.6H40.94V66.48h9.61V58.07H53V55.7H50.55V46.05H59V48.5H56.58v2.36H59V66.48h42.05ZM61.37,64.11V54.46h35.5l7.72,9.65Z"/></svg>