<svg xmlns="http://www.w3.org/2000/svg" viewBox="0 0 144 141"><defs><style>.a{fill:#ecf4e9;}.b{fill:#b8ccae;}.c{fill:#0f190f;}.d{fill:#fff;}</style></defs><title>ic</title><circle class="a" cx="72" cy="71.04" r="60"/><ellipse class="b" cx="20.89" cy="51.18" rx="4.2" ry="8.2" transform="matrix(0.56, -0.83, 0.83, 0.56, -33.21, 39.82)"/><ellipse class="b" cx="121.72" cy="105.57" rx="3.4" ry="6.6" transform="translate(-33.91 147.27) rotate(-55.94)"/><ellipse class="c" cx="37.26" cy="120.65" rx="5.2" ry="2.6" transform="translate(-83.56 83.94) rotate(-55.94)"/><ellipse class="c" cx="83.63" cy="14.51" rx="5.2" ry="2.6" transform="matrix(0.56, -0.83, 0.83, 0.56, 24.77, 75.66)"/><path class="d" d="M59.85,88a2.51,2.51,0,0,0-.05-.52c-.51-2.57-4-3.57-6.22-2.89a5.23,5.23,0,0,0-.78.31c-.08,0-.63.28-.63.37v5.38a5.39,5.39,0,0,0,3.07.92C57.77,91.55,59.83,89.94,59.85,88Zm-6.23,0a1.26,1.26,0,1,1,1.26,1.26A1.26,1.26,0,0,1,53.62,87.93Z"/><rect class="d" x="86.13" y="53.2" width="2.41" height="6.57"/><path class="d" d="M49.64,91.23V84.64a1,1,0,0,0-1-1H44.85v8.49h3.84A1,1,0,0,0,49.64,91.23Z"/><path class="d" d="M99.15,97.6V77.79h-5.4a1.26,1.26,0,0,1-1.26-1.26V71.21a1.26,1.26,0,0,1,1.26-1.26h5.4V66.42H95.82a1.26,1.26,0,0,1-1.26-1.26V47.81a1.26,1.26,0,0,1,1.26-1.26h3.34V43.29H75.92v18.3a1.26,1.26,0,0,1-1.26,1.26H69.34a1.26,1.26,0,0,1-1.26-1.26V43.29H58.31V59a8.11,8.11,0,0,1-8.11,8.1H44.85v2.89H79.71A1.26,1.26,0,0,1,81,71.21v5.32a1.26,1.26,0,0,1-1.26,1.26H44.85v3.37h3.84a3.48,3.48,0,0,1,2.86,1.51,8,8,0,0,1,3.69-.87h.31a7.66,7.66,0,0,1,3.57,1,6.79,6.79,0,0,1,2.72,2.71,6,6,0,0,1,.51,1.8c0,.09,0,.18,0,.27s0,.21,0,.32,0,0,0,0,0,0,0,0,0,.21,0,.32,0,.18,0,.27a5.53,5.53,0,0,1-.79,2.29,1.25,1.25,0,0,1-.25.29,7.46,7.46,0,0,1-6.06,2.9,8,8,0,0,1-3.69-.87,3.48,3.48,0,0,1-2.86,1.51H44.85V97.6H68.08V85.3A1.26,1.26,0,0,1,69.34,84h5.32a1.26,1.26,0,0,1,1.26,1.26V97.6ZM80.48,66.42a1.26,1.26,0,0,1-1.26-1.26V47.81a1.26,1.26,0,0,1,1.26-1.26h9.33a1.26,1.26,0,0,1,1.26,1.26V65.16a1.26,1.26,0,0,1-1.26,1.26Z"/><path class="d" d="M81.74,63.89h6.8v-1.6H84.87A1.26,1.26,0,0,1,83.61,61v-9.1a1.26,1.26,0,0,1,1.26-1.26h3.67v-1.6h-6.8Z"/><path class="d" d="M44.85,43.29V64.53h5.36A5.58,5.58,0,0,0,55.78,59V43.29h-.92v.82a1.26,1.26,0,1,1-2.53,0v-.82h-.76v3.34a1.26,1.26,0,1,1-2.53,0V43.29h-.76v.82a1.26,1.26,0,1,1-2.53,0v-.82Zm5.47,15.39a1.26,1.26,0,1,1-1.26,1.26A1.26,1.26,0,0,1,50.32,58.68Z"/><path class="b" d="M39.53,103H81.67v-2.84h-7a1.26,1.26,0,0,1-1.26-1.26V86.57H70.6v12.3a1.26,1.26,0,0,1-1.26,1.26H43.58a1.26,1.26,0,0,1-1.26-1.26V76.53a1.26,1.26,0,0,1,1.26-1.26H78.45V72.47H43.58a1.26,1.26,0,0,1-1.26-1.26V42a1.26,1.26,0,0,1,1.26-1.26H69.34A1.26,1.26,0,0,1,70.6,42v18.3H73.4V42a1.26,1.26,0,0,1,1.26-1.26h25.76A1.26,1.26,0,0,1,101.68,42V71.21a1.26,1.26,0,0,1-1.26,1.26H95v2.79h5.4a1.26,1.26,0,0,1,1.26,1.26V98.87a1.26,1.26,0,0,1-1.26,1.26h-6V103h10.1V38H39.53Z"/><rect class="d" x="84.2" y="100.13" width="7.65" height="2.84"/><rect class="d" x="97.08" y="49.07" width="2.07" height="14.82"/><path class="c" d="M91.07,65.16V47.81a1.26,1.26,0,0,0-1.26-1.26H80.48a1.26,1.26,0,0,0-1.26,1.26V65.16a1.26,1.26,0,0,0,1.26,1.26h9.33A1.26,1.26,0,0,0,91.07,65.16Zm-2.53-5.39H86.13V53.2h2.41Zm0-9.1H84.87a1.26,1.26,0,0,0-1.26,1.26V61a1.26,1.26,0,0,0,1.26,1.26h3.67v1.6h-6.8V49.07h6.8Z"/><circle class="c" cx="54.89" cy="87.93" r="1.26"/><circle class="c" cx="50.32" cy="59.94" r="1.26"/><path class="c" d="M105.74,35.5H38.26A1.26,1.26,0,0,0,37,36.76v67.47a1.26,1.26,0,0,0,1.26,1.26h67.47a1.26,1.26,0,0,0,1.26-1.26V43.89h0V36.76A1.26,1.26,0,0,0,105.74,35.5ZM74.66,84H69.34a1.26,1.26,0,0,0-1.26,1.26V97.6H44.85V94.71h3.84a3.48,3.48,0,0,0,2.86-1.51,8,8,0,0,0,3.69.87,7.46,7.46,0,0,0,6.06-2.9,1.25,1.25,0,0,0,.25-.29,5.53,5.53,0,0,0,.79-2.29c0-.09,0-.18,0-.27s0-.21,0-.32,0,0,0,0,0,0,0,0,0-.21,0-.32,0-.18,0-.27a6,6,0,0,0-.51-1.8,6.79,6.79,0,0,0-2.72-2.71,7.66,7.66,0,0,0-3.57-1h-.31a8,8,0,0,0-3.69.87,3.48,3.48,0,0,0-2.86-1.51H44.85V77.79H79.71A1.26,1.26,0,0,0,81,76.53V71.21a1.26,1.26,0,0,0-1.26-1.26H44.85V67.06h5.36A8.11,8.11,0,0,0,58.31,59V43.29h9.77v18.3a1.26,1.26,0,0,0,1.26,1.26h5.32a1.26,1.26,0,0,0,1.26-1.26V43.29H99.15v3.25H95.82a1.26,1.26,0,0,0-1.26,1.26V65.16a1.26,1.26,0,0,0,1.26,1.26h3.34v3.53h-5.4a1.26,1.26,0,0,0-1.26,1.26v5.32a1.26,1.26,0,0,0,1.26,1.26h5.4V97.6H75.92V85.3A1.26,1.26,0,0,0,74.66,84ZM44.85,92.18V83.69h3.84a1,1,0,0,1,1,1v6.59a1,1,0,0,1-1,1Zm7.32-1.56V85.24c0-.09.55-.33.63-.37a5.23,5.23,0,0,1,.78-.31c2.23-.68,5.7.31,6.22,2.89a2.51,2.51,0,0,1,.05.52c0,2-2.08,3.58-4.62,3.58A5.39,5.39,0,0,1,52.17,90.62ZM47,45.37a1.26,1.26,0,0,0,1.26-1.26v-.82h.76v3.34a1.26,1.26,0,1,0,2.53,0V43.29h.76v.82a1.26,1.26,0,1,0,2.53,0v-.82h.92V59a5.58,5.58,0,0,1-5.58,5.58H44.85V43.29h.92v.82A1.26,1.26,0,0,0,47,45.37Zm52.12,3.7V63.89H97.08V49.07ZM91.85,103H84.2v-2.84h7.65Zm12.63-61v61H94.37v-2.84h6a1.26,1.26,0,0,0,1.26-1.26V76.53a1.26,1.26,0,0,0-1.26-1.26H95V72.47h5.4a1.26,1.26,0,0,0,1.26-1.26V42a1.26,1.26,0,0,0-1.26-1.26H74.66A1.26,1.26,0,0,0,73.4,42v18.3H70.6V42a1.26,1.26,0,0,0-1.26-1.26H43.58A1.26,1.26,0,0,0,42.32,42V71.21a1.26,1.26,0,0,0,1.26,1.26H78.45v2.79H43.58a1.26,1.26,0,0,0-1.26,1.26V98.87a1.26,1.26,0,0,0,1.26,1.26H69.34a1.26,1.26,0,0,0,1.26-1.26V86.57H73.4v12.3a1.26,1.26,0,0,0,1.26,1.26h7V103H39.53V38h64.95Z"/></svg>