<svg xmlns="http://www.w3.org/2000/svg" viewBox="0 0 144 141"><defs><style>.a{fill:#ecf4e9;}.b{fill:#b8ccae;}.c{fill:#0f190f;}.d{fill:#fff;}</style></defs><title>ic</title><circle class="a" cx="74.15" cy="71.32" r="60" transform="translate(-28.71 73.32) rotate(-45)"/><ellipse class="b" cx="52.04" cy="21.13" rx="4.2" ry="8.2" transform="translate(-3.06 10.26) rotate(-10.94)"/><ellipse class="b" cx="103.89" cy="121.89" rx="3.4" ry="6.6" transform="matrix(0.98, -0.19, 0.19, 0.98, -21.24, 21.92)"/><ellipse class="c" cx="14.5" cy="81.83" rx="5.2" ry="2.6" transform="translate(-15.26 4.24) rotate(-10.94)"/><ellipse class="c" cx="122.34" cy="39.57" rx="5.2" ry="2.6" transform="translate(-5.29 23.93) rotate(-10.94)"/><path class="d" d="M86.08,60.08a25.75,25.75,0,1,1-2.52-2.5l3.14-3.14a30.2,30.2,0,1,0,2.52,2.5Z"/><path class="d" d="M66.77,62.86a14.22,14.22,0,1,0,11.13,5.4l-3.17,3.17A9.76,9.76,0,1,1,72.19,69l3.18-3.18A14.13,14.13,0,0,0,66.77,62.86Z"/><path class="b" d="M69.6,71.54A6.22,6.22,0,1,0,72.17,74l-3.79,3.79a1.78,1.78,0,1,1-2.51-2.51Z"/><path class="b" d="M100.55,41.6l-.75-5.27-5.32,5.32.94,6.59,6.59.94,5.32-5.32-5.27-.75A1.77,1.77,0,0,1,100.55,41.6Z"/><path class="d" d="M66.77,54.88a22.21,22.21,0,1,0,16.8,7.72l-3.15,3.15a17.78,17.78,0,1,1-2.53-2.49L81,60.1A22.09,22.09,0,0,0,66.77,54.88Z"/><path class="c" d="M111.34,40.85l-7.47-1.07-1.07-7.47a1.77,1.77,0,0,0-3-1l-8.46,8.46a1.78,1.78,0,0,0-.5,1.51L92,49.18l-2.75,2.75a33.72,33.72,0,1,0,2.52,2.5l2.74-2.74,7.91,1.13.25,0a1.78,1.78,0,0,0,1.26-.52l8.46-8.46a1.78,1.78,0,0,0-1-3ZM96.94,77.06A30.21,30.21,0,1,1,86.71,54.44l-3.14,3.14a25.79,25.79,0,1,0,2.52,2.5l3.14-3.14A30.05,30.05,0,0,1,96.94,77.06Zm-31.07.72a1.78,1.78,0,0,0,2.51,0L72.17,74a6.22,6.22,0,1,1-2.56-2.46l-3.74,3.74A1.77,1.77,0,0,0,65.87,77.79ZM72.19,69a9.79,9.79,0,1,0,2.54,2.48l3.17-3.17a14.21,14.21,0,1,1-2.53-2.49Zm5.7-5.7a17.76,17.76,0,1,0,2.53,2.49l3.15-3.15A22.23,22.23,0,1,1,81,60.1ZM102,49.18l-6.59-.94-.94-6.59,5.32-5.32.75,5.27a1.77,1.77,0,0,0,1.51,1.51l5.27.75Z"/></svg>