<svg xmlns="http://www.w3.org/2000/svg" viewBox="0 0 144 141"><defs><style>.a{fill:#ecf4e9;}.b{fill:#b8ccae;}.c{fill:#0f190f;}.d{fill:#fff;}</style></defs><title>ic</title><circle class="a" cx="73.8" cy="70.01" r="60" transform="translate(-14.63 120.3) rotate(-73.12)"/><ellipse class="b" cx="30.65" cy="36.17" rx="4.2" ry="8.2" transform="translate(-15.94 27.39) rotate(-39.05)"/><ellipse class="b" cx="111.34" cy="117.49" rx="3.4" ry="6.6" transform="translate(-49.15 96.41) rotate(-39.05)"/><ellipse class="c" cx="26.14" cy="107.4" rx="5.2" ry="2.6" transform="translate(-61.82 40.47) rotate(-39.05)"/><ellipse class="c" cx="101.34" cy="19.3" rx="5.2" ry="2.6" transform="matrix(0.78, -0.63, 0.63, 0.78, 10.49, 68.16)"/><polygon class="d" points="79.14 75.73 82.92 75.73 81.03 70.69 79.14 75.73"/><path class="b" d="M62.75,90.87a7.48,7.48,0,0,0-3.48.85v12.44H77.44a4.11,4.11,0,0,0-5.21-6,1.45,1.45,0,0,1-2.08-1A7.49,7.49,0,0,0,62.75,90.87Z"/><path class="d" d="M54.94,36H50.32a1.45,1.45,0,0,0-1.45,1.45v60.2a8.08,8.08,0,0,1,2.31.78V86.92a1.45,1.45,0,0,1,2.89,0v13.93a8.1,8.1,0,0,1,1.41,3.31h.9V37.4A1.45,1.45,0,0,0,54.94,36ZM53.65,80.56a1.45,1.45,0,1,1,.42-1A1.46,1.46,0,0,1,53.65,80.56Z"/><rect class="b" x="42.22" y="43.75" width="3.76" height="2.89"/><path class="b" d="M47.47,100.36a5.26,5.26,0,0,0-5,3.81h10.1A5.26,5.26,0,0,0,47.47,100.36Z"/><path class="d" d="M105.84,62.75a1.45,1.45,0,0,1-1.45-1.45V59.65H66.24V61.3a1.45,1.45,0,0,1-2.89,0V59.65H59.28V88h51.16V85.67H97.64a1.45,1.45,0,0,1,0-2.89h12.8V59.65h-3.16V61.3A1.45,1.45,0,0,1,105.84,62.75ZM68.76,71.49a4.64,4.64,0,1,1-4.95,4.63,1.45,1.45,0,1,1,2.89,0,2.09,2.09,0,1,0,2.06-1.73,4.64,4.64,0,1,1,4.95-4.63,1.45,1.45,0,0,1-2.89,0,2.09,2.09,0,1,0-2.06,1.73Zm17.55,9.16a1.44,1.44,0,0,1-1.86-.85L84,78.62H78.06l-.44,1.18a1.45,1.45,0,1,1-2.71-1l4.77-12.72a1.45,1.45,0,0,1,2.71,0l4.77,12.72A1.45,1.45,0,0,1,86.31,80.65Zm5,4.59a1.45,1.45,0,1,1,.42-1A1.46,1.46,0,0,1,91.28,85.25Zm3.24-4.5H91.87a3.1,3.1,0,0,1-3.09-3.09V66.58a1.45,1.45,0,1,1,2.89,0V77.65a.2.2,0,0,0,.2.2h2.65a1.45,1.45,0,0,1,0,2.89Zm8.34-9.25a1.45,1.45,0,0,1,0,2.89h-2v3.27a.2.2,0,0,0,.2.2h3.41a1.45,1.45,0,0,1,0,2.89h-3.41A3.1,3.1,0,0,1,98,77.65V68.23a3.1,3.1,0,0,1,3.09-3.09h3.41a1.45,1.45,0,0,1,0,2.89h-3.41a.2.2,0,0,0-.2.2v3.27Z"/><rect class="b" x="59.28" y="43.75" width="51.16" height="2.89"/><path class="c" d="M52.63,78.1a1.44,1.44,0,1,0,1,.42A1.46,1.46,0,0,0,52.63,78.1Z"/><path class="c" d="M90.26,82.78a1.44,1.44,0,1,0,1,.42A1.46,1.46,0,0,0,90.26,82.78Z"/><path class="c" d="M111.89,40.86H59.28V37.4a4.34,4.34,0,0,0-4.34-4.34H50.32A4.34,4.34,0,0,0,46,37.4v3.47h-5.2a1.45,1.45,0,0,0-1.45,1.45v5.78a1.45,1.45,0,0,0,1.45,1.45H46V97.61a8.15,8.15,0,0,0-6.65,8,1.45,1.45,0,0,0,1.45,1.45H78.11a1.45,1.45,0,0,0,1-.45A7,7,0,0,0,72.58,95,10.35,10.35,0,0,0,70,90.87h41.93a1.45,1.45,0,0,0,1.45-1.45V58.21a1.45,1.45,0,0,0-1.45-1.45h-4.61V49.54h4.61a1.45,1.45,0,0,0,1.45-1.45V42.31A1.45,1.45,0,0,0,111.89,40.86ZM42.22,46.64V43.75H46v2.89Zm9.2,57.52h-9a5.25,5.25,0,0,1,10.1,0Zm5,0h-.9a8.1,8.1,0,0,0-1.41-3.31V86.92a1.45,1.45,0,0,0-2.89,0V98.37a8.08,8.08,0,0,0-2.31-.78V37.4A1.45,1.45,0,0,1,50.32,36h4.63a1.45,1.45,0,0,1,1.45,1.45Zm2.89-54.63h4.07v7.23H59.28ZM70.15,97.09a1.45,1.45,0,0,0,2.08,1,4.06,4.06,0,0,1,1.86-.45,4.11,4.11,0,0,1,3.34,6.49H59.28V91.72a7.51,7.51,0,0,1,10.87,5.36ZM107.28,61.3V59.65h3.16V82.78H97.64a1.45,1.45,0,0,0,0,2.89h12.8V88H59.28V59.65h4.07V61.3a1.45,1.45,0,0,0,2.89,0V59.65h38.16V61.3a1.45,1.45,0,0,0,2.89,0Zm-41-4.54V49.54h38.16v7.23Zm44.21-10.12H59.28V43.75h51.16Z"/><path class="c" d="M68.76,68a1.92,1.92,0,0,1,2.06,1.73,1.45,1.45,0,0,0,2.89,0,5,5,0,1,0-4.95,4.63,1.76,1.76,0,1,1-2.06,1.73,1.45,1.45,0,1,0-2.89,0,5,5,0,1,0,4.95-4.63,1.76,1.76,0,1,1,0-3.47Z"/><path class="c" d="M94.52,77.85H91.87a.2.2,0,0,1-.2-.2V66.58a1.45,1.45,0,1,0-2.89,0V77.65a3.1,3.1,0,0,0,3.09,3.09h2.65a1.45,1.45,0,0,0,0-2.89Z"/><path class="c" d="M101.05,68h3.41a1.45,1.45,0,0,0,0-2.89h-3.41A3.1,3.1,0,0,0,98,68.23v9.42a3.1,3.1,0,0,0,3.09,3.09h3.41a1.45,1.45,0,0,0,0-2.89h-3.41a.2.2,0,0,1-.2-.2V74.38h2a1.45,1.45,0,0,0,0-2.89h-2V68.23A.2.2,0,0,1,101.05,68Z"/><path class="c" d="M82.39,66.07a1.45,1.45,0,0,0-2.71,0L74.91,78.79a1.45,1.45,0,1,0,2.71,1l.44-1.18H84l.44,1.18a1.45,1.45,0,0,0,2.71-1Zm-3.24,9.66,1.89-5,1.89,5Z"/></svg>