<svg xmlns="http://www.w3.org/2000/svg" viewBox="0 0 144 141"><defs><style>.a{fill:#ecf4e9;}.b{fill:#b8ccae;}.c{fill:#0f190f;}.d{fill:#fff;}</style></defs><title>ic</title><circle class="a" cx="69.34" cy="70.01" r="60" transform="translate(-28.08 55.18) rotate(-36.62)"/><ellipse class="b" cx="98.52" cy="23.58" rx="8.2" ry="4.2" transform="translate(43.67 108.75) rotate(-70.68)"/><ellipse class="b" cx="50.03" cy="127.38" rx="6.6" ry="3.4" transform="translate(-86.73 132.46) rotate(-70.68)"/><ellipse class="c" cx="126.82" cy="89.11" rx="2.6" ry="5.2" transform="translate(0.78 179.31) rotate(-70.68)"/><ellipse class="c" cx="26.28" cy="31.58" rx="2.6" ry="5.2" transform="translate(-12.21 45.94) rotate(-70.68)"/><path class="d" d="M52.9,58.21H55l-.52-8H52.29a.45.45,0,0,0-.45.49l.61,7.07A.44.44,0,0,0,52.9,58.21Z"/><path class="b" d="M57.31,44c11.62-1.09,15.24-6.53,15.64-7.2l2.47-6.58-.61,0H65.5A8.51,8.51,0,0,0,57,39.22Z"/><circle class="d" cx="72.22" cy="62.36" r="0.8"/><path class="b" d="M78,39.88a25.52,25.52,0,0,0,5.12,1.68l.15-2.34A8.43,8.43,0,0,0,81,32.84,8.51,8.51,0,0,0,78.51,31l-2.62,7h0C75.89,38.24,76.28,39,78,39.88Z"/><path class="d" d="M73.8,40.67c-2.41,2.36-7.31,5.64-16.28,6.46l.86,13.23a11.8,11.8,0,0,0,20.45,7.22,20.65,20.65,0,0,1-4.62-1.78,4,4,0,1,1,1.9-2.61,14.43,14.43,0,0,0,4.67,1.51,11.82,11.82,0,0,0,1.13-4.34l1-15.57a31.31,31.31,0,0,1-6.37-2.08A9.25,9.25,0,0,1,73.8,40.67Z"/><path class="d" d="M87.68,57.8l.61-7.07a.45.45,0,0,0-.45-.49H85.77l-.52,8h2A.44.44,0,0,0,87.68,57.8Z"/><path class="d" d="M86.65,61.4H85A15.06,15.06,0,0,1,84.47,64,6.22,6.22,0,0,0,86.65,61.4Z"/><path class="d" d="M89.92,79.93,71.27,98.57l-.12.11a1.59,1.59,0,0,1-2,0L69,98.57,50.38,79.93A20.58,20.58,0,0,0,34.85,96.22l-1.2,6.63h73l-1.2-6.63A20.59,20.59,0,0,0,89.92,79.93Z"/><path class="b" d="M67.89,88.33,59,79.4h-4.6L65.59,90.63Z"/><path class="b" d="M70.15,95.19,85.92,79.41h-4.6L71.27,89.45l-3.43,3.43Z"/><path class="c" d="M51.66,61.18v6.59a1.59,1.59,0,0,0,3.19,0V61.4h.43a15,15,0,0,0,27.36,6.48,8.17,8.17,0,0,0,3-.92c4.61-2.46,5.15-8.64,5.18-8.9h0L91.47,51a3.63,3.63,0,0,0-3.62-3.94H86l.22-3.41.28-4.23A11.7,11.7,0,0,0,74.8,27h-9.3A11.7,11.7,0,0,0,53.82,39.43l.41,6.34.08,1.29h-2A3.63,3.63,0,0,0,48.67,51l.61,7.07A3.61,3.61,0,0,0,51.66,61.18ZM85.77,50.25h2.07a.45.45,0,0,1,.45.49l-.61,7.07a.44.44,0,0,1-.45.41h-2ZM85,61.4h1.64A6.22,6.22,0,0,1,84.47,64,15.06,15.06,0,0,0,85,61.4Zm-3.1-1a11.82,11.82,0,0,1-1.13,4.34,14.43,14.43,0,0,1-4.67-1.51,4,4,0,1,0-1.9,2.61,20.65,20.65,0,0,0,4.62,1.78,11.8,11.8,0,0,1-20.45-7.22l-.86-13.23c9-.82,13.87-4.1,16.28-6.46a9.25,9.25,0,0,0,2.76,2,31.31,31.31,0,0,0,6.37,2.08Zm-8.9,2a.8.8,0,1,1-.8-.8A.8.8,0,0,1,73,62.36ZM75.88,38h0l2.62-7A8.51,8.51,0,0,1,81,32.84a8.43,8.43,0,0,1,2.28,6.37l-.15,2.34A25.52,25.52,0,0,1,78,39.88c-1.74-.9-2.13-1.64-2.14-1.87Zm-16.6-5.16a8.43,8.43,0,0,1,6.21-2.69h9.3l.61,0-2.47,6.58c-.4.66-4,6.11-15.64,7.2L57,39.22A8.43,8.43,0,0,1,59.28,32.84ZM52,50.39a.44.44,0,0,1,.33-.14h2.23l.52,8H52.9a.44.44,0,0,1-.45-.41l-.61-7.07A.44.44,0,0,1,52,50.39Z"/><path class="c" d="M108.58,95.65a23.66,23.66,0,0,0-18.89-19,23.78,23.78,0,0,0-4.39-.41H80.66a1.59,1.59,0,0,0-1.13.47l-9.39,9.39-9.39-9.39a1.59,1.59,0,0,0-1.13-.47H55a23.78,23.78,0,0,0-4.39.41h0a23.66,23.66,0,0,0-18.89,19l-1.54,8.51A1.59,1.59,0,0,0,31.74,106h76.81a1.59,1.59,0,0,0,1.57-1.88Zm-37.31-6.2L81.32,79.4h4.6L70.15,95.19l-2.3-2.3ZM55,79.4h4l8.92,8.92-2.3,2.3L54.37,79.41ZM33.65,102.85l1.2-6.63A20.58,20.58,0,0,1,50.38,79.93L69,98.57l.12.11a1.59,1.59,0,0,0,2,0l.12-.11L89.92,79.93a20.59,20.59,0,0,1,15.53,16.29l1.2,6.63Z"/><path class="c" d="M53.25,71a1.59,1.59,0,0,0-1.59,1.59v.64a1.59,1.59,0,1,0,3.19,0v-.64A1.59,1.59,0,0,0,53.25,71Z"/></svg>