<svg xmlns="http://www.w3.org/2000/svg" viewBox="0 0 144 141"><defs><style>.a{fill:#ecf4e9;}.b{fill:#b8ccae;}.c{fill:#0f190f;}.d{fill:#fff;}</style></defs><title>ic</title><circle class="a" cx="69.92" cy="70.43" r="60" transform="translate(-29.07 77.39) rotate(-49.23)"/><ellipse class="b" cx="20.6" cy="94.25" rx="8.2" ry="4.2" transform="translate(-23.94 8.67) rotate(-15.17)"/><ellipse class="b" cx="123.67" cy="45.68" rx="6.6" ry="3.4" transform="translate(-7.64 33.95) rotate(-15.17)"/><ellipse class="c" cx="107.04" cy="115.62" rx="2.6" ry="5.2" transform="translate(-26.52 32.03) rotate(-15.17)"/><ellipse class="c" cx="31.84" cy="25.06" rx="2.6" ry="5.2" transform="translate(-5.45 9.2) rotate(-15.17)"/><path class="b" d="M100.73,76.65H96.41V79.5a1.3,1.3,0,1,1-2.59,0V76.65H89.5V87.88h11.23Z"/><path class="d" d="M49.59,97.47a9.56,9.56,0,0,1,3-7H43.89v8.47H49.7A9.62,9.62,0,0,1,49.59,97.47Z"/><path class="d" d="M56.5,85.21A1.48,1.48,0,0,0,55.79,84l-1-.62a5.43,5.43,0,0,1-7.73,0L46,84a1.48,1.48,0,0,0-.71,1.26v2.67H56.5Z"/><circle class="d" cx="59.18" cy="97.47" r="1.47"/><rect class="b" x="67.38" y="76.65" width="11.23" height="11.23"/><path class="d" d="M50.62,74.06l-11-32.91a4,4,0,0,1-2.59.94h-.2L47.83,75A5.41,5.41,0,0,1,50.62,74.06Z"/><circle class="b" cx="50.88" cy="79.5" r="2.85"/><circle class="d" cx="70.24" cy="97.47" r="1.47"/><circle class="b" cx="37.06" cy="38.03" r="1.47"/><path class="d" d="M38.36,101.53v2.94H52.63a9.64,9.64,0,0,1-2.14-2.94Z"/><circle class="d" cx="103.41" cy="97.47" r="1.47"/><polygon class="d" points="66 59.73 71.7 57.83 71.7 54.28 66 58.08 66 59.73"/><path class="d" d="M103.41,90.47H59.18a7,7,0,1,0,0,14h44.23a7,7,0,1,0,0-14ZM59.18,101.53a4.06,4.06,0,1,1,4.06-4.06A4.07,4.07,0,0,1,59.18,101.53Zm11.06,0a4.06,4.06,0,1,1,4.06-4.06A4.07,4.07,0,0,1,70.24,101.53Zm11.06,0a4.06,4.06,0,1,1,4.06-4.06A4.07,4.07,0,0,1,81.29,101.53Zm11.06,0a4.06,4.06,0,1,1,4.06-4.06A4.07,4.07,0,0,1,92.35,101.53Zm11.06,0a4.06,4.06,0,1,1,4.06-4.06A4.07,4.07,0,0,1,103.41,101.53Z"/><circle class="d" cx="92.35" cy="97.47" r="1.47"/><path class="d" d="M73,46.24a1.47,1.47,0,0,0-1.47,1.47v3.57l.74-.49h0l.06,0,0,0,.05,0,.06,0h0l0,0,.06,0h0l.06,0h.62l.07,0h0l.06,0,0,0h0l.07,0,0,0,0,0,.06,0h0l.74.49V47.71A1.47,1.47,0,0,0,73,46.24Z"/><circle class="d" cx="81.29" cy="97.47" r="1.47"/><polygon class="d" points="74.3 57.83 80 59.73 80 58.08 74.3 54.28 74.3 57.83"/><circle class="b" cx="73" cy="31.12" r="1.47"/><path class="c" d="M103.41,87.88h-.09V75.35a1.3,1.3,0,0,0-1.3-1.3H88.21a1.3,1.3,0,0,0-1.3,1.3V87.88h-5.7v-12l5.15-5.15a1.3,1.3,0,0,0-1.83-1.83l-5.15,5.15H66.63l-5.15-5.15a1.3,1.3,0,0,0-1.83,1.83l5.15,5.15v12h-5.7V85.21a4.08,4.08,0,0,0-2-3.48l-1-.62a5.44,5.44,0,0,0-2.49-6.33L41.5,38.5l28-5.38A4.08,4.08,0,0,0,71.7,35v8.89a4.07,4.07,0,0,0-2.76,3.85V53l-5,3.3a1.3,1.3,0,0,0-.58,1.08v4.15h0a1.28,1.28,0,0,0,0,.28v0l0,.08h0a1.28,1.28,0,0,0,.07.16l1.38,2.76a1.3,1.3,0,0,0,2.32-1.16l-.71-1.43L73,60.13l6.47,2.16-.71,1.43a1.3,1.3,0,1,0,2.32,1.16l1.37-2.74h0v0a1.29,1.29,0,0,0,.06-.16h0l0-.09v0a1.29,1.29,0,0,0,0-.28h0V57.38A1.3,1.3,0,0,0,82,56.31l-5-3.3v-5.3a4.07,4.07,0,0,0-2.76-3.85V35A4.06,4.06,0,1,0,69,30.57L40.59,36A4.06,4.06,0,0,0,33.2,39.3l12.68,38a5.44,5.44,0,0,0-.2,3.76l-1,.62a4.08,4.08,0,0,0-2,3.48v2.67h-.09a1.3,1.3,0,0,0-1.3,1.3v9.76H37.06a1.3,1.3,0,0,0-1.3,1.3v4.23H34.3a1.3,1.3,0,1,0,0,2.59h69.11a9.59,9.59,0,1,0,0-19.18Zm-31.71-30L66,59.73V58.08l5.7-3.8Zm8.29.24v1.66l-5.7-1.9V54.28ZM74.47,47.71v3.57l-.74-.49h0l-.06,0,0,0,0,0-.07,0h0l0,0-.06,0h0l-.07,0h-.62l-.06,0h0l-.06,0,0,0h0l-.06,0-.05,0,0,0-.06,0h0l-.74.49V47.71a1.47,1.47,0,1,1,2.94,0ZM73,29.65a1.47,1.47,0,1,1-1.47,1.47A1.47,1.47,0,0,1,73,29.65Zm16.5,47h4.32V79.5a1.3,1.3,0,1,0,2.59,0V76.65h4.32V87.88H89.5Zm-22.12,0H78.62V87.88H67.38ZM53.73,79.5a2.85,2.85,0,1,1-2.85-2.85A2.85,2.85,0,0,1,53.73,79.5ZM35.59,38a1.47,1.47,0,1,1,1.47,1.47A1.47,1.47,0,0,1,35.59,38Zm1.27,4.06h.2a4,4,0,0,0,2.59-.94l11,32.91a5.41,5.41,0,0,0-2.79.93Zm8.4,43.13A1.48,1.48,0,0,1,46,84l1-.62a5.43,5.43,0,0,0,7.73,0l1,.62a1.48,1.48,0,0,1,.71,1.26v2.67H45.27Zm-1.38,5.26h8.74a9.58,9.58,0,0,0-2.93,8.47H43.89Zm-5.53,14v-2.94H50.49a9.64,9.64,0,0,0,2.14,2.94Zm65.05,0H59.18a7,7,0,1,1,0-14h44.23a7,7,0,1,1,0,14Z"/><path class="c" d="M59.18,93.41a4.06,4.06,0,1,0,4.06,4.06A4.07,4.07,0,0,0,59.18,93.41Zm0,5.53a1.47,1.47,0,1,1,1.47-1.47A1.47,1.47,0,0,1,59.18,98.94Z"/><path class="c" d="M70.24,93.41a4.06,4.06,0,1,0,4.06,4.06A4.07,4.07,0,0,0,70.24,93.41Zm0,5.53a1.47,1.47,0,1,1,1.47-1.47A1.47,1.47,0,0,1,70.24,98.94Z"/><path class="c" d="M81.29,93.41a4.06,4.06,0,1,0,4.06,4.06A4.07,4.07,0,0,0,81.29,93.41Zm0,5.53a1.47,1.47,0,1,1,1.47-1.47A1.47,1.47,0,0,1,81.29,98.94Z"/><path class="c" d="M92.35,93.41a4.06,4.06,0,1,0,4.06,4.06A4.07,4.07,0,0,0,92.35,93.41Zm0,5.53a1.47,1.47,0,1,1,1.47-1.47A1.47,1.47,0,0,1,92.35,98.94Z"/><path class="c" d="M103.41,93.41a4.06,4.06,0,1,0,4.06,4.06A4.07,4.07,0,0,0,103.41,93.41Zm0,5.53a1.47,1.47,0,1,1,1.47-1.47A1.47,1.47,0,0,1,103.41,98.94Z"/></svg>