<svg xmlns="http://www.w3.org/2000/svg" viewBox="0 0 144 141"><defs><style>.a{fill:#ecf4e9;}.b{fill:#b8ccae;}.c{fill:#0f190f;}.d{fill:#fff;}</style></defs><title>ic</title><circle class="a" cx="72" cy="71.04" r="60"/><ellipse class="b" cx="20.89" cy="51.18" rx="4.2" ry="8.2" transform="matrix(0.56, -0.83, 0.83, 0.56, -33.21, 39.82)"/><ellipse class="b" cx="121.72" cy="105.57" rx="3.4" ry="6.6" transform="translate(-33.91 147.27) rotate(-55.94)"/><ellipse class="c" cx="37.26" cy="120.65" rx="5.2" ry="2.6" transform="translate(-83.56 83.94) rotate(-55.94)"/><ellipse class="c" cx="83.63" cy="14.51" rx="5.2" ry="2.6" transform="matrix(0.56, -0.83, 0.83, 0.56, 24.77, 75.66)"/><path class="d" d="M72,47.66A25.66,25.66,0,1,0,97.66,73.32,25.69,25.69,0,0,0,72,47.66Zm0,29.91a4.24,4.24,0,0,1-1.59-8.17V56.69a1.59,1.59,0,0,1,3.19,0v12.7A4.24,4.24,0,0,1,72,77.56Z"/><circle class="b" cx="72" cy="73.32" r="1.05"/><path class="b" d="M72,42.33a31,31,0,1,0,31,31A31,31,0,0,0,72,42.33Zm0,59.84a28.85,28.85,0,1,1,28.85-28.85A28.88,28.88,0,0,1,72,102.17Z"/><path class="c" d="M95.93,48.92l1.84-1.84.62.62a1.59,1.59,0,1,0,2.25-2.25L97.15,42a1.59,1.59,0,0,0-2.25,2.25l.62.62-2,2a33.88,33.88,0,0,0-20-7.61v-1a5.47,5.47,0,1,0-3.19,0v1a34.18,34.18,0,1,0,25.76,10ZM69.71,33a2.29,2.29,0,1,1,3.88,1.64v-.24a1.59,1.59,0,1,0-3.19,0v.24A2.28,2.28,0,0,1,69.71,33ZM72,104.31a31,31,0,1,1,31-31A31,31,0,0,1,72,104.31Z"/><path class="c" d="M72,44.47a28.85,28.85,0,1,0,28.85,28.85A28.88,28.88,0,0,0,72,44.47ZM72,99A25.66,25.66,0,1,1,97.66,73.32,25.69,25.69,0,0,1,72,99Z"/><path class="c" d="M73.59,69.39V56.69a1.59,1.59,0,0,0-3.19,0v12.7a4.24,4.24,0,1,0,3.19,0Zm-1.59,5a1.05,1.05,0,1,1,1.05-1.05A1.06,1.06,0,0,1,72,74.37Z"/></svg>