<svg xmlns="http://www.w3.org/2000/svg" viewBox="0 0 144 141"><defs><style>.a{fill:#ecf4e9;}.b{fill:#b8ccae;}.c{fill:#0f190f;}.d{fill:#fff;}</style></defs><title>ic</title><circle class="a" cx="72.32" cy="70.84" r="60" transform="translate(-17.37 23.9) rotate(-16.78)"/><ellipse class="b" cx="76.57" cy="16.17" rx="8.2" ry="4.2" transform="translate(38.38 84.48) rotate(-72.72)"/><ellipse class="b" cx="53.61" cy="128.41" rx="6.6" ry="3.4" transform="translate(-84.93 141.45) rotate(-72.72)"/><ellipse class="c" cx="14.79" cy="51.9" rx="2.6" ry="5.2" transform="translate(-39.16 50.6) rotate(-72.72)"/><ellipse class="c" cx="129.8" cy="65.66" rx="2.6" ry="5.2" transform="translate(28.54 170.09) rotate(-72.72)"/><path class="d" d="M83.89,55.67a9.43,9.43,0,0,1-5.6,2.64l-.24,0-14.18,0a1,1,0,0,0-1,1A3.24,3.24,0,0,0,66,62.46l4,0h0a1.78,1.78,0,0,1,1.25.5l0,0L76.2,67.8a14.47,14.47,0,0,0,6.72,0,1.06,1.06,0,0,1,1.23.55l.64,1.27a1.06,1.06,0,0,1-.64,1.49,15.19,15.19,0,0,1-4.06.61l9.36,9.36,3.33-3.33a11.43,11.43,0,0,0,2.32-3.34l.11-.26A12.31,12.31,0,0,1,98,70l2.59-2.59L86.36,53.2Z"/><rect class="b" x="33.98" y="58.09" width="25.38" height="4.08" transform="translate(-28.85 50.62) rotate(-45)"/><path class="d" d="M69.37,66H66.05a6.77,6.77,0,0,1-6.69-6.61v0a4.54,4.54,0,0,1,0-.53L57.65,57,43.47,71.21l2.59,2.59A12.33,12.33,0,0,1,48.8,78l.1.25a8.82,8.82,0,0,0,2,3L70.68,101A1.65,1.65,0,0,0,73,101a1.67,1.67,0,0,0,.25-2L62.39,88.09a1.76,1.76,0,0,1,2.49-2.49L77.57,98.21a1.65,1.65,0,0,0,2.33,0,1.67,1.67,0,0,0,.25-2L68.63,84.65a1.76,1.76,0,0,1,2.49-2.49L84.78,95.74a1.65,1.65,0,0,0,2.33,0,1.67,1.67,0,0,0,.19-2.14c-.07-.05-12.85-12.82-12.85-12.82a1.76,1.76,0,1,1,2.49-2.49L87.24,88.52a1.63,1.63,0,0,0,2.33,0h0a1.67,1.67,0,0,0,0-2.36Z"/><rect class="b" x="95.29" y="43.6" width="4.08" height="25.38" transform="translate(-11.3 85.31) rotate(-45)"/><path class="c" d="M91,42.14a1.76,1.76,0,0,0-2.49,0l-5.38,5.38a1.76,1.76,0,0,0,0,2.49l.7.7-2.47,2.47a5.9,5.9,0,0,1-3.48,1.62l-14.05,0a4.46,4.46,0,0,0-2.6.84l-1.12-1.12.69-.69a1.76,1.76,0,0,0,0-2.49L55.45,46A1.76,1.76,0,0,0,53,46L32.52,66.41a1.76,1.76,0,0,0,0,2.49l5.38,5.38a1.76,1.76,0,0,0,2.49,0l.58-.58,2.59,2.59a8.82,8.82,0,0,1,2,3l.1.25a12.33,12.33,0,0,0,2.74,4.16l19.82,19.82a5.18,5.18,0,0,0,8.46-1.72,5.19,5.19,0,0,0,6.83-2.66,5.19,5.19,0,0,0,7-7A5.09,5.09,0,0,0,92.06,91l0,0a5.21,5.21,0,0,0,0-7.35l-.13-.13,3.33-3.33a15,15,0,0,0,3.09-4.51l.11-.26a8.82,8.82,0,0,1,2-3L103,69.87l.58.58a1.76,1.76,0,0,0,2.49,0l5.38-5.38a1.76,1.76,0,0,0,0-2.49ZM39.14,70.55l-2.89-2.89L54.2,49.71l2.89,2.89Zm50.44,18h0a1.63,1.63,0,0,1-2.33,0L76.93,78.28a1.76,1.76,0,1,0-2.49,2.49S87.22,93.54,87.29,93.6a1.67,1.67,0,0,1-.19,2.14,1.65,1.65,0,0,1-2.33,0L71.12,82.16a1.76,1.76,0,0,0-2.49,2.49L80.15,96.18a1.67,1.67,0,0,1-.25,2,1.65,1.65,0,0,1-2.33,0L64.88,85.6a1.76,1.76,0,0,0-2.49,2.49L73.27,99a1.67,1.67,0,0,1-.25,2,1.65,1.65,0,0,1-2.33,0L50.86,81.19a8.82,8.82,0,0,1-2-3L48.8,78a12.33,12.33,0,0,0-2.74-4.16l-2.59-2.59L57.65,57l1.75,1.75a4.54,4.54,0,0,0,0,.53v0A6.77,6.77,0,0,0,66.05,66h3.32L89.58,86.17A1.67,1.67,0,0,1,89.59,88.53ZM98,70a12.31,12.31,0,0,0-2.74,4.15l-.11.26a11.43,11.43,0,0,1-2.32,3.34l-3.33,3.33-9.36-9.36a15.19,15.19,0,0,0,4.06-.61,1.06,1.06,0,0,0,.64-1.49l-.64-1.27a1.06,1.06,0,0,0-1.23-.55,14.47,14.47,0,0,1-6.72,0L71.36,63l0,0a1.78,1.78,0,0,0-1.25-.5h0l-4,0a3.24,3.24,0,0,1-3.16-3.16,1,1,0,0,1,1-1l14.18,0,.24,0a9.43,9.43,0,0,0,5.6-2.64l2.47-2.47,14.18,14.18Zm6.91-3.26L86.91,48.76l2.89-2.89,17.95,17.95Z"/></svg>