<svg xmlns="http://www.w3.org/2000/svg" viewBox="0 0 144 141"><defs><style>.a{fill:#ecf4e9;}.b{fill:#b8ccae;}.c{fill:#0f190f;}.d{fill:#fff;}</style></defs><title>ic</title><circle class="a" cx="69.61" cy="70.5" r="60" transform="translate(-29.46 69.87) rotate(-45)"/><ellipse class="b" cx="91.71" cy="20.32" rx="8.2" ry="4.2" transform="translate(54.37 106.51) rotate(-79.06)"/><ellipse class="b" cx="39.87" cy="121.07" rx="6.6" ry="3.4" transform="translate(-86.57 137.25) rotate(-79.06)"/><ellipse class="c" cx="129.26" cy="81.01" rx="2.6" ry="5.2" transform="translate(25.19 192.55) rotate(-79.06)"/><ellipse class="c" cx="21.41" cy="38.75" rx="2.6" ry="5.2" transform="translate(-20.7 52.42) rotate(-79.06)"/><path class="b" d="M71.76,69.6a1.41,1.41,0,0,0,0-1.7l-4.76-6L61.1,69.93A1.65,1.65,0,1,1,58.43,68l6.37-8.77a11.37,11.37,0,0,0-2.61-2L49,75.28a11.37,11.37,0,0,0,3.42,2.17L62.18,81a1.41,1.41,0,0,0,1.63-.49l8-10.95Zm-14,4.92,0,0a1.65,1.65,0,0,1-2.67-1.94l0,0a1.65,1.65,0,1,1,2.67,1.94Z"/><circle class="d" cx="46.01" cy="88.6" r="4.54"/><circle class="d" cx="58.4" cy="88.6" r="4.54"/><path class="d" d="M51.3,80.54l0,0A14.67,14.67,0,0,1,46,76.91l-.39-.48h0L40,69.26V81.58h2.54a7.83,7.83,0,0,1,9.69,2.21,7.9,7.9,0,0,1,2.37-2Z"/><rect class="d" x="83.09" y="65.06" width="3.3" height="16.52"/><polygon class="d" points="59.04 55.91 44.78 50.53 37.42 60.66 46.86 72.67 59.04 55.91"/><path class="d" d="M35.35,88.19h2.83a7.79,7.79,0,0,1,.93-3.3H35.35Z"/><path class="d" d="M66.24,88.19H86.39v-3.3H65.31A7.79,7.79,0,0,1,66.24,88.19Z"/><path class="d" d="M105.39,77.49H95.7A1.65,1.65,0,0,1,94,75.84V64.89a1.65,1.65,0,0,1,1.65-1.65h6.37l-.27-1a2.8,2.8,0,0,0-2.71-2.1H89.7v22.1a7.82,7.82,0,0,1,8-.63h7.65Z"/><path class="d" d="M102.08,88.19h6.62v-3.3h-7.55A7.79,7.79,0,0,1,102.08,88.19Z"/><polygon class="b" points="97.35 74.19 104.91 74.19 102.92 66.55 97.35 66.55 97.35 74.19"/><circle class="d" cx="94.24" cy="88.6" r="4.54"/><path class="c" d="M57.41,72.21a1.65,1.65,0,0,0-2.31.37l0,0a1.65,1.65,0,0,0,2.67,1.94l0,0A1.65,1.65,0,0,0,57.41,72.21Z"/><path class="c" d="M110.35,81.58H108.7V75.84h0a1.64,1.64,0,0,0-.05-.41L105,61.37a6.11,6.11,0,0,0-5.91-4.57H89.7V52.45a1.65,1.65,0,0,0-.54-1.22L86.9,49.18a1.65,1.65,0,1,0-2.22,2.45l1.72,1.56v8.57h-5a1.65,1.65,0,0,0-1.65,1.65V81.58H67.14l7.29-10a4.73,4.73,0,0,0-.11-5.69l-6.43-8.15,0,0a14.69,14.69,0,0,0-5-3.87l-.56-.22h0L46.79,47.76l.42-.58a1.65,1.65,0,1,0-2.67-1.94L32.32,62.06A1.65,1.65,0,1,0,35,64l.41-.56,1.27,1.62V81.58h-3A1.65,1.65,0,0,0,32,83.23v6.61a1.65,1.65,0,0,0,1.65,1.65h5a7.84,7.84,0,0,0,13.49,1.92A7.84,7.84,0,0,0,65.7,91.49H86.95a7.84,7.84,0,0,0,14.59,0h8.81A1.65,1.65,0,0,0,112,89.84V83.23A1.65,1.65,0,0,0,110.35,81.58ZM83.09,65.06h3.3V81.58h-3.3ZM44.78,50.53,59,55.91,46.86,72.67l-9.45-12Zm-6.6,37.66H35.35v-3.3h3.76A7.79,7.79,0,0,0,38.18,88.19Zm7.84,5a4.54,4.54,0,1,1,4.54-4.54A4.55,4.55,0,0,1,46,93.14Zm6.19-9.35a7.83,7.83,0,0,0-9.69-2.21H40V69.26l5.64,7.17h0l.39.48a14.67,14.67,0,0,0,5.24,3.61l0,0,3.28,1.21A7.9,7.9,0,0,0,52.21,83.79Zm6.2,9.35a4.54,4.54,0,1,1,4.54-4.54A4.55,4.55,0,0,1,58.4,93.14ZM62.18,81l-9.71-3.59A11.37,11.37,0,0,1,49,75.28L62.19,57.19a11.37,11.37,0,0,1,2.61,2L58.43,68a1.65,1.65,0,1,0,2.67,1.94L67,61.87l4.76,6a1.41,1.41,0,0,1,0,1.7h0l-8,10.95A1.41,1.41,0,0,1,62.18,81Zm24.22,7.14H66.24a7.79,7.79,0,0,0-.93-3.3H86.39Zm18.51-14H97.35V66.55h5.57Zm-10.67,19a4.54,4.54,0,1,1,4.54-4.54A4.55,4.55,0,0,1,94.24,93.14Zm3.5-11.56h0a7.82,7.82,0,0,0-8,.63V60.1h9.39a2.8,2.8,0,0,1,2.71,2.1l.27,1H95.7A1.65,1.65,0,0,0,94,64.89V75.84a1.65,1.65,0,0,0,1.65,1.65h9.69v4.09Zm11,6.61h-6.62a7.79,7.79,0,0,0-.93-3.3h7.55Z"/></svg>