<svg xmlns="http://www.w3.org/2000/svg" viewBox="0 0 144 141"><defs><style>.a{fill:#ecf4e9;}.b{fill:#b8ccae;}.c{fill:#0f190f;}.d{fill:#fff;}</style></defs><title>ic</title><circle class="a" cx="70.45" cy="70.4" r="60"/><ellipse class="b" cx="20.19" cy="48.6" rx="4.2" ry="8.2" transform="matrix(0.56, -0.83, 0.83, 0.56, -31.38, 38.1)"/><ellipse class="b" cx="118.02" cy="102.99" rx="3.4" ry="6.6" transform="matrix(0.56, -0.83, 0.83, 0.56, -33.4, 143.07)"/><ellipse class="c" cx="74.56" cy="129.07" rx="5.2" ry="2.6" transform="translate(-74.13 118.54) rotate(-55.94)"/><ellipse class="c" cx="79.93" cy="11.93" rx="5.2" ry="2.6" transform="translate(25.28 71.47) rotate(-55.94)"/><rect class="d" x="83.23" y="89.85" width="6.19" height="4.5"/><rect class="b" x="91.85" y="89.85" width="6.19" height="4.5"/><rect class="d" x="83.23" y="82.92" width="6.19" height="4.5"/><rect class="d" x="91.85" y="82.92" width="6.19" height="4.5"/><polygon class="b" points="82.7 41.33 75.61 41.33 74.19 71.3 84.12 71.3 82.7 41.33"/><polygon class="b" points="82.48 36.76 75.82 36.76 75.72 38.89 82.58 38.89 82.48 36.76"/><rect class="d" x="74.61" y="82.92" width="6.19" height="4.5"/><polygon class="b" points="82.23 31.4 76.08 31.4 75.94 34.33 82.36 34.33 82.23 31.4"/><path class="d" d="M102.6,78.3H94.92a1.22,1.22,0,0,1,0-2.43h9.21a.82.82,0,0,0,.82-.82v-.5a.82.82,0,0,0-.82-.82H69.92v2.13H90.76a1.22,1.22,0,0,1,0,2.43H69.92V99H102.6Zm-2.14,17.28a1.22,1.22,0,0,1-1.22,1.22H73.4a1.22,1.22,0,0,1-1.22-1.22V81.7a1.22,1.22,0,0,1,1.22-1.22H99.25a1.22,1.22,0,0,1,1.22,1.22Z"/><rect class="d" x="74.61" y="89.85" width="6.19" height="4.5"/><polygon class="d" points="98.88 36.76 92.22 36.76 92.12 38.89 98.98 38.89 98.88 36.76"/><polygon class="d" points="98.63 31.4 92.48 31.4 92.34 34.33 98.77 34.33 98.63 31.4"/><path class="d" d="M99.23,44.46a1.2,1.2,0,0,1,0-.19l-.14-2.94H92l-1.42,30h9.93Z"/><path class="d" d="M55.85,76.27V70.85l-9.21,6.07V99h9.21ZM53.13,86.87H49.35a1.22,1.22,0,1,1,0-2.43h3.78a1.22,1.22,0,0,1,0,2.43Zm0-4H49.35a1.22,1.22,0,1,1,0-2.43h3.78a1.22,1.22,0,0,1,0,2.43Z"/><path class="d" d="M104.13,101.41H33.63a.82.82,0,0,0-.82.82v.5a.82.82,0,0,0,.82.82h70.51a.82.82,0,0,0,.82-.82h0v-.5A.82.82,0,0,0,104.13,101.41Z"/><path class="d" d="M67.49,77.08V70.85l-9.21,6.07V99h9.21Zm-2.71,9.79H61a1.22,1.22,0,1,1,0-2.43h3.78a1.22,1.22,0,0,1,0,2.43Zm0-4H61a1.22,1.22,0,1,1,0-2.43h3.78a1.22,1.22,0,0,1,0,2.43Z"/><path class="d" d="M44.21,76.27V70.85L35,76.92V99h9.21ZM41.49,86.87H37.71a1.22,1.22,0,0,1,0-2.43h3.78a1.22,1.22,0,1,1,0,2.43Zm0-4H37.71a1.22,1.22,0,0,1,0-2.43h3.78a1.22,1.22,0,1,1,0,2.43Z"/><path class="c" d="M104.13,71.3H103l-1.89-39.9h.33a1.22,1.22,0,0,0,0-2.43H89.71a1.22,1.22,0,1,0,0,2.43H90L88.15,71.3h-1.6L84.66,31.4H85A1.22,1.22,0,0,0,85,29H73.31a1.22,1.22,0,1,0,0,2.43h.33L71.75,71.3H69.92V68.59a1.22,1.22,0,0,0-1.89-1L58.28,74V68.59a1.22,1.22,0,0,0-1.89-1L46.64,74V68.59a1.22,1.22,0,0,0-1.89-1L33.12,75.25a1.22,1.22,0,0,0-.55,1V99.16a3.25,3.25,0,0,0-2.19,3.07v.5A3.25,3.25,0,0,0,33.63,106h70.51a3.25,3.25,0,0,0,3.25-3.25v-.5A3.25,3.25,0,0,0,105,99.11V78.17a3.25,3.25,0,0,0,2.35-3.12v-.5A3.25,3.25,0,0,0,104.13,71.3ZM92.48,31.4h6.15l.14,2.93H92.34Zm-.25,5.36h6.66l.1,2.13H92.12ZM92,41.32H99.1l.14,2.94a1.2,1.2,0,0,0,0,.19l1.29,26.85H90.59ZM76.08,31.4h6.15l.14,2.93H75.94Zm-.25,5.36h6.66l.1,2.13H75.72Zm-.22,4.56H82.7l1.42,30H74.18Zm-5.69,37H90.76a1.22,1.22,0,0,0,0-2.43H69.92V73.74h34.21a.82.82,0,0,1,.82.82v.5a.82.82,0,0,1-.82.82H94.92a1.22,1.22,0,0,0,0,2.43h7.67V99H69.92ZM58.28,76.92l9.21-6.07V99H58.28Zm-11.64,0,9.21-6.07V99H46.64ZM35,76.92l9.21-6.07V99H35Zm69.95,25.81h0a.82.82,0,0,1-.82.82H33.63a.82.82,0,0,1-.82-.82v-.5a.82.82,0,0,1,.82-.82h70.51a.82.82,0,0,1,.82.82Z"/><path class="c" d="M99.25,80.49H73.4a1.22,1.22,0,0,0-1.22,1.22V95.57a1.22,1.22,0,0,0,1.22,1.22H99.25a1.22,1.22,0,0,0,1.22-1.22V81.7A1.22,1.22,0,0,0,99.25,80.49ZM80.8,94.36H74.61v-4.5H80.8Zm0-6.94H74.61v-4.5H80.8Zm8.62,6.94H83.23v-4.5h6.19Zm0-6.94H83.23v-4.5h6.19ZM98,94.36H91.85v-4.5H98Zm0-6.94H91.85v-4.5H98Z"/><path class="c" d="M64.77,80.49H61a1.22,1.22,0,1,0,0,2.43h3.78a1.22,1.22,0,0,0,0-2.43Z"/><path class="c" d="M64.77,84.44H61a1.22,1.22,0,1,0,0,2.43h3.78a1.22,1.22,0,0,0,0-2.43Z"/><path class="c" d="M53.13,80.49H49.35a1.22,1.22,0,1,0,0,2.43h3.78a1.22,1.22,0,0,0,0-2.43Z"/><path class="c" d="M53.13,84.44H49.35a1.22,1.22,0,1,0,0,2.43h3.78a1.22,1.22,0,0,0,0-2.43Z"/><path class="c" d="M41.49,80.49H37.71a1.22,1.22,0,0,0,0,2.43h3.78a1.22,1.22,0,1,0,0-2.43Z"/><path class="c" d="M41.49,84.44H37.71a1.22,1.22,0,0,0,0,2.43h3.78a1.22,1.22,0,1,0,0-2.43Z"/></svg>