<svg xmlns="http://www.w3.org/2000/svg" viewBox="0 0 144 141"><defs><style>.a{fill:#ecf4e9;}.b{fill:#b8ccae;}.c{fill:#0f190f;}.d{fill:#fff;}</style></defs><title>ic</title><circle class="a" cx="72.65" cy="70.48" r="60" transform="translate(-2.51 138.28) rotate(-86.19)"/><ellipse class="b" cx="122.33" cy="93.7" rx="4.2" ry="8.2" transform="translate(-26.74 132.73) rotate(-52.12)"/><ellipse class="b" cx="16.96" cy="52.01" rx="3.4" ry="6.6" transform="translate(-34.5 33.47) rotate(-52.12)"/><ellipse class="c" cx="110.61" cy="23.29" rx="5.2" ry="2.6" transform="translate(24.31 96.3) rotate(-52.12)"/><ellipse class="c" cx="57.28" cy="126.11" rx="5.2" ry="2.6" transform="translate(-77.43 93.9) rotate(-52.12)"/><path class="b" d="M62,47.1a2,2,0,0,1,2.14,1.65c.07.24.66,2.19,3.55,4.2s8.49,4.35,19.2,4.48c0-3-.47-9.09-4.08-13.1-2.4-2.67-6.28-4-10.67-4h0c-6,0-10.35,1.9-12.89,5.38-1.94,2.65-2.63,6.23-2.07,10.32,1.55-2.31,2.95-5,2.95-6.85A2.05,2.05,0,0,1,62,47.1Z"/><path class="d" d="M64.56,70.28a8.82,8.82,0,0,0,3.25.53,2.82,2.82,0,0,1,2.4-1.4h3.58a2.85,2.85,0,0,1,2.78,2.87v.88A2.82,2.82,0,0,1,73.79,76H70.21A2.8,2.8,0,0,1,68,74.88l-.26,0a13.73,13.73,0,0,1-2.55-.24c2,2.22,4.3,3.8,6.81,3.8,4.75,0,9-5.72,11.2-10.62a2,2,0,0,1,2.48-1.1,5.36,5.36,0,0,0,1.69-2.59,6.19,6.19,0,0,0,.39-2.63c-14.68,0-21.59-4-24.81-7.34a34.84,34.84,0,0,1-5,7.57C59.24,66.17,61.48,69.13,64.56,70.28Z"/><path class="b" d="M72.18,36.27a24.53,24.53,0,0,1,5.68.64,6.68,6.68,0,0,0-5.6-3.08A7.8,7.8,0,0,0,66,37a27.3,27.3,0,0,1,6.19-.73Z"/><path class="d" d="M89.57,85.8,73.25,98.57a2,2,0,0,1-2.49,0L54.43,85.8c-4.27,1.22-8.7,9.92-9.32,15.57a65.83,65.83,0,0,0,38.38,4.83,60.84,60.84,0,0,0,15.4-4.77C98.29,95.78,93.85,87,89.57,85.8Z"/><path class="d" d="M83.19,85.59H81a1.94,1.94,0,0,1-2-2V80a12.44,12.44,0,0,1-7.13,2.51,12.21,12.21,0,0,1-6.86-2.38v3.54a1.8,1.8,0,0,1-1.81,2H60.81L72,94.34Z"/><path class="c" d="M88.58,81.47h-5.7V75.93a25.33,25.33,0,0,0,3.32-5.17,4.39,4.39,0,0,0,1.09-.34,8.59,8.59,0,0,0,3.88-4.95c1-2.69.85-5.53-.21-7.1.14-2.91.06-11-5-16.71A15.3,15.3,0,0,0,83.1,39.2a11,11,0,0,0-10.83-9.41A11.59,11.59,0,0,0,60.93,39a15.5,15.5,0,0,0-4.86,4.31c-2.82,3.85-3.7,9.3-2.58,15.06-1.45,1.45-1.76,4-.67,7.1a10.22,10.22,0,0,0,2.38,3.9,4.88,4.88,0,0,0,2.6,1.4,28.52,28.52,0,0,0,3.41,5.4v5.31H55.42C47.23,81.47,41,95.55,41,102.57a2.07,2.07,0,0,0,1.16,1.86,70.24,70.24,0,0,0,30,6.78,69.64,69.64,0,0,0,12-1A60.53,60.53,0,0,0,102,104.39a2.13,2.13,0,0,0,1-1.83C103,95.55,96.76,81.47,88.58,81.47ZM72.26,33.83a6.68,6.68,0,0,1,5.6,3.08,24.53,24.53,0,0,0-5.68-.64h0A27.3,27.3,0,0,0,66,37,7.8,7.8,0,0,1,72.26,33.83ZM57.22,56c-.55-4.1.14-7.67,2.07-10.32,2.54-3.47,6.85-5.33,12.89-5.38h0c4.39,0,8.26,1.35,10.67,4,3.61,4,4.09,10.1,4.08,13.1-10.71-.13-16.34-2.49-19.2-4.48s-3.49-4-3.55-4.2A2,2,0,0,0,62,47.1a2.05,2.05,0,0,0-1.86,2.06C60.17,51,58.77,53.71,57.22,56Zm.78,5.7a34.84,34.84,0,0,0,5-7.57c3.22,3.35,10.13,7.32,24.81,7.34a6.19,6.19,0,0,1-.39,2.63,5.36,5.36,0,0,1-1.69,2.59,2,2,0,0,0-2.48,1.1C81,72.71,76.75,78.43,72,78.43c-2.5,0-4.82-1.59-6.81-3.8a13.73,13.73,0,0,0,2.55.24l.26,0A2.8,2.8,0,0,0,70.21,76h3.58a2.82,2.82,0,0,0,2.78-2.83v-.88a2.85,2.85,0,0,0-2.78-2.87H70.21a2.82,2.82,0,0,0-2.4,1.4,8.82,8.82,0,0,1-3.25-.53C61.48,69.13,59.24,66.17,58,61.71Zm5.24,23.87h0a1.8,1.8,0,0,0,1.81-2V80.1a12.21,12.21,0,0,0,6.86,2.38A12.44,12.44,0,0,0,79,80v3.67a1.94,1.94,0,0,0,2,2h2.16L72,94.34,60.81,85.59ZM83.49,106.2a65.83,65.83,0,0,1-38.38-4.83c.62-5.65,5-14.35,9.32-15.57L70.75,98.57a2,2,0,0,0,2.49,0L89.57,85.8c4.29,1.23,8.73,10,9.32,15.63A60.84,60.84,0,0,1,83.49,106.2Z"/></svg>