<svg xmlns="http://www.w3.org/2000/svg" viewBox="0 0 144 141"><defs><style>.a{fill:#ecf4e9;}.b{fill:#b8ccae;}.c{fill:#0f190f;}.d{fill:#fff;}</style></defs><title>ic</title><circle class="a" cx="72.39" cy="70.04" r="60" transform="translate(-28.32 71.7) rotate(-45)"/><ellipse class="b" cx="50.29" cy="19.85" rx="4.2" ry="8.2" transform="translate(-2.85 9.9) rotate(-10.94)"/><ellipse class="b" cx="102.13" cy="120.61" rx="3.4" ry="6.6" transform="translate(-21.03 21.57) rotate(-10.94)"/><ellipse class="c" cx="12.74" cy="80.55" rx="5.2" ry="2.6" transform="translate(-15.05 3.88) rotate(-10.94)"/><ellipse class="c" cx="120.59" cy="38.29" rx="5.2" ry="2.6" transform="translate(-5.07 23.57) rotate(-10.94)"/><polygon class="d" points="69.82 32.3 64.68 39.14 74.95 39.14 69.82 32.3"/><rect class="d" x="94.2" y="62.24" width="2.57" height="2.57"/><rect class="d" x="89.07" y="51.97" width="2.57" height="2.57"/><rect class="d" x="63.4" y="46.84" width="2.57" height="2.57"/><rect class="d" x="94.2" y="51.97" width="2.57" height="2.57"/><rect class="d" x="73.67" y="67.37" width="2.57" height="2.57"/><rect class="d" x="63.4" y="57.11" width="2.57" height="2.57"/><rect class="d" x="73.67" y="57.11" width="2.57" height="2.57"/><rect class="d" x="73.67" y="46.84" width="2.57" height="2.57"/><rect class="d" x="48" y="72.51" width="2.57" height="2.57"/><rect class="d" x="42.87" y="62.24" width="2.57" height="2.57"/><rect class="b" x="48" y="62.24" width="2.57" height="2.57"/><rect class="d" x="42.87" y="72.51" width="2.57" height="2.57"/><path class="d" d="M96.65,38.49a3.81,3.81,0,0,0,4.64.57l-7-7a3.64,3.64,0,0,0-.54,1.86,3.8,3.8,0,0,0,1.12,2.79Z"/><path class="d" d="M37.73,103.31h18V57.11h-18ZM48,93H45.43V90.47H48Zm5.13,0H50.57V90.47h2.57ZM40.3,61a1.28,1.28,0,0,1,1.28-1.28H51.85A1.28,1.28,0,0,1,53.13,61v5.13a1.28,1.28,0,0,1-1.28,1.28H41.58a1.28,1.28,0,0,1-1.28-1.28Zm0,10.27a1.28,1.28,0,0,1,1.28-1.28H51.85a1.28,1.28,0,0,1,1.28,1.28v5.13a1.28,1.28,0,0,1-1.28,1.28H41.58a1.28,1.28,0,0,1-1.28-1.28Zm0,10.27a1.28,1.28,0,0,1,1.28-1.28H51.85a1.28,1.28,0,0,1,1.28,1.28v5.13a1.28,1.28,0,0,1-1.28,1.28H41.58a1.28,1.28,0,0,1-1.28-1.28Zm0,9h2.57V93H40.3Z"/><rect class="d" x="42.87" y="82.77" width="2.57" height="2.57"/><rect class="d" x="48" y="82.77" width="2.57" height="2.57"/><rect class="d" x="89.07" y="62.24" width="2.57" height="2.57"/><rect class="d" x="99.33" y="87.91" width="2.57" height="2.57"/><path class="d" d="M87.78,72.51a1.28,1.28,0,0,0-1.28,1.28v1.28H96.77V73.79a1.28,1.28,0,0,0-1.28-1.28Z"/><path class="d" d="M71.1,90.47V76.36a1.28,1.28,0,0,1,1.28-1.28H83.93V73.79a3.85,3.85,0,0,1,3.85-3.85h7.7a3.85,3.85,0,0,1,3.85,3.85v1.28h2.57V46.84h-18V68.66H81.37v-27H58.27v61.6h6.42V93H60.83V90.47ZM86.5,50.69a1.28,1.28,0,0,1,1.28-1.28H98.05a1.28,1.28,0,0,1,1.28,1.28v5.13a1.28,1.28,0,0,1-1.28,1.28H87.78a1.28,1.28,0,0,1-1.28-1.28ZM86.5,61a1.28,1.28,0,0,1,1.28-1.28H98.05A1.28,1.28,0,0,1,99.33,61v5.13a1.28,1.28,0,0,1-1.28,1.28H87.78a1.28,1.28,0,0,1-1.28-1.28ZM71.1,45.56a1.28,1.28,0,0,1,1.28-1.28h5.13a1.28,1.28,0,0,1,1.28,1.28v5.13A1.28,1.28,0,0,1,77.52,52H72.38a1.28,1.28,0,0,1-1.28-1.28Zm0,10.27a1.28,1.28,0,0,1,1.28-1.28h5.13a1.28,1.28,0,0,1,1.28,1.28V61a1.28,1.28,0,0,1-1.28,1.28H72.38A1.28,1.28,0,0,1,71.1,61Zm0,10.27a1.28,1.28,0,0,1,1.28-1.28h5.13a1.28,1.28,0,0,1,1.28,1.28v5.13a1.28,1.28,0,0,1-1.28,1.28H72.38a1.28,1.28,0,0,1-1.28-1.28ZM60.83,45.56a1.28,1.28,0,0,1,1.28-1.28h5.13a1.28,1.28,0,0,1,1.28,1.28v5.13A1.28,1.28,0,0,1,67.25,52H62.12a1.28,1.28,0,0,1-1.28-1.28Zm0,10.27a1.28,1.28,0,0,1,1.28-1.28h5.13a1.28,1.28,0,0,1,1.28,1.28V61a1.28,1.28,0,0,1-1.28,1.28H62.12A1.28,1.28,0,0,1,60.83,61Zm0,10.27a1.28,1.28,0,0,1,1.28-1.28h5.13a1.28,1.28,0,0,1,1.28,1.28v5.13a1.28,1.28,0,0,1-1.28,1.28H62.12a1.28,1.28,0,0,1-1.28-1.28Zm0,15.4a1.28,1.28,0,0,1,1.28-1.28h5.13a1.28,1.28,0,0,1,1.28,1.28v5.13a1.28,1.28,0,0,1-1.28,1.28H62.12a1.28,1.28,0,0,1-1.28-1.28Z"/><path class="d" d="M71.1,93H67.25v10.27h5.17a6.35,6.35,0,0,1-1.32-3.85Z"/><rect class="d" x="89.07" y="82.77" width="5.13" height="2.57"/><path class="b" d="M104.47,87.91v3.85A1.28,1.28,0,0,1,103.18,93H98.05a1.28,1.28,0,0,1-1.28-1.28V87.91H86.5v3.85A1.28,1.28,0,0,1,85.22,93H80.08a1.28,1.28,0,0,1-1.28-1.28V87.91H77.52a6.35,6.35,0,0,1-3.85-1.32V99.46a3.85,3.85,0,0,0,3.85,3.85h28.23a3.85,3.85,0,0,0,3.85-3.85V86.59a6.35,6.35,0,0,1-3.85,1.32Zm-7.7,12.83H94.2V98.17h2.57Zm5.13,0H99.33V98.17h2.57Zm5.13,0h-2.57V98.17H107Z"/><rect class="d" x="81.37" y="87.91" width="2.57" height="2.57"/><rect class="d" x="63.4" y="67.37" width="2.57" height="2.57"/><rect class="d" x="63.4" y="82.77" width="2.57" height="2.57"/><path class="b" d="M73.67,81.49a3.85,3.85,0,0,0,3.85,3.85h9V81.49a1.28,1.28,0,0,1,1.28-1.28h7.7a1.28,1.28,0,0,1,1.28,1.28v3.85h9a3.85,3.85,0,0,0,3.85-3.85V77.64H73.67Z"/><path class="c" d="M41.58,67.37H51.85a1.28,1.28,0,0,0,1.28-1.28V61a1.28,1.28,0,0,0-1.28-1.28H41.58A1.28,1.28,0,0,0,40.3,61v5.13A1.28,1.28,0,0,0,41.58,67.37ZM48,62.24h2.57v2.57H48Zm-5.13,0h2.57v2.57H42.87Z"/><path class="c" d="M41.58,77.64H51.85a1.28,1.28,0,0,0,1.28-1.28V71.22a1.28,1.28,0,0,0-1.28-1.28H41.58a1.28,1.28,0,0,0-1.28,1.28v5.13A1.28,1.28,0,0,0,41.58,77.64ZM48,72.51h2.57v2.57H48Zm-5.13,0h2.57v2.57H42.87Z"/><path class="c" d="M41.58,87.91H51.85a1.28,1.28,0,0,0,1.28-1.28V81.49a1.28,1.28,0,0,0-1.28-1.28H41.58a1.28,1.28,0,0,0-1.28,1.28v5.13A1.28,1.28,0,0,0,41.58,87.91ZM48,82.77h2.57v2.57H48Zm-5.13,0h2.57v2.57H42.87Z"/><path class="c" d="M87.78,67.37H98.05a1.28,1.28,0,0,0,1.28-1.28V61a1.28,1.28,0,0,0-1.28-1.28H87.78A1.28,1.28,0,0,0,86.5,61v5.13A1.28,1.28,0,0,0,87.78,67.37Zm6.42-5.13h2.57v2.57H94.2Zm-5.13,0h2.57v2.57H89.07Z"/><path class="c" d="M87.78,57.11H98.05a1.28,1.28,0,0,0,1.28-1.28V50.69a1.28,1.28,0,0,0-1.28-1.28H87.78a1.28,1.28,0,0,0-1.28,1.28v5.13A1.28,1.28,0,0,0,87.78,57.11ZM94.2,52h2.57v2.57H94.2Zm-5.13,0h2.57v2.57H89.07Z"/><path class="c" d="M62.12,72.51h5.13a1.28,1.28,0,0,0,1.28-1.28V66.09a1.28,1.28,0,0,0-1.28-1.28H62.12a1.28,1.28,0,0,0-1.28,1.28v5.13A1.28,1.28,0,0,0,62.12,72.51Zm1.28-5.13H66v2.57H63.4Z"/><path class="c" d="M72.38,72.51h5.13a1.28,1.28,0,0,0,1.28-1.28V66.09a1.28,1.28,0,0,0-1.28-1.28H72.38a1.28,1.28,0,0,0-1.28,1.28v5.13A1.28,1.28,0,0,0,72.38,72.51Zm1.28-5.13h2.57v2.57H73.67Z"/><path class="c" d="M62.12,62.24h5.13A1.28,1.28,0,0,0,68.53,61V55.82a1.28,1.28,0,0,0-1.28-1.28H62.12a1.28,1.28,0,0,0-1.28,1.28V61A1.28,1.28,0,0,0,62.12,62.24Zm1.28-5.13H66v2.57H63.4Z"/><path class="c" d="M72.38,62.24h5.13A1.28,1.28,0,0,0,78.8,61V55.82a1.28,1.28,0,0,0-1.28-1.28H72.38a1.28,1.28,0,0,0-1.28,1.28V61A1.28,1.28,0,0,0,72.38,62.24Zm1.28-5.13h2.57v2.57H73.67Z"/><path class="c" d="M62.12,52h5.13a1.28,1.28,0,0,0,1.28-1.28V45.56a1.28,1.28,0,0,0-1.28-1.28H62.12a1.28,1.28,0,0,0-1.28,1.28v5.13A1.28,1.28,0,0,0,62.12,52Zm1.28-5.13H66v2.57H63.4Z"/><path class="c" d="M72.38,52h5.13a1.28,1.28,0,0,0,1.28-1.28V45.56a1.28,1.28,0,0,0-1.28-1.28H72.38a1.28,1.28,0,0,0-1.28,1.28v5.13A1.28,1.28,0,0,0,72.38,52Zm1.28-5.13h2.57v2.57H73.67Z"/><path class="c" d="M62.12,87.91h5.13a1.28,1.28,0,0,0,1.28-1.28V81.49a1.28,1.28,0,0,0-1.28-1.28H62.12a1.28,1.28,0,0,0-1.28,1.28v5.13A1.28,1.28,0,0,0,62.12,87.91Zm1.28-5.13H66v2.57H63.4Z"/><rect class="c" x="40.3" y="90.47" width="2.57" height="2.57"/><rect class="c" x="45.43" y="90.47" width="2.57" height="2.57"/><rect class="c" x="50.57" y="90.47" width="2.57" height="2.57"/><path class="c" d="M110.88,75.07h-6.42V45.56a1.28,1.28,0,0,0-1.28-1.28h-9v-2l1.35-1.35a6.32,6.32,0,0,0,8.29-.59l.26-.26a1.28,1.28,0,0,0,0-1.81l-2.94-2.94,2.94-2.94-1.81-1.81-2.94,2.94-4.23-4.23a1.28,1.28,0,0,0-.91-.38,1.46,1.46,0,0,0-1,.47,6.21,6.21,0,0,0-2,4.49A6.42,6.42,0,0,0,93,38.49l.65.65L92,40.8a1.28,1.28,0,0,0-.38.91v2.57h-7.7V40.42a1.28,1.28,0,0,0-1.28-1.28H78.16l-7.32-9.75a1.33,1.33,0,0,0-2.05,0l-7.32,9.75H57a1.28,1.28,0,0,0-1.28,1.28V54.54H48V44.27H45.43V54.54h-9a1.28,1.28,0,0,0-1.28,1.28v48.77a1.28,1.28,0,0,0,1.28,1.28h69.3a6.42,6.42,0,0,0,6.42-6.42V76.36A1.28,1.28,0,0,0,110.88,75.07ZM55.7,103.31h-18V57.11h18ZM94.26,32l7,7a3.81,3.81,0,0,1-4.64-.57l-1.81-1.82a3.8,3.8,0,0,1-1.12-2.79A3.64,3.64,0,0,1,94.26,32Zm-24.44.27L75,39.14H64.68ZM64.68,93v10.27H58.27V41.71h23.1v27h2.57V46.84h18V75.07H99.33V73.79a3.85,3.85,0,0,0-3.85-3.85h-7.7a3.85,3.85,0,0,0-3.85,3.85v1.28H72.38a1.28,1.28,0,0,0-1.28,1.28V90.47H60.83V93ZM96.77,73.79v1.28H86.5V73.79a1.28,1.28,0,0,1,1.28-1.28h7.7A1.28,1.28,0,0,1,96.77,73.79ZM67.25,103.31V93H71.1v6.42a6.35,6.35,0,0,0,1.32,3.85Zm42.35-3.85a3.85,3.85,0,0,1-3.85,3.85H77.52a3.85,3.85,0,0,1-3.85-3.85V86.59a6.35,6.35,0,0,0,3.85,1.32H78.8v3.85A1.28,1.28,0,0,0,80.08,93h5.13a1.28,1.28,0,0,0,1.28-1.28V87.91H96.77v3.85A1.28,1.28,0,0,0,98.05,93h5.13a1.28,1.28,0,0,0,1.28-1.28V87.91h1.28a6.35,6.35,0,0,0,3.85-1.32Zm-28.23-9V87.91h2.57v2.57Zm7.7-5.13V82.77H94.2v2.57Zm10.27,5.13V87.91h2.57v2.57Zm10.27-9a3.85,3.85,0,0,1-3.85,3.85h-9V81.49a1.28,1.28,0,0,0-1.28-1.28h-7.7a1.28,1.28,0,0,0-1.28,1.28v3.85h-9a3.85,3.85,0,0,1-3.85-3.85V77.64H109.6Z"/><rect class="c" x="104.47" y="98.17" width="2.57" height="2.57"/><rect class="c" x="99.33" y="98.17" width="2.57" height="2.57"/><rect class="c" x="94.2" y="98.17" width="2.57" height="2.57"/></svg>