<svg xmlns="http://www.w3.org/2000/svg" viewBox="0 0 144 141"><defs><style>.a{fill:#ecf4e9;}.b{fill:#b8ccae;}.c{fill:#0f190f;}.d{fill:#fff;}</style></defs><title>ic</title><circle class="a" cx="70.1" cy="71.14" r="60" transform="translate(-17.42 119.25) rotate(-74.22)"/><ellipse class="b" cx="64.9" cy="16.55" rx="4.2" ry="8.2" transform="translate(-1.92 21.19) rotate(-18.28)"/><ellipse class="b" cx="68.83" cy="129.8" rx="3.4" ry="6.6" transform="translate(-37.24 28.14) rotate(-18.28)"/><ellipse class="c" cx="127.29" cy="51.2" rx="5.2" ry="2.6" transform="translate(-9.64 42.52) rotate(-18.28)"/><ellipse class="c" cx="12.54" cy="66.96" rx="5.2" ry="2.6" transform="matrix(0.95, -0.31, 0.31, 0.95, -20.37, 7.31)"/><polygon class="d" points="37.62 102.5 100.02 102.5 68.1 85.09 37.62 102.5"/><polygon class="d" points="34.39 79.68 34.39 100.65 52.18 90.48 34.39 79.68"/><polygon class="d" points="47.22 55 34.39 63.27 34.39 75.93 47.22 83.72 47.22 55"/><path class="b" d="M55.37,88.67l11.92-6.81a1.61,1.61,0,0,1,1.56,0L81.9,89l5.43-3.3h0V49.56H50.43V85.66h0Zm-.12-34.29a1.6,1.6,0,0,1,1.6-1.6H76.1a1.6,1.6,0,0,1,1.6,1.6V64a1.6,1.6,0,0,1-1.6,1.6H56.85a1.6,1.6,0,0,1-1.6-1.6Zm0,14.44H80.91V72H55.24Zm0,6.42H80.91v3.21H55.24Z"/><rect class="d" x="58.45" y="55.98" width="16.04" height="6.42"/><polygon class="d" points="103.37 100.67 103.37 79.68 85.16 90.74 103.37 100.67"/><polygon class="d" points="69.68 41.83 62.44 46.35 76.92 46.35 69.68 41.83"/><polygon class="d" points="90.54 83.72 103.37 75.93 103.37 63.27 90.54 55 90.54 83.72"/><path class="c" d="M105.84,61,90.91,51.42a1.58,1.58,0,0,0-.37-.14V48a1.6,1.6,0,0,0-1.6-1.6H83L70.53,38.58a1.6,1.6,0,0,0-1.7,0L56.39,46.35H48.83a1.6,1.6,0,0,0-1.6,1.6v3.32a1.55,1.55,0,0,0-.37.14L31.92,61a1.61,1.61,0,0,0-.73,1.35V104.1a1.6,1.6,0,0,0,1.6,1.6H105a1.6,1.6,0,0,0,1.6-1.6V62.4A1.61,1.61,0,0,0,105.84,61ZM69.68,41.83l7.24,4.52H62.44ZM50.43,49.56h36.9V85.66h0L81.9,89,68.85,81.84a1.61,1.61,0,0,0-1.56,0L55.37,88.67l-4.94-3h0Zm-16,13.71L47.22,55V83.72L34.39,75.93Zm0,16.41,17.79,10.8L34.39,100.65Zm3.23,22.82L68.1,85.09,100,102.5Zm65.75-1.83L85.16,90.74l18.21-11.06Zm0-24.74L90.54,83.72V55l12.83,8.27Z"/><path class="c" d="M56.85,65.6H76.1A1.6,1.6,0,0,0,77.7,64V54.37a1.6,1.6,0,0,0-1.6-1.6H56.85a1.6,1.6,0,0,0-1.6,1.6V64A1.6,1.6,0,0,0,56.85,65.6ZM58.45,56h16V62.4h-16Z"/><rect class="c" x="55.24" y="68.81" width="25.67" height="3.21"/><rect class="c" x="55.24" y="75.23" width="25.67" height="3.21"/><path class="c" d="M98.56,48a1.6,1.6,0,0,0,1.13-.47l5.67-5.67a1.6,1.6,0,0,0-2.27-2.27l-5.67,5.67A1.6,1.6,0,0,0,98.56,48Z"/><path class="c" d="M38.07,47.49a1.6,1.6,0,0,0,2.27-2.27l-5.67-5.67a1.6,1.6,0,0,0-2.27,2.27Z"/><path class="c" d="M85.13,39.82a1.59,1.59,0,0,0,.6.11,1.6,1.6,0,0,0,1.49-1l3.21-8a1.6,1.6,0,1,0-3-1.19l-3.21,8A1.6,1.6,0,0,0,85.13,39.82Z"/><path class="c" d="M52.15,38.93a1.6,1.6,0,0,0,1.49,1,1.58,1.58,0,0,0,.6-.11,1.6,1.6,0,0,0,.89-2.08l-3.21-8a1.6,1.6,0,1,0-3,1.19Z"/></svg>