<svg xmlns="http://www.w3.org/2000/svg" viewBox="0 0 144 141"><defs><style>.a{fill:#ecf4e9;}.b{fill:#b8ccae;}.c{fill:#0f190f;}.d{fill:#fff;}</style></defs><title>ic</title><circle class="a" cx="72.54" cy="70.21" r="60"/><ellipse class="b" cx="52.68" cy="19.1" rx="4.2" ry="8.2" transform="translate(-1.66 32.78) rotate(-34.06)"/><ellipse class="b" cx="87.27" cy="127" rx="3.4" ry="6.6" transform="translate(-56.16 70.67) rotate(-34.06)"/><ellipse class="c" cx="122.15" cy="35.47" rx="5.2" ry="2.6" transform="translate(1.09 74.5) rotate(-34.06)"/><ellipse class="c" cx="16.01" cy="81.84" rx="5.2" ry="2.6" transform="translate(-43.09 23.01) rotate(-34.06)"/><circle class="d" cx="60.97" cy="75.09" r="1.25"/><path class="b" d="M72,108.38a3.44,3.44,0,0,0,3.06-1.87H68.95A3.44,3.44,0,0,0,72,108.38Z"/><path class="b" d="M83.38,91.5H60.64a2.19,2.19,0,1,0,0,4.38H83.38a2.19,2.19,0,0,0,0-4.37Z"/><path class="b" d="M83.38,99H60.64a2.19,2.19,0,1,0,0,4.38H83.38a2.19,2.19,0,0,0,0-4.37Z"/><circle class="b" cx="53.44" cy="63.4" r="1.25"/><path class="d" d="M60.18,79.39a4.38,4.38,0,1,1,3.27-.69,8.74,8.74,0,0,1-4.91,7.17,4.65,4.65,0,0,0,8.77-2.14V48.61h0a4.61,4.61,0,1,0-9.22,0V49a2.7,2.7,0,0,0,.13.84,4.37,4.37,0,1,1-2.15,2.59A5.77,5.77,0,0,1,55,49.75a3.22,3.22,0,0,0-3.67,5,6.52,6.52,0,0,1,3.53,4.53,4.38,4.38,0,1,1-3.2.14,3.38,3.38,0,0,0-6.54,1.18v8A3.38,3.38,0,0,0,51,70.9,1.56,1.56,0,0,1,53.22,73a6.53,6.53,0,0,1-3.13,1.83,5.54,5.54,0,0,0-1,3.13,5.6,5.6,0,0,0,11,1.39Z"/><circle class="d" cx="60.26" cy="53.72" r="1.25"/><circle class="d" cx="90.56" cy="63.4" r="1.25"/><path class="d" d="M95.5,57.2a3.38,3.38,0,0,0-3.16,2.2,4.37,4.37,0,1,1-3.2-.14,6.52,6.52,0,0,1,3.53-4.53,3.22,3.22,0,0,0-3.67-5,5.84,5.84,0,0,1-1.2,2.86,4.38,4.38,0,1,1-2-2.68,2.69,2.69,0,0,0,.17-.92v-.41a4.61,4.61,0,1,0-9.22,0V83.73a4.65,4.65,0,0,0,8.77,2.14,8.74,8.74,0,0,1-4.91-7.17,4.37,4.37,0,1,1,3.27.69,5.6,5.6,0,0,0,11-1.39,5.54,5.54,0,0,0-1-3.13A6.53,6.53,0,0,1,90.78,73,1.56,1.56,0,1,1,93,70.9a3.38,3.38,0,0,0,5.83-2.32v-8A3.38,3.38,0,0,0,95.5,57.2Z"/><circle class="d" cx="83.55" cy="53.72" r="1.25"/><circle class="b" cx="83.03" cy="75.09" r="1.25"/><path class="c" d="M96.3,54.13a6.34,6.34,0,0,0-7.54-7.56,7.73,7.73,0,0,0-15.2,2V83.73a7.73,7.73,0,0,0,1.55,4.65H68.89a7.73,7.73,0,0,0,1.55-4.65V48.12a1.55,1.55,0,0,0-.05-.38,7.73,7.73,0,0,0-15.14-1.16,6.34,6.34,0,0,0-7.54,7.56A6.51,6.51,0,0,0,42,60.58v8a6.51,6.51,0,0,0,4.62,6.22,8.73,8.73,0,0,0,8.12,11.94c.25,0,.49,0,.73,0l.08.17a7.76,7.76,0,0,0,1.87,2.59,5.3,5.3,0,0,0-.54,8,5.31,5.31,0,0,0,3.76,9.06h5a6.56,6.56,0,0,0,12.75,0h5a5.31,5.31,0,0,0,3.76-9.06,5.3,5.3,0,0,0-.55-8,7.76,7.76,0,0,0,1.86-2.59l.08-.17c.24,0,.49,0,.73,0A8.73,8.73,0,0,0,97.37,74.8,6.51,6.51,0,0,0,102,68.57v-8A6.51,6.51,0,0,0,96.3,54.13ZM54.75,83.61a5.61,5.61,0,0,1-5.6-5.6,5.54,5.54,0,0,1,1-3.13A6.53,6.53,0,0,0,53.22,73,1.56,1.56,0,0,0,51,70.9a3.38,3.38,0,0,1-5.83-2.32v-8a3.38,3.38,0,0,1,6.54-1.18,4.37,4.37,0,1,0,3.2-.14,6.52,6.52,0,0,0-3.53-4.53,3.22,3.22,0,0,1,3.67-5,5.77,5.77,0,0,0,1.06,2.69,4.38,4.38,0,1,0,2.15-2.59,2.7,2.7,0,0,1-.13-.84v-.41a4.61,4.61,0,1,1,9.22,0h0V83.73a4.65,4.65,0,0,1-8.77,2.14,8.74,8.74,0,0,0,4.91-7.17,4.37,4.37,0,1,0-3.27.69A5.61,5.61,0,0,1,54.75,83.61ZM52.19,63.4a1.25,1.25,0,1,1,1.25,1.25A1.25,1.25,0,0,1,52.19,63.4ZM59,53.72A1.25,1.25,0,1,1,60.26,55,1.25,1.25,0,0,1,59,53.72Zm2,22.62a1.25,1.25,0,1,1,1.25-1.25A1.25,1.25,0,0,1,61,76.34Zm11,32a3.44,3.44,0,0,1-3.06-1.87h6.12A3.44,3.44,0,0,1,72,108.38Zm11.37-5H60.64a2.19,2.19,0,1,1,0-4.37H83.38a2.19,2.19,0,0,1,0,4.38Zm0-7.5H60.64a2.19,2.19,0,1,1,0-4.37H83.38a2.19,2.19,0,0,1,0,4.38Zm15.5-27.3A3.38,3.38,0,0,1,93,70.9,1.56,1.56,0,1,0,90.78,73a6.53,6.53,0,0,0,3.13,1.83,5.54,5.54,0,0,1,1,3.13,5.6,5.6,0,0,1-11,1.39,4.38,4.38,0,1,0-3.27-.69,8.74,8.74,0,0,0,4.91,7.17,4.65,4.65,0,0,1-8.77-2.14V48.61a4.61,4.61,0,1,1,9.22,0V49a2.69,2.69,0,0,1-.17.92,4.37,4.37,0,1,0,2,2.68A5.84,5.84,0,0,0,89,49.75a3.22,3.22,0,0,1,3.67,5,6.52,6.52,0,0,0-3.53,4.53,4.38,4.38,0,1,0,3.2.14,3.38,3.38,0,0,1,6.54,1.18ZM83,76.34a1.25,1.25,0,1,1,1.25-1.25A1.25,1.25,0,0,1,83,76.34ZM84.8,53.72a1.25,1.25,0,1,1-1.25-1.25A1.25,1.25,0,0,1,84.8,53.72Zm7,9.68a1.25,1.25,0,1,1-1.25-1.25A1.25,1.25,0,0,1,91.81,63.4Z"/><path class="c" d="M72,39.27a1.56,1.56,0,0,0,1.56-1.56V33.06a1.56,1.56,0,0,0-3.12,0v4.65A1.56,1.56,0,0,0,72,39.27Z"/><path class="c" d="M63.64,37.84a1.56,1.56,0,1,0,2.71-1.56l-1.4-2.42a1.56,1.56,0,1,0-2.71,1.56Z"/><path class="c" d="M78.28,38.4a1.56,1.56,0,0,0,2.13-.57l1.4-2.42a1.56,1.56,0,1,0-2.71-1.56l-1.4,2.42A1.56,1.56,0,0,0,78.28,38.4Z"/></svg>