<svg xmlns="http://www.w3.org/2000/svg" viewBox="0 0 144 141"><defs><style>.a{fill:#ecf4e9;}.b{fill:#b8ccae;}.c{fill:#0f190f;}.d{fill:#fff;}</style></defs><title>ic</title><circle class="a" cx="73.45" cy="69.69" r="60" transform="translate(-4.47 5.04) rotate(-3.81)"/><ellipse class="b" cx="123.13" cy="46.48" rx="8.2" ry="4.2" transform="translate(-2.59 85.39) rotate(-37.88)"/><ellipse class="b" cx="17.77" cy="88.16" rx="6.6" ry="3.4" transform="translate(-50.39 29.48) rotate(-37.88)"/><ellipse class="c" cx="111.42" cy="116.88" rx="2.6" ry="5.2" transform="translate(-48.29 93.03) rotate(-37.88)"/><ellipse class="c" cx="58.08" cy="14.06" rx="2.6" ry="5.2" transform="translate(3.61 38.62) rotate(-37.88)"/><path class="d" d="M90.17,95.87l-8.37,2a2,2,0,0,1-.46.05,2,2,0,0,1-1.95-2.47l2-8.35a2,2,0,0,1,.53-.95L97.39,70.54V57.28H85.86a2,2,0,0,1-2-2V43.75H51.77v59.3H97.39V89l-6.25,6.29A2,2,0,0,1,90.17,95.87ZM58.79,48.76h18a2,2,0,0,1,0,4h-18a2,2,0,1,1,0-4Zm0,9h18a2,2,0,0,1,0,4h-18a2,2,0,1,1,0-4Zm0,9H90.37a2,2,0,0,1,0,4H58.79a2,2,0,1,1,0-4Zm19.46,17L64.72,97.3a2,2,0,0,1-2.84,0l-4.51-4.51A2,2,0,0,1,60.21,90L63.3,93,75.42,80.93a2,2,0,1,1,2.84,2.84Z"/><path class="b" d="M87.86,53.27h9.52v-.64a2.49,2.49,0,0,0-.73-1.77l-6.38-6.38a2.49,2.49,0,0,0-1.77-.73h-.64Z"/><path class="b" d="M85.15,88.55,84,93.19l4.65-1.09,1-1-.08-.16a7,7,0,0,0-3.31-3.3l-.16-.08Z"/><path class="d" d="M88.36,34.57H42.75v59.3h5V41.74a2,2,0,0,1,2-2h38.6Z"/><path class="b" d="M89.14,84.53l.25.17a11,11,0,0,1,1.74,1.41,11.2,11.2,0,0,1,1.39,1.7l.17.25,13.19-13.28-3.54-3.54Z"/><path class="b" d="M108.71,65.89a2.49,2.49,0,0,0-1.77.73l-1.77,1.78,3.54,3.54,1.76-1.77a2.5,2.5,0,0,0-1.77-4.28Z"/><path d="M108.71,61.88a6.48,6.48,0,0,0-4.61,1.91L101.4,66.5V52.63A6.48,6.48,0,0,0,99.49,48l-6.38-6.38a6.59,6.59,0,0,0-.64-.56l-.1-.08V32.57a2,2,0,0,0-2-2H40.74a2,2,0,0,0-2,2V95.88a2,2,0,0,0,2,2h7v7.17a2,2,0,0,0,2,2H99.39a2,2,0,0,0,2-2V85l11.91-12a6.51,6.51,0,0,0-4.61-11.12ZM90.27,44.48l6.38,6.38a2.49,2.49,0,0,1,.73,1.77v.64H87.86V43.75h.64A2.49,2.49,0,0,1,90.27,44.48ZM47.76,41.74V93.88h-5V34.57H88.36v5.16H49.76A2,2,0,0,0,47.76,41.74Zm49.63,61.31H51.77V43.75H83.85V55.28a2,2,0,0,0,2,2H97.39V70.54L81.91,86.12a2,2,0,0,0-.53.95l-2,8.35a2,2,0,0,0,1.95,2.47,2,2,0,0,0,.46-.05l8.37-2a2,2,0,0,0,1-.54L97.39,89ZM88.29,89a7,7,0,0,1,1.37,1.93l.08.16-1,1L84,93.19l1.1-4.64,1-1,.16.08A7,7,0,0,1,88.29,89Zm4.4-.88-.17-.25a11.2,11.2,0,0,0-1.39-1.7A11,11,0,0,0,89.4,84.7l-.25-.17,13.2-13.29,3.54,3.54Zm17.78-17.9-1.76,1.77-3.54-3.54,1.77-1.78a2.51,2.51,0,0,1,3.54,3.55Z"/><path d="M58.79,52.77h18a2,2,0,0,0,0-4h-18a2,2,0,1,0,0,4Z"/><path d="M58.79,61.79h18a2,2,0,0,0,0-4h-18a2,2,0,1,0,0,4Z"/><path d="M58.79,70.82H90.37a2,2,0,0,0,0-4H58.79a2,2,0,1,0,0,4Z"/><path d="M76.83,80.34a2,2,0,0,0-1.42.59L63.3,93,60.21,90a2,2,0,1,0-2.84,2.84l4.51,4.51a2,2,0,0,0,2.84,0L78.25,83.77a2,2,0,0,0-1.42-3.42Z"/></svg>