<svg xmlns="http://www.w3.org/2000/svg" viewBox="0 0 144 141"><defs><style>.a{fill:#ecf4e9;}.b{fill:#b8ccae;}.c{fill:#0f190f;}.d{fill:#fff;}</style></defs><title>ic</title><circle class="a" cx="72" cy="70.5" r="60" transform="translate(-25.25 44.12) rotate(-29.22)"/><ellipse class="b" cx="106.92" cy="28.22" rx="8.2" ry="4.2" transform="translate(33.64 111.03) rotate(-63.28)"/><ellipse class="b" cx="29.63" cy="111.08" rx="6.6" ry="3.4" transform="translate(-82.91 87.6) rotate(-63.28)"/><ellipse class="c" cx="126.54" cy="96.84" rx="2.6" ry="5.2" transform="translate(-16.85 166.33) rotate(-63.28)"/><ellipse class="c" cx="34.25" cy="26.84" rx="2.6" ry="5.2" transform="translate(-5.12 45.37) rotate(-63.28)"/><path class="b" d="M66.47,54.52a1.43,1.43,0,0,1-2.15,1.22l-5.66-3.4L53,55.73a1.43,1.43,0,0,1-2.15-1.22V39.31H38.34V78.67H77.7V39.31H66.47Zm-23,21.74a1.42,1.42,0,1,1-2.84,0V72.42a1.42,1.42,0,0,1,2.84,0Zm3.84,0a1.42,1.42,0,1,1-2.84,0V72.42a1.42,1.42,0,0,1,2.84,0Zm6.39,0a1.42,1.42,0,1,1-2.84,0V72.42a1.42,1.42,0,0,1,2.84,0Zm3.84,0a1.42,1.42,0,0,1-2.84,0V72.42a1.42,1.42,0,0,1,2.84,0Zm3.84,0a1.42,1.42,0,1,1-2.84,0V72.42a1.42,1.42,0,1,1,2.84,0Zm3.84,0a1.42,1.42,0,1,1-2.84,0V72.42a1.42,1.42,0,0,1,2.84,0Zm6.39,0a1.42,1.42,0,1,1-2.84,0V72.42a1.42,1.42,0,1,1,2.84,0Zm3.84-3.84v3.84a1.42,1.42,0,0,1-2.84,0V72.42a1.42,1.42,0,0,1,2.84,0ZM74.14,59.63v5.11a1.42,1.42,0,0,1-1.42,1.42H44.59a1.42,1.42,0,0,1-1.42-1.42V59.63a1.42,1.42,0,0,1,1.42-1.42H72.72A1.42,1.42,0,0,1,74.14,59.63Z"/><rect class="d" x="46.01" y="61.05" width="25.29" height="2.28"/><path class="d" d="M91.9,64.89H84.37v10H93V66A1.14,1.14,0,0,0,91.9,64.89Z"/><path class="d" d="M38.34,96.57h2.35a9.22,9.22,0,0,1-.07-1.14,9.09,9.09,0,1,1,18.11,1.14h19V81.51H38.34Z"/><circle class="d" cx="49.71" cy="95.43" r="2.42"/><path class="d" d="M96.88,64.75a3.7,3.7,0,0,0-3.7-3.7H80.53V78.67H96.88Zm-1,11.51a1.42,1.42,0,0,1-1.42,1.42H83a1.42,1.42,0,0,1-1.42-1.42V63.47A1.42,1.42,0,0,1,83,62h9a4,4,0,0,1,4,4Z"/><path class="d" d="M49.7,89.18A6.25,6.25,0,1,0,56,95.43,6.26,6.26,0,0,0,49.7,89.18Zm0,11.51A5.25,5.25,0,1,1,55,95.43,5.26,5.26,0,0,1,49.7,100.69Z"/><path class="d" d="M59.39,49.47,63.63,52V39.31h-10V52l4.25-2.55A1.43,1.43,0,0,1,59.39,49.47Z"/><path class="d" d="M98.3,89.18a6.25,6.25,0,1,0,6.25,6.25A6.26,6.26,0,0,0,98.3,89.18Zm0,11.51a5.25,5.25,0,1,1,5.25-5.25A5.26,5.26,0,0,1,98.3,100.69Z"/><path class="d" d="M106,81.51H80.53V96.57h8.74a9.09,9.09,0,1,1,18.11-1.14,9.22,9.22,0,0,1-.07,1.14h2.35V85.2A3.7,3.7,0,0,0,106,81.51ZM85.51,85.34H83a1.42,1.42,0,0,1,0-2.84h2.56a1.42,1.42,0,1,1,0,2.84Z"/><circle class="d" cx="98.29" cy="95.43" r="2.42"/><path d="M106,78.67H99.71V64.75a6.54,6.54,0,0,0-6.53-6.53H80.53V37.89a1.42,1.42,0,0,0-1.42-1.42H36.92a1.42,1.42,0,0,0-1.42,1.42V98a1.42,1.42,0,0,0,1.42,1.42h4.61a9.09,9.09,0,0,0,16.34,0H90.12a9.09,9.09,0,0,0,16.34,0h4.61A1.42,1.42,0,0,0,112.5,98V85.2A6.54,6.54,0,0,0,106,78.67ZM53.68,39.31h10V52l-4.25-2.55a1.43,1.43,0,0,0-1.46,0L53.68,52Zm-4,62.38A6.25,6.25,0,1,1,56,95.43,6.26,6.26,0,0,1,49.7,101.69Zm28-5.11h-19a9.09,9.09,0,1,0-18.11-1.14,9.22,9.22,0,0,0,.07,1.14H38.34V81.51H77.7Zm0-45.89v28H38.34V39.31H50.84v15.2A1.43,1.43,0,0,0,53,55.73l5.66-3.4,5.66,3.4a1.43,1.43,0,0,0,2.15-1.22V39.31H77.7ZM80.53,61H93.18a3.7,3.7,0,0,1,3.7,3.7V78.67H80.53ZM98.3,101.69a6.25,6.25,0,1,1,6.25-6.25A6.26,6.26,0,0,1,98.3,101.69Zm11.37-5.11h-2.35a9.22,9.22,0,0,0,.07-1.14,9.09,9.09,0,1,0-18.11,1.14H80.53V81.51H106a3.7,3.7,0,0,1,3.7,3.7Z"/><path d="M98.3,90.18a5.25,5.25,0,1,0,5.25,5.25A5.26,5.26,0,0,0,98.3,90.18Zm0,7.67a2.42,2.42,0,1,1,2.42-2.42A2.42,2.42,0,0,1,98.3,97.85Z"/><path d="M49.7,90.18A5.25,5.25,0,1,0,55,95.43,5.26,5.26,0,0,0,49.7,90.18Zm0,7.67a2.42,2.42,0,1,1,2.42-2.42A2.42,2.42,0,0,1,49.7,97.85Z"/><path d="M85.51,82.51H83a1.42,1.42,0,0,0,0,2.84h2.56a1.42,1.42,0,1,0,0-2.84Z"/><path d="M91.9,62H83a1.42,1.42,0,0,0-1.42,1.42V76.25A1.42,1.42,0,0,0,83,77.67H94.46a1.42,1.42,0,0,0,1.42-1.42V66A4,4,0,0,0,91.9,62ZM93,74.84H84.37v-10H91.9A1.14,1.14,0,0,1,93,66Z"/><path d="M42,71a1.42,1.42,0,0,0-1.42,1.42v3.84a1.42,1.42,0,1,0,2.84,0V72.42A1.42,1.42,0,0,0,42,71Z"/><path d="M45.87,71a1.42,1.42,0,0,0-1.42,1.42v3.84a1.42,1.42,0,1,0,2.84,0V72.42A1.42,1.42,0,0,0,45.87,71Z"/><path d="M70.16,71a1.42,1.42,0,0,0-1.42,1.42v3.84a1.42,1.42,0,1,0,2.84,0V72.42A1.42,1.42,0,0,0,70.16,71Z"/><path d="M72.58,72.42v3.84a1.42,1.42,0,0,0,2.84,0V72.42a1.42,1.42,0,0,0-2.84,0Z"/><path d="M52.26,71a1.42,1.42,0,0,0-1.42,1.42v3.84a1.42,1.42,0,1,0,2.84,0V72.42A1.42,1.42,0,0,0,52.26,71Z"/><path d="M56.1,71a1.42,1.42,0,0,0-1.42,1.42v3.84a1.42,1.42,0,0,0,2.84,0V72.42A1.42,1.42,0,0,0,56.1,71Z"/><path d="M59.93,71a1.42,1.42,0,0,0-1.42,1.42v3.84a1.42,1.42,0,1,0,2.84,0V72.42A1.42,1.42,0,0,0,59.93,71Z"/><path d="M63.77,71a1.42,1.42,0,0,0-1.42,1.42v3.84a1.42,1.42,0,1,0,2.84,0V72.42A1.42,1.42,0,0,0,63.77,71Z"/><path d="M43.17,59.63v5.11a1.42,1.42,0,0,0,1.42,1.42H72.72a1.42,1.42,0,0,0,1.42-1.42V59.63a1.42,1.42,0,0,0-1.42-1.42H44.59A1.42,1.42,0,0,0,43.17,59.63ZM46,61H71.3v2.28H46Z"/></svg>