<svg xmlns="http://www.w3.org/2000/svg" viewBox="0 0 144 141"><defs><style>.a{fill:#ecf4e9;}.b{fill:#b8ccae;}.c{fill:#0f190f;}.d{fill:#fff;}</style></defs><title>ic</title><circle class="a" cx="73.65" cy="69.25" r="60" transform="translate(-10.09 12.62) rotate(-9.17)"/><ellipse class="b" cx="127.27" cy="80.71" rx="4.2" ry="8.2" transform="translate(0.48 162.18) rotate(-65.1)"/><ellipse class="b" cx="15.24" cy="63.76" rx="3.4" ry="6.6" transform="translate(-49.01 50.74) rotate(-65.1)"/><ellipse class="c" cx="100.04" cy="14.74" rx="5.2" ry="2.6" transform="translate(44.56 99.28) rotate(-65.1)"/><ellipse class="c" cx="71.17" cy="126.91" rx="5.2" ry="2.6" transform="translate(-73.91 138.04) rotate(-65.1)"/><path class="d" d="M66.92,54.49l2.64,9.76V52.06A6.77,6.77,0,0,1,66.92,54.49Z"/><path class="b" d="M52.21,76.16H46.72V92.81a1.45,1.45,0,0,1-2.89,0V76.16H38.34a1.45,1.45,0,0,0-1.45,1.45v23.56a1.45,1.45,0,0,0,1.45,1.45H52.21a1.45,1.45,0,0,0,1.45-1.45h0V77.61A1.45,1.45,0,0,0,52.21,76.16ZM46.3,99.3a1.44,1.44,0,1,1,.42-1A1.46,1.46,0,0,1,46.3,99.3Z"/><path class="d" d="M90.32,98.56H79.26a1.45,1.45,0,0,1,0-2.89h16a2,2,0,0,0,0-4h-16a1.45,1.45,0,0,1,0-2.89H98.34a2,2,0,1,0,0-4H79.26a1.45,1.45,0,0,1,0-2.89H93.82a2,2,0,0,0,0-4H65.4A1.45,1.45,0,0,1,64,76.66l-1.14-4.48-6.31,6.31v20l3.49,3a4.39,4.39,0,0,0,2.89,1.08H90.32a2,2,0,1,0,0-4Z"/><path class="d" d="M65,69l1.49,5.85h2.9L63.79,54a1.45,1.45,0,0,1,1-1.77,3.9,3.9,0,0,0,2.75-4.77,1.45,1.45,0,0,1,1-1.77l1-.26V40.07L58,43.17,64.79,68.5A1.44,1.44,0,0,1,65,69Z"/><circle class="b" cx="88.78" cy="68.5" r="4.03"/><path class="d" d="M72.45,74.86h2.82V46.09a1.45,1.45,0,0,1,1.45-1.45,3.9,3.9,0,0,0,3.89-3.89,1.45,1.45,0,0,1,1.45-1.45H95.5a1.45,1.45,0,0,1,1.45,1.45,3.9,3.9,0,0,0,3.89,3.89,1.45,1.45,0,0,1,1.45,1.45v5.78a1.45,1.45,0,1,1-2.89,0V47.38a6.8,6.8,0,0,1-5.18-5.18H83.34a6.8,6.8,0,0,1-5.18,5.18V74.86h7.9a6.92,6.92,0,1,1,5.43,0h2.32a4.91,4.91,0,0,1,4.48,6.94h0a4.91,4.91,0,0,1,1.05.11V65.47a1.45,1.45,0,0,1,2.89,0V83.78a4.91,4.91,0,0,1-2.64,7.67,4.91,4.91,0,0,1-4.39,7.11h-.45a4.9,4.9,0,0,1,0,4h10.31V34.39H72.45ZM101.86,60a1.44,1.44,0,1,1,.42-1A1.45,1.45,0,0,1,101.86,60Z"/><path class="c" d="M45.27,96.83a1.45,1.45,0,1,0,1,.42A1.46,1.46,0,0,0,45.27,96.83Z"/><path class="c" d="M100.84,57.52a1.45,1.45,0,1,0,1,.42A1.46,1.46,0,0,0,100.84,57.52Z"/><path class="c" d="M106.55,31.5H71a1.45,1.45,0,0,0-1.45,1.45v4.13l-13.7,3.67a1.45,1.45,0,0,0-1,1.77L61.93,69l-6.14,6.14a4.33,4.33,0,0,0-3.58-1.89H38.34A4.34,4.34,0,0,0,34,77.61v23.56a4.34,4.34,0,0,0,4.34,4.34H52.21a4.34,4.34,0,0,0,4.21-3.29l1.72,1.5a7.28,7.28,0,0,0,4.79,1.79h43.63a1.45,1.45,0,0,0,1.45-1.45V32.95a1.45,1.45,0,0,0-1.45-1.45Zm-52.9,69.66h0a1.45,1.45,0,0,1-1.45,1.45H38.34a1.45,1.45,0,0,1-1.45-1.45V77.61a1.45,1.45,0,0,1,1.45-1.45h5.49V92.81a1.45,1.45,0,0,0,2.89,0V76.16h5.49a1.45,1.45,0,0,1,1.45,1.45Zm4.34-58,11.56-3.1v5.36l-1,.26a1.45,1.45,0,0,0-1,1.77,3.9,3.9,0,0,1-2.75,4.77,1.45,1.45,0,0,0-1,1.77l5.63,20.86h-2.9L65,69a1.44,1.44,0,0,0-.24-.51Zm11.56,8.89v12.2l-2.64-9.76A6.77,6.77,0,0,0,69.55,52.06Zm20.76,50.55H62.92A4.39,4.39,0,0,1,60,101.53l-3.49-3v-20l6.31-6.31L64,76.66a1.45,1.45,0,0,0,1.4,1.09H93.82a2,2,0,0,1,0,4H79.26a1.45,1.45,0,0,0,0,2.89H98.34a2,2,0,1,1,0,4H79.26a1.45,1.45,0,0,0,0,2.89h16a2,2,0,0,1,0,4h-16a1.45,1.45,0,0,0,0,2.89H90.32a2,2,0,1,1,0,4Zm14.79,0H94.79a4.9,4.9,0,0,0,0-4h.45a4.91,4.91,0,0,0,4.39-7.11,4.91,4.91,0,0,0,2.64-7.67V65.47a1.45,1.45,0,0,0-2.89,0V81.91a4.91,4.91,0,0,0-1.05-.11h0a4.91,4.91,0,0,0-4.48-6.94H91.49a6.92,6.92,0,1,0-5.43,0h-7.9V47.38a6.8,6.8,0,0,0,5.18-5.18H94.21a6.8,6.8,0,0,0,5.18,5.18v4.49a1.45,1.45,0,1,0,2.89,0V46.09a1.45,1.45,0,0,0-1.45-1.45,3.9,3.9,0,0,1-3.89-3.89,1.45,1.45,0,0,0-1.45-1.45H82.05a1.45,1.45,0,0,0-1.45,1.45,3.9,3.9,0,0,1-3.89,3.89,1.45,1.45,0,0,0-1.45,1.45V74.86H72.45V34.39h32.66ZM88.78,72.53a4,4,0,1,1,4-4A4,4,0,0,1,88.78,72.53Z"/></svg>