<?xml version="1.0" encoding="utf-8"?>
<!-- Generator: Adobe Illustrator 21.0.0, SVG Export Plug-In . SVG Version: 6.00 Build 0)  -->
<svg version="1.1" id="Слой_1" xmlns="http://www.w3.org/2000/svg" xmlns:xlink="http://www.w3.org/1999/xlink" x="0px" y="0px"
	 viewBox="0 0 194.3 49.1" style="enable-background:new 0 0 194.3 49.1;" xml:space="preserve">
<style type="text/css">
	.st0{fill:#FFFFFF;}
	.st1{fill:url(#SVGID_1_);}
</style>
<g>
	<g>
		<path class="st0" d="M0,36.9l5.1-24.2h5L5.8,32.8h12.3l-0.8,4H0V36.9z"/>
		<path class="st0" d="M35.8,29.6H24c0,0.2,0,0.3,0,0.4c0,1.2,0.3,2.1,1,2.8s1.5,1.1,2.4,1.1c1.6,0,2.8-0.8,3.7-2.4l4.2,0.7
			c-0.8,1.7-1.9,3-3.3,3.8c-1.4,0.9-2.9,1.3-4.6,1.3c-2.4,0-4.3-0.7-5.7-2.2c-1.5-1.5-2.2-3.5-2.2-5.9s0.7-4.5,2-6.4
			c1.8-2.5,4.4-3.8,7.8-3.8c2.1,0,3.8,0.7,5.1,2s1.9,3.2,1.9,5.6C36.2,27.6,36,28.7,35.8,29.6z M31.8,26.7c0-0.2,0-0.4,0-0.5
			c0-1.3-0.3-2.3-0.9-2.9s-1.4-1-2.3-1c-1,0-1.9,0.4-2.6,1.1c-0.8,0.7-1.3,1.8-1.6,3.3H31.8z"/>
		<path class="st0" d="M43.9,32l-4.4,4.9h-5.8l8.1-9l-4.5-8.5h5l2.6,5l4.4-5h5.8L47,28.5l4.4,8.4h-5L43.9,32z"/>
	</g>
	<g>
		<path class="st0" d="M101.1,31l4.6-0.7c0.4,1,0.9,1.7,1.5,2.1c0.6,0.4,1.4,0.6,2.5,0.6s1.9-0.2,2.6-0.7c0.5-0.3,0.7-0.7,0.7-1.2
			c0-0.3-0.1-0.6-0.3-0.9c-0.2-0.2-0.9-0.5-2-0.9c-2.9-0.9-4.6-1.7-5.3-2.2c-1.1-0.9-1.6-2-1.6-3.4s0.5-2.6,1.5-3.6
			c1.4-1.4,3.6-2.1,6.4-2.1c2.3,0,4,0.4,5.1,1.2s1.9,1.9,2.2,3.3l-4.4,0.8c-0.2-0.6-0.6-1.1-1.1-1.4c-0.7-0.4-1.6-0.6-2.5-0.6
			s-1.7,0.2-2.1,0.5s-0.6,0.7-0.6,1.1s0.2,0.8,0.7,1.1c0.3,0.2,1.2,0.5,2.7,0.9c2.3,0.7,3.9,1.3,4.6,2c1.1,0.9,1.7,2,1.7,3.3
			c0,1.7-0.7,3.1-2.1,4.3s-3.4,1.8-5.9,1.8s-4.5-0.5-5.9-1.4C102.5,34,101.6,32.7,101.1,31z"/>
		<path class="st0" d="M120.1,21.9l0.7-3.5h2.3l0.6-2.8l5.4-3.3l-1.3,6.1h2.9l-0.7,3.5h-2.9l-1.5,7.3c-0.3,1.3-0.4,2.1-0.4,2.3
			c0,0.4,0.1,0.6,0.3,0.8c0.2,0.2,0.6,0.3,1.3,0.3c0.2,0,0.7,0,1.6-0.1l-0.7,3.5c-0.8,0.2-1.7,0.2-2.5,0.2c-1.7,0-2.9-0.3-3.6-1
			c-0.8-0.6-1.1-1.5-1.1-2.7c0-0.5,0.2-1.8,0.6-3.7l1.5-7L120.1,21.9L120.1,21.9z"/>
		<path class="st0" d="M136.3,23.4l-4.6-0.4c0.5-1.6,1.4-2.8,2.8-3.7c1.3-0.9,3.1-1.3,5.2-1.3c2.3,0,3.9,0.5,5,1.4s1.6,2,1.6,3.3
			c0,0.5,0,1.1-0.1,1.7s-0.4,2.2-1,4.7c-0.5,2.1-0.7,3.5-0.7,4.4c0,0.7,0.1,1.6,0.4,2.5h-4.6c-0.2-0.6-0.3-1.3-0.3-2
			c-0.7,0.8-1.5,1.4-2.4,1.8c-0.9,0.4-1.8,0.6-2.7,0.6c-1.5,0-2.6-0.5-3.6-1.4c-0.9-1-1.4-2.2-1.4-3.7c0-1.7,0.5-3,1.6-4
			c1-1,2.9-1.6,5.6-1.8c2.3-0.2,3.8-0.4,4.5-0.7c0.2-0.7,0.3-1.2,0.3-1.6c0-0.5-0.2-0.9-0.6-1.3c-0.4-0.3-1-0.5-1.8-0.5
			s-1.5,0.2-2,0.5C136.8,22.2,136.5,22.7,136.3,23.4z M140.8,27.8c-0.3,0.1-0.7,0.1-1.1,0.2c-2.4,0.3-3.9,0.7-4.6,1.3
			c-0.5,0.4-0.8,0.9-0.8,1.6c0,0.5,0.2,1,0.6,1.4c0.4,0.4,0.9,0.6,1.6,0.6c0.7,0,1.4-0.2,2-0.5s1.1-0.8,1.4-1.3
			c0.3-0.5,0.6-1.4,0.8-2.5L140.8,27.8z"/>
		<path class="st0" d="M148.1,21.9l0.7-3.5h2.3l0.6-2.8l5.4-3.3l-1.3,6.1h2.9l-0.7,3.5h-2.9l-1.5,7.3c-0.3,1.3-0.4,2.1-0.4,2.3
			c0,0.4,0.1,0.6,0.3,0.8s0.6,0.3,1.3,0.3c0.2,0,0.7,0,1.6-0.1l-0.7,3.5c-0.8,0.2-1.7,0.2-2.5,0.2c-1.7,0-2.9-0.3-3.6-1
			c-0.8-0.6-1.1-1.5-1.1-2.7c0-0.5,0.2-1.8,0.6-3.7l1.5-7L148.1,21.9L148.1,21.9z"/>
		<path class="st0" d="M160.3,18.4h4.7l-2.2,10.4c-0.3,1.2-0.4,2-0.4,2.3c0,0.5,0.2,0.9,0.6,1.3c0.4,0.4,0.9,0.5,1.4,0.5
			c0.4,0,0.8-0.1,1.2-0.2c0.4-0.2,0.8-0.4,1.3-0.7c0.4-0.3,0.8-0.7,1.2-1.1c0.3-0.4,0.7-1,1-1.6c0.2-0.5,0.4-1.3,0.7-2.5l1.7-8.3
			h4.7L172.5,36h-4.4l0.5-2.4c-1.9,1.9-4,2.8-6.3,2.8c-1.4,0-2.6-0.4-3.4-1.2c-0.8-0.8-1.2-1.9-1.2-3.3c0-0.6,0.2-1.8,0.6-3.6
			L160.3,18.4z"/>
		<path class="st0" d="M175.1,31l4.6-0.7c0.4,1,0.9,1.7,1.5,2.1c0.6,0.4,1.4,0.6,2.5,0.6s1.9-0.2,2.6-0.7c0.5-0.3,0.7-0.7,0.7-1.2
			c0-0.3-0.1-0.6-0.3-0.9c-0.2-0.2-0.9-0.5-2-0.9c-2.9-0.9-4.6-1.7-5.3-2.2c-1.1-0.9-1.6-2-1.6-3.4s0.5-2.6,1.5-3.6
			c1.4-1.4,3.6-2.1,6.4-2.1c2.3,0,4,0.4,5.1,1.2s1.9,1.9,2.2,3.3l-4.4,0.8c-0.2-0.6-0.6-1.1-1.1-1.4c-0.7-0.4-1.6-0.6-2.5-0.6
			s-1.7,0.2-2.1,0.5c-0.4,0.3-0.6,0.7-0.6,1.1s0.2,0.8,0.7,1.1c0.3,0.2,1.2,0.5,2.7,0.9c2.3,0.7,3.9,1.3,4.6,2
			c1.1,0.9,1.6,2,1.6,3.3c0,1.7-0.7,3.1-2.1,4.3c-1.4,1.2-3.4,1.8-5.9,1.8s-4.5-0.5-5.9-1.4C176.5,34,175.6,32.7,175.1,31z"/>
	</g>
	
		<linearGradient id="SVGID_1_" gradientUnits="userSpaceOnUse" x1="78.4642" y1="797.1" x2="78.4642" y2="748" gradientTransform="matrix(1 0 0 1 0 -748)">
		<stop  offset="0" style="stop-color:#40953D"/>
		<stop  offset="1" style="stop-color:#89DB3C"/>
	</linearGradient>
	<path class="st1" d="M81.1,49.1c-1.4,0-2.6-0.6-3.5-1.7c-0.3-0.3-1.2-1.5-1.2-3.3s0.9-3.5,2.6-5.2l9.4-9c0,0,1.9-1.5,2.2-3.5
		c0.1-1.2-0.3-2.4-1.4-3.6l-0.1-0.1c0,0-1-1.2-2.5-1.2c-1.4-0.1-3.1,0.8-4.8,2.5l-5,4.8c-1.9,1.9-6.6,4.6-10.8,1.1
		c-0.5-0.4-3.2-2.6-3.4-5.9c-0.2-2.3,0.8-4.5,2.9-6.6L75.7,7.1c0.2-0.2,2-1.8,1.1-3.2c-0.3-0.2-1.4-0.7-3.3,1.2L64.9,14
		c0,0-4.1,3.6-4.7,7.9l0,0c0,0-0.4,4.3,2.3,7.9l0.1,0.2c0.1,0.1,2.3,4,7.7,4h0.2c0.1,0,3.6,0.4,6.8-2.3c3.2-2.9,6.8-6.2,7.3-6.8
		c0.5-0.7,1.5-1,2.3-0.6c0.9,0.5,1.3,1.6,0.8,2.5c-0.2,0.4-0.4,0.8-8.1,7.7c-4.1,3.5-8.7,3.3-9.6,3.3c-7,0-10.3-4.9-10.8-5.8
		c-3.5-4.8-2.9-10.2-2.9-10.5c0.7-5.5,5.2-9.6,5.9-10.2l8.4-8.7C72.6,0.9,74.3,0,76,0c0,0,0,0,0.1,0c2.1,0,3.3,1.3,3.5,1.4l0.1,0.1
		c2.6,3.4,0.2,6.9-1.5,8.3l-10,10c-1.3,1.3-1.9,2.5-1.8,3.7c0.1,1.9,2,3.3,2,3.3l0.1,0.1c2.6,2.2,5.7-0.8,5.8-0.9l5-4.8
		c2.5-2.5,5.1-3.7,7.7-3.6c3,0.2,4.8,2.2,5.1,2.6c1.8,2,2.5,4.2,2.2,6.4c-0.4,3.3-2.9,5.5-3.5,5.9l-9.2,8.8c-1,0.9-1.5,1.8-1.5,2.5
		c0,0.5,0.2,0.8,0.2,0.8l0.1,0.1c0.4,0.4,0.6,0.4,0.8,0.4c1,0,2.5-1.3,3.2-2.2l0.1-0.1l8.8-9.4c2.9-3.5,4.1-6.8,3.6-9.8
		c-0.7-4.4-4.7-6.8-4.8-6.8l-0.2-0.1c-5.5-4.1-12,0.3-12.6,0.7c-2.3,1.9-6.2,5.4-7.1,6.9c-0.5,0.9-1.7,1.1-2.5,0.6
		c-0.9-0.5-1.1-1.7-0.6-2.5c1.6-2.6,7.3-7.3,8-7.9l0.1-0.1c0.4-0.3,9.1-6.6,16.9-0.7c0.7,0.5,5.5,3.7,6.4,9.3
		c0.7,4.2-0.8,8.5-4.4,12.9L96,36.1l-8.8,9.4C86.7,46.1,84.1,49.1,81.1,49.1L81.1,49.1z"/>
</g>
</svg>