<?xml version="1.0" encoding="utf-8"?>
<!-- Generator: Adobe Illustrator 21.1.0, SVG Export Plug-In . SVG Version: 6.00 Build 0)  -->
<svg version="1.1" id="Layer_1" xmlns="http://www.w3.org/2000/svg" xmlns:xlink="http://www.w3.org/1999/xlink" x="0px" y="0px"
	 viewBox="0 0 32 32" style="enable-background:new 0 0 32 32;" xml:space="preserve">
<path d="M16,0C7.2,0,0,7.2,0,16s7.2,16,16,16s16-7.2,16-16S24.8,0,16,0z M25.2,23.5c-0.3,0.6-0.9,1.1-1.8,1.5s-1.7,0.6-2.4,0.6
	c-0.2,0-0.4,0-0.6,0s-0.4-0.1-0.6-0.1s-0.4-0.1-0.6-0.2c-0.3-0.1-0.4-0.1-0.6-0.2c-0.1,0-0.3-0.1-0.6-0.2c-0.3-0.1-0.5-0.2-0.6-0.2
	c-2.1-0.8-4.1-2.1-6-4.1s-3.3-4-4.1-6c0-0.1-0.1-0.3-0.2-0.6s-0.2-0.5-0.2-0.6s-0.1-0.3-0.2-0.6s-0.1-0.5-0.2-0.6s-0.1-0.3-0.1-0.6
	c0-0.2,0-0.4,0-0.6c0-0.7,0.2-1.5,0.6-2.4c0.5-0.9,1-1.5,1.5-1.8c0.7-0.3,1.3-0.4,1.9-0.4c0.1,0,0.2,0,0.3,0s0.2,0.1,0.3,0.3
	c0.1,0.2,0.3,0.5,0.5,0.8s0.3,0.6,0.5,0.9s0.3,0.6,0.5,0.9c0.1,0.3,0.2,0.5,0.3,0.5c0,0.1,0.1,0.2,0.2,0.4c0.1,0.2,0.2,0.3,0.3,0.5
	c0.1,0.1,0.1,0.3,0.1,0.4c0,0.2-0.1,0.4-0.4,0.7c-0.3,0.3-0.5,0.5-0.8,0.7s-0.6,0.5-0.8,0.7c-0.3,0.3-0.4,0.5-0.4,0.6s0,0.2,0.1,0.3
	c0,0.1,0.1,0.2,0.1,0.3s0.1,0.2,0.2,0.3s0.1,0.2,0.2,0.3c0.7,1.2,1.5,2.3,2.4,3.2c0.9,0.9,2,1.7,3.2,2.4c0,0,0.1,0.1,0.3,0.2
	c0.1,0.1,0.2,0.1,0.3,0.2c0.1,0,0.2,0.1,0.3,0.1s0.2,0.1,0.3,0.1c0.2,0,0.5-0.2,0.8-0.6c0.4-0.4,0.7-0.8,1.1-1.2
	c0.4-0.4,0.7-0.6,0.9-0.6c0.1,0,0.3,0,0.4,0.1s0.3,0.2,0.5,0.3c0.2,0.1,0.3,0.2,0.4,0.2l1,0.5c0.7,0.4,1.2,0.7,1.7,0.9
	c0.4,0.3,0.7,0.5,0.7,0.6s0,0.2,0,0.3C25.6,22.2,25.5,22.8,25.2,23.5z"/>
</svg>
