<?xml version="1.0" encoding="utf-8"?>
<!-- Generator: Adobe Illustrator 21.1.0, SVG Export Plug-In . SVG Version: 6.00 Build 0)  -->
<svg version="1.1" id="Layer_1" xmlns="http://www.w3.org/2000/svg" xmlns:xlink="http://www.w3.org/1999/xlink" x="0px" y="0px"
	 viewBox="0 0 32 32" style="enable-background:new 0 0 32 32;" xml:space="preserve">
<title>Telegram</title>
<desc>Created with Sketch.</desc>
<g id="Icons">
	<g id="Icon-Set" transform="translate(-399.000000, -835.000000)">
		<g transform="translate(69.000000, 66.000000)">
			<path d="M346,769c-8.8,0-16,7.2-16,16s7.2,16,16,16s16-7.2,16-16S354.8,769,346,769z M354.5,778.7l-2.9,13.5
				c-0.2,1-0.8,1.2-1.6,0.7l-4.2-3.1l-3.2,3.7c-0.6,0-0.5-0.2-0.7-0.8l-1.7-5.5l10.1-6.3l0.7-0.6c0.3-0.3-0.1-0.5-0.6-0.2l-10,6.3
				l-4.3-1.4c-0.9-0.3-0.9-0.9,0.2-1.4l16.8-6.5C354,777,354.7,777.5,354.5,778.7z"/>
		</g>
	</g>
</g>
</svg>
