<svg xmlns="http://www.w3.org/2000/svg" viewBox="0 0 485.2 485.2"><path d="M394.2 333.6h-30.3c-33.5 0-60.7-27.2-60.7-60.7v-19.5c13.4-15.9 23-34.8 29-54.7.6-3.4 3.9-5 6-7.3 11.6-11.6 13.9-31.2 5.2-45.1-1.2-2.1-3.3-4-3.2-6.6 0-17.8.1-35.6 0-53.4-.5-21.5-6.6-43.8-21.7-59.7-12.1-12.8-28.8-20.5-46-23.8-21.7-4.1-44.5-3.9-66 1.5-18.7 4.7-36.2 15.6-47 31.8-9.6 14.1-13.8 31.2-14.5 48-.3 18.1-.1 36.2-.1 54.4.4 3.6-2.7 6.1-4.1 9.1-8.2 14.9-4.6 35.2 8.6 46 3.3 2.3 4 6.5 5.2 10.1 5.7 17.9 15.3 34.5 27.3 48.9v20.1c0 33.5-27.2 60.7-60.7 60.7H91s-55 15.2-91 91v30.3C0 471.5 13.6 485 30.3 485h424.6c16.8 0 30.3-13.6 30.3-30.3v-30.3c-36-75.7-91-90.8-91-90.8z"/></svg>