<?xml version="1.0" encoding="utf-8"?><svg xmlns="http://www.w3.org/2000/svg" xmlns:xlink="http://www.w3.org/1999/xlink"><symbol viewBox="0 0 512 512" id="001-credit-card" xmlns="http://www.w3.org/2000/svg"><path d="M496 319.996c-8.832 0-16 7.168-16 16v112H32v-192h176c8.832 0 16-7.168 16-16s-7.168-16-16-16H32v-64h176c8.832 0 16-7.168 16-16s-7.168-16-16-16H32c-17.664 0-32 14.336-32 32v288c0 17.664 14.336 32 32 32h448c17.664 0 32-14.336 32-32v-112c0-8.832-7.168-16-16-16z"/><path d="M144 319.996H80c-8.832 0-16 7.168-16 16s7.168 16 16 16h64c8.832 0 16-7.168 16-16s-7.168-16-16-16zm358.304-238.72l-112-48a16.337 16.337 0 0 0-12.64 0l-112 48A16.039 16.039 0 0 0 256 95.996v64c0 88.032 32.544 139.488 120.032 189.888 2.464 1.408 5.216 2.112 7.968 2.112s5.504-.704 7.968-2.112C479.456 299.612 512 248.156 512 159.996v-64c0-6.4-3.808-12.192-9.696-14.72zM480 159.996c0 73.888-24.448 114.56-96 157.44-71.552-42.976-96-83.648-96-157.44v-53.44l96-41.152 96 41.152v53.44z"/><path d="M442.016 131.484c-6.88-5.44-16.928-4.384-22.496 2.496l-50.304 62.912-19.904-29.76c-4.96-7.36-14.912-9.312-22.176-4.448-7.328 4.896-9.344 14.848-4.448 22.176l32 48c2.848 4.256 7.52 6.88 12.64 7.136H368c4.832 0 9.44-2.176 12.512-6.016l64-80c5.504-6.912 4.416-16.96-2.496-22.496z"/></symbol><symbol viewBox="0 0 510.818 510.818" id="002-box" xmlns="http://www.w3.org/2000/svg"><path d="M502.849 193.588l-45.088-26.208 45.088-26.112a16.047 16.047 0 0 0 7.968-14.08 15.909 15.909 0 0 0-8.352-13.824l-176-96c-4.864-2.656-10.848-2.592-15.68.192l-55.36 32.192-55.36-32.192c-4.768-2.784-10.784-2.88-15.68-.192l-176 96a15.914 15.914 0 0 0-8.384 13.824c-.064 5.824 2.976 11.168 7.968 14.048l45.088 26.112-45.088 26.208a16.071 16.071 0 0 0-7.968 14.048c.064 5.792 3.264 11.072 8.32 13.856l55.68 30.56v131.392c0 5.856 3.2 11.264 8.352 14.016l176 96c.192.096.416.064.608.16 2.144 1.088 4.48 1.824 7.04 1.824 2.56 0 4.896-.736 7.072-1.824.192-.096.416-.064.608-.16l176-96c5.12-2.752 8.32-8.16 8.32-14.016V251.38l54.496-29.92c5.056-2.784 8.256-8.064 8.32-13.856.064-5.76-2.976-11.136-7.968-14.016zM319.073 49.78l143.104 78.016-36.32 21.024-138.592-80.544 31.808-18.496zm-270.4 78.048l143.104-78.016 31.808 18.496L84.961 148.82l-36.288-20.992zm-.128 79.168l36.416-21.152 138.496 80.192-32.864 19.008-142.048-78.048zm191.456 245.472l-144-78.56v-104.32l87.136 47.84a15.876 15.876 0 0 0 7.68 1.984c2.784 0 5.536-.704 8.032-2.144l41.152-23.84v159.04zm15.392-204.96l-138.56-80.224 138.56-80.512 138.56 80.512-138.56 80.224zm160.608 126.4l-144 78.56V294.1l39.968 23.136a15.708 15.708 0 0 0 8.032 2.176c2.656 0 5.312-.672 7.68-1.984l88.32-48.48v104.96zm-95.776-88.896l-32.864-19.008 138.496-80.192 36.416 21.184-142.048 78.016z"/></symbol><symbol viewBox="0 0 480 480" id="003-barcode" xmlns="http://www.w3.org/2000/svg"><path d="M80 48H16C7.168 48 0 55.168 0 64v64c0 8.832 7.168 16 16 16s16-7.168 16-16V80h48c8.832 0 16-7.168 16-16s-7.168-16-16-16zm384 288c-8.832 0-16 7.168-16 16v48h-48c-8.832 0-16 7.168-16 16s7.168 16 16 16h64c8.832 0 16-7.168 16-16v-64c0-8.832-7.168-16-16-16zm0-288h-64c-8.832 0-16 7.168-16 16s7.168 16 16 16h48v48c0 8.832 7.168 16 16 16s16-7.168 16-16V64c0-8.832-7.168-16-16-16zM80 400H32v-48c0-8.832-7.168-16-16-16s-16 7.168-16 16v64c0 8.832 7.168 16 16 16h64c8.832 0 16-7.168 16-16s-7.168-16-16-16zm0-288c-8.832 0-16 7.168-16 16v224c0 8.832 7.168 16 16 16s16-7.168 16-16V128c0-8.832-7.168-16-16-16zm64 0c-8.832 0-16 7.168-16 16v160c0 8.832 7.168 16 16 16s16-7.168 16-16V128c0-8.832-7.168-16-16-16zm64 0c-8.832 0-16 7.168-16 16v160c0 8.832 7.168 16 16 16s16-7.168 16-16V128c0-8.832-7.168-16-16-16zm64 0c-8.832 0-16 7.168-16 16v224c0 8.832 7.168 16 16 16s16-7.168 16-16V128c0-8.832-7.168-16-16-16zm64 0c-8.832 0-16 7.168-16 16v160c0 8.832 7.168 16 16 16s16-7.168 16-16V128c0-8.832-7.168-16-16-16zm64 0c-8.832 0-16 7.168-16 16v224c0 8.832 7.168 16 16 16s16-7.168 16-16V128c0-8.832-7.168-16-16-16zM144.64 336h-.32c-8.832 0-15.84 7.168-15.84 16s7.328 16 16.16 16 16-7.168 16-16-7.168-16-16-16zm64 0h-.32c-8.832 0-15.84 7.168-15.84 16s7.328 16 16.16 16 16-7.168 16-16-7.168-16-16-16zm128 0h-.32c-8.832 0-15.84 7.168-15.84 16s7.328 16 16.16 16 16-7.168 16-16-7.168-16-16-16z"/></symbol><symbol viewBox="0 0 31.112 31.112" id="004-multiply" xmlns="http://www.w3.org/2000/svg"><path d="M31.112 1.414L29.698 0 15.556 14.142 1.414 0 0 1.414l14.142 14.142L0 29.698l1.414 1.414L15.556 16.97l14.142 14.142 1.414-1.414L16.97 15.556z"/></symbol></svg>